<?xml version="1.0" standalone="no"?>
<!DOCTYPE svg PUBLIC "-//W3C//DTD SVG 1.1//EN" "http://www.w3.org/Graphics/SVG/1.1/DTD/svg11.dtd" >
<svg xmlns="http://www.w3.org/2000/svg">
<metadata></metadata>
<defs>
<font id="stanleyregular_italic" horiz-adv-x="1341" >
<font-face units-per-em="2048" ascent="1622" descent="-426" />
<missing-glyph horiz-adv-x="516" />
<glyph unicode="&#xfb00;" horiz-adv-x="1157" d="M907 1004h-393l14 45q47 166 118 238.5t149 72.5q41 0 69.5 -13.5t48 -33t32.5 -44t24 -48.5zM496 936h391l-228 -846q-45 -166 -107.5 -260t-162.5 -94q-59 0 -111.5 42t-80.5 122zM1044 936h228l20 68h-229l27 92q47 166 97 238.5t97 72.5q35 0 52.5 -29.5t17.5 -81.5 v-28h147q14 10 25.5 33.5t11.5 58.5q0 51 -43 86t-141 35q-78 0 -145.5 -36t-125.5 -102q-31 33 -81 62t-138 29q-84 0 -161.5 -32t-143 -89.5t-118 -136t-83.5 -172.5h-168l-14 -48l160 -32l-256 -951q-45 -166 -94 -245.5t-97 -79.5q-47 0 -65.5 29.5t-18.5 80.5v29h-147 q-14 -10 -25.5 -33.5t-11.5 -58.5q0 -51 43 -86t141 -35q96 0 178.5 44t129.5 122q35 -33 85 -55.5t136 -22.5q180 0 308 149.5t206 430.5z" />
<glyph unicode="&#xfb01;" horiz-adv-x="1087" d="M668 283q-12 -37 -24.5 -76t-22 -74t-15.5 -63.5t-6 -44.5q0 -51 43 -52q39 0 85 23.5t95 64.5t99.5 98.5t97.5 123.5l-37 32q-49 -66 -94 -111.5t-101 -80.5q0 29 11.5 84t38.5 131l231 666h-555l27 92q31 102 61.5 163.5t62 94t64.5 43t68 10.5t62.5 -14.5t48 -36 t30.5 -49t10 -52.5v-28h148q14 10 25.5 33.5t11.5 58.5q0 25 -9.5 53.5t-37 53t-81 40t-139.5 15.5q-174 0 -302 -118t-206 -359h-168l-14 -48l160 -32l-256 -951q-45 -166 -94 -245.5t-97 -79.5q-47 0 -65.5 29.5t-18.5 80.5v29h-147q-14 -10 -25.5 -33.5t-11.5 -58.5 q0 -51 43 -86t141 -35q84 0 154 43t128 119t103.5 179t79.5 224l226 797h331l47 -55z" />
<glyph unicode="&#xfb02;" horiz-adv-x="1114" d="M723 936l20 68h-229l27 92q31 102 62.5 163.5t64 94t64.5 43t61 10.5q37 0 64.5 -13.5t47 -35t32.5 -47t21 -49.5l-292 -1057q-31 -115 -31 -170q0 -29 14.5 -45.5t34.5 -16.5q39 0 84 23.5t94 64.5t99.5 98.5t97.5 123.5l-35 32q-96 -127 -205 -192q-4 31 9.5 110.5 t39.5 176.5l303 1065h-20l-104 -25q-25 10 -71 20.5t-99 10.5q-174 0 -307.5 -118t-211.5 -359h-168l-14 -48l160 -32l-256 -951q-45 -166 -94 -245.5t-97 -79.5q-47 0 -65.5 29.5t-18.5 80.5v29h-147q-14 -10 -25.5 -33.5t-11.5 -58.5q0 -51 43 -86t141 -35q84 0 154 43 t128 119t103.5 179t79.5 224l226 797h227z" />
<glyph unicode="&#xfb03;" horiz-adv-x="1636" d="M907 1004h-393l14 45q47 166 122 238.5t145 72.5q35 0 62.5 -13.5t49 -33t36.5 -44t26 -48.5zM496 936h391l-228 -846q-45 -166 -107.5 -260t-162.5 -94q-55 0 -109.5 42t-82.5 122zM1376 936l47 -55l-206 -598q-12 -37 -24.5 -76t-22 -74t-15.5 -63.5t-6 -44.5 q0 -51 43 -52q39 0 85 23.5t95 64.5t99.5 98.5t97.5 123.5l-37 32q-49 -66 -94 -111.5t-101 -80.5q0 29 11.5 84t37.5 131l232 666h-555l27 92q31 102 61.5 163.5t62 94t64.5 43t68 10.5t62.5 -14.5t48 -36t30.5 -49t10 -52.5v-28h148q14 10 25 33.5t11 58.5q0 25 -13 53.5 t-45 53t-83 40t-125 15.5q-115 0 -188.5 -42t-136.5 -100q-31 33 -92.5 64t-149.5 31q-78 0 -152.5 -32t-139 -89.5t-116 -136t-82.5 -172.5h-168l-14 -48l160 -32l-256 -951q-45 -166 -94 -245.5t-97 -79.5q-47 0 -65.5 29.5t-18.5 80.5v29h-147q-14 -10 -25.5 -33.5 t-11.5 -58.5q0 -51 43 -86t141 -35q96 0 178.5 44t129.5 122q35 -33 92 -55.5t129 -22.5q180 0 308 149.5t206 430.5l196 694h332z" />
<glyph unicode="&#xfb04;" horiz-adv-x="1662" d="M907 1004h-393l14 45q47 166 118 238.5t149 72.5q41 0 69.5 -13.5t48 -33t32.5 -44t24 -48.5zM496 936h391l-228 -846q-45 -166 -107.5 -260t-162.5 -94q-59 0 -111.5 42t-80.5 122zM1090 1096q31 102 62.5 163.5t64 94t64.5 43t60 10.5q37 0 65 -13.5t47.5 -35t32.5 -47 t21 -49.5l-293 -1057q-31 -115 -30 -170q0 -29 14 -45.5t35 -16.5q39 0 84 23.5t94 64.5t99.5 98.5t97.5 123.5l-35 32q-96 -127 -205 -192q-4 31 9.5 110.5t39.5 176.5l303 1065h-20l-105 -25q-25 10 -70.5 20.5t-99.5 10.5q-195 0 -335 -146q-31 33 -84.5 66t-141.5 33 q-84 0 -161.5 -32t-143 -89.5t-118 -136t-83.5 -172.5h-168l-14 -48l160 -32l-256 -951q-45 -166 -94 -245.5t-97 -79.5q-47 0 -65.5 29.5t-18.5 80.5v29h-147q-14 -10 -25.5 -33.5t-11.5 -58.5q0 -51 43 -86t141 -35q96 0 178.5 44t129.5 122q35 -33 85 -55.5t136 -22.5 q180 0 308 149.5t206 430.5l196 694h228l20 68h-229z" />
<glyph unicode="Th" horiz-adv-x="2324" d="M1860 270q-35 -72 -64 -141.5t-29 -103.5q0 -51 43 -52q35 0 85.5 22.5t107.5 63.5t117.5 97.5t115.5 122.5l-30 32q-74 -78 -127.5 -119.5t-112.5 -66.5q0 29 15.5 76t46.5 106l210 408q27 53 42.5 99t15.5 93t-37 85t-109 38q-78 0 -160.5 -46t-163.5 -119.5t-154 -165 t-130 -179.5h-4l291 961h-41l-78 -27h-1135l-67 27h-41l-86 -437h37l213 328h319l-241 -1227l-103 -88h-186l-10 -57h720l11 57h-189l-63 88l241 1227h465l35 -41l-364 -1331h155q18 102 40 182t44.5 143.5t49 113.5t57.5 96q47 68 100 131t108.5 110t110 76t103.5 29 q31 0 50 -16.5t19 -51.5q0 -16 -6 -37.5t-14 -44t-17.5 -43t-15.5 -35.5z" />
<glyph unicode="f&#xfc;" horiz-adv-x="1656" d="M1708 1329q0 53 -36 89t-89 36t-89 -36t-36 -89t36 -89t89 -36t89 36t36 89zM190 1004l-14 -48l160 -32l-256 -951q-45 -166 -94 -245.5t-97 -79.5q-47 0 -65.5 29.5t-18.5 80.5v29h-147q-14 -10 -25.5 -33.5t-11.5 -58.5q0 -51 43 -86t141 -35q84 0 154 43t128 119 t103.5 179t79.5 224l226 797h389l47 -55l-230 -531q-10 -23 -22 -56.5t-23.5 -70.5t-19.5 -72.5t-8 -60.5q0 -41 27.5 -79t99.5 -38q78 0 154.5 49.5t147 123t135 160.5t118.5 165h4l-80 -201q-29 -74 -48.5 -142.5t-19.5 -102.5q0 -51 43 -52q35 0 82 22.5t101.5 63.5 t112 97.5t112.5 122.5l-31 32q-74 -78 -127 -119.5t-112 -66.5q0 29 11 86t32 113l243 690l-168 -10q-41 -160 -99 -303.5t-122 -231.5q-53 -72 -103 -135.5t-98.5 -110.5t-90.5 -73.5t-74 -26.5q-31 0 -50.5 16.5t-19.5 50.5q0 33 16.5 75t32.5 85l266 654h-610l27 92 q31 102 64.5 163.5t69.5 94t71.5 43t70.5 10.5t62.5 -14.5t48 -36t31 -49t10.5 -52.5v-28h147q14 10 25.5 33.5t11.5 58.5q0 25 -9 53.5t-37 53t-81 40t-139 15.5q-174 0 -312.5 -118t-216.5 -359h-168z" />
<glyph unicode="ff&#xfc;" horiz-adv-x="2224" d="M2277 1329q0 53 -35.5 89t-89.5 36q-53 0 -88.5 -36t-35.5 -89t35.5 -89t88.5 -36t89 36t36 89zM1456 1481q-70 0 -125 -13.5t-98 -34t-75 -45t-54 -45.5q-31 33 -86 62t-144 29q-84 0 -162.5 -32t-147 -89.5t-122 -136t-84.5 -172.5h-168l-14 -48l160 -32l-256 -951 q-45 -166 -94 -245.5t-97 -79.5q-47 0 -65.5 29.5t-18.5 80.5v29h-147q-14 -10 -25.5 -33.5t-11.5 -58.5q0 -51 43 -86t141 -35q96 0 178.5 44t129.5 122q35 -33 90 -55.5t141 -22.5q180 0 313.5 149.5t210.5 430.5l197 694h387l47 -55l-229 -531q-10 -23 -22.5 -56.5 t-24 -70.5t-19.5 -72.5t-8 -60.5q0 -41 27.5 -79t99.5 -38q78 0 154.5 49.5t147.5 123t135.5 160.5t117.5 165h4l-80 -201q-29 -74 -48 -142.5t-19 -102.5q0 -51 43 -52q35 0 82 22.5t101 63.5t111.5 97.5t112.5 122.5l-31 32q-74 -78 -127 -119.5t-112 -66.5q0 29 11 86 t32 113l244 690l-168 -10q-41 -160 -99.5 -303.5t-122.5 -231.5q-53 -72 -103 -135.5t-98 -110.5t-90 -73.5t-75 -26.5q-31 0 -50.5 16.5t-19.5 50.5q0 33 16.5 75t32.5 85l267 654h-609l27 92q31 102 64.5 163.5t69.5 94t72 43t70 10.5q35 0 63 -14.5t48.5 -36t30.5 -49 t10 -52.5v-28h148q14 10 25 33.5t11 58.5q0 25 -9 53.5t-36.5 53t-81 40t-139.5 15.5zM928 1004h-414l14 45q47 166 123 238.5t154 72.5q41 0 70.5 -13.5t52 -33t37 -44t24.5 -48.5zM496 936h411l-227 -846q-45 -166 -112.5 -260t-168.5 -94q-59 0 -116.5 42t-85.5 122z" />
<glyph unicode="f&#xeb;" horiz-adv-x="1429" d="M1708 1329q0 53 -36 89t-89 36t-89 -36t-36 -89t36 -89t89 -36t89 36t36 89zM1210 924q51 0 69.5 -25t18.5 -47q0 -47 -35.5 -102.5t-93 -102.5t-131 -79.5t-147.5 -32.5h-25q27 76 64 146.5t82 123.5t95 86t103 33zM817 266q0 51 8.5 106.5t24.5 112.5q106 2 217 41 t200 100.5t145 136.5t56 146q0 61 -39.5 91t-99.5 30q-88 0 -174 -43t-165 -114.5t-146.5 -164t-116.5 -191.5t-77.5 -196.5t-28.5 -177.5q0 -72 38.5 -121t116.5 -49q74 0 149.5 27t147.5 73t136.5 107.5t117.5 132.5l-31 23q-98 -111 -200.5 -169t-173.5 -58 q-59 0 -82 45.5t-23 111.5zM190 1004l-14 -48l160 -32l-256 -951q-45 -166 -94 -245.5t-97 -79.5q-47 0 -65.5 29.5t-18.5 80.5v29h-147q-14 -10 -25.5 -33.5t-11.5 -58.5q0 -51 43 -86t141 -35q84 0 154 43t128 119t103.5 179t79.5 224l226 797h225l20 68h-227l27 92 q31 102 64.5 163.5t69.5 94t71.5 43t70.5 10.5t62.5 -14.5t48 -36t31 -49t10.5 -52.5v-28h147q14 10 25.5 33.5t11.5 58.5q0 25 -9 53.5t-37 53t-81 40t-139 15.5q-174 0 -312.5 -118t-216.5 -359h-168z" />
<glyph unicode="f&#xe4;" horiz-adv-x="1572" d="M795 248q0 57 17 127.5t48 143.5t71 141.5t85 122t93 86t93 32.5q35 0 60.5 -11t44.5 -24q23 -14 36 -32q-33 -115 -94 -240t-129.5 -229.5t-134 -173t-106.5 -68.5q-43 0 -63.5 34t-20.5 91zM1169 268q-31 -72 -53 -140.5t-22 -102.5q0 -51 43 -52q39 0 84 23.5t94 64.5 t99 98.5t97 123.5l-34 32q-49 -66 -94.5 -111.5t-100.5 -80.5q0 29 11.5 84t37.5 131l217 686h-20l-78 -53q-20 20 -46 39.5t-81 19.5q-66 0 -142.5 -42t-154.5 -111.5t-151.5 -159.5t-130 -189.5t-90 -200t-33.5 -188.5q0 -86 32.5 -126t94.5 -40q70 0 136 44t130.5 116 t124 162t114.5 180h4zM1708 1329q0 53 -36 89t-89 36t-89 -36t-36 -89t36 -89t89 -36t89 36t36 89zM190 1004l-14 -48l160 -32l-256 -951q-45 -166 -94 -245.5t-97 -79.5q-47 0 -65.5 29.5t-18.5 80.5v29h-147q-14 -10 -25.5 -33.5t-11.5 -58.5q0 -51 43 -86t141 -35 q84 0 154 43t128 119t103.5 179t79.5 224l226 797h225l20 68h-227l27 92q31 102 64.5 163.5t69.5 94t71.5 43t70.5 10.5t62.5 -14.5t48 -36t31 -49t10.5 -52.5v-28h147q14 10 25.5 33.5t11.5 58.5q0 25 -9 53.5t-37 53t-81 40t-139 15.5q-174 0 -312.5 -118t-216.5 -359 h-168z" />
<glyph unicode="ffj" horiz-adv-x="1648" d="M928 1004h-414l14 45q47 166 123 238.5t154 72.5q41 0 70.5 -13.5t52 -33t37 -44t24.5 -48.5zM496 936h411l-227 -846q-45 -166 -112.5 -260t-168.5 -94q-59 0 -116.5 42t-85.5 122zM1083 1004l29 92q31 102 65.5 163.5t69.5 94t71 43t71 10.5t62.5 -14.5t48 -36 t30.5 -49t10 -52.5v-28h148q14 10 25 33.5t11 58.5q0 25 -9 53.5t-36.5 53t-81 40t-139.5 15.5q-98 0 -185 -37t-159 -111q-35 37 -93 69t-147 32q-84 0 -162.5 -32t-147 -89.5t-122 -136t-84.5 -172.5h-168l-14 -48l160 -32l-256 -951q-45 -166 -94 -245.5t-97 -79.5 q-47 0 -65.5 29.5t-18.5 80.5v29h-147q-14 -10 -25.5 -33.5t-11.5 -58.5q0 -51 43 -86t141 -35q96 0 178.5 44t129.5 122q35 -33 90 -55.5t141 -22.5q180 0 313.5 149.5t210.5 430.5l197 694h362l43 -62l-229 -813q-45 -166 -94 -245.5t-96 -79.5t-65.5 29.5t-18.5 80.5v29 h-148q-14 -10 -25.5 -33.5t-11.5 -58.5q0 -51 43 -86t142 -35q84 0 153.5 43t128 119t103.5 179t80 224l231 777h-580z" />
<glyph unicode="fj" horiz-adv-x="1077" d="M856 936l43 -62l-229 -813q-45 -166 -94.5 -245.5t-96.5 -79.5t-65.5 29.5t-18.5 80.5v29h-147q-14 -10 -25.5 -33.5t-11.5 -58.5q0 -51 43 -86t141 -35q84 0 153.5 43t128 119t103.5 179t80 224l232 777h-578l27 92q31 102 64.5 163.5t69.5 94t71.5 43t70.5 10.5 t62.5 -14.5t48 -36t31 -49t10.5 -52.5v-28h147q14 10 25.5 33.5t11.5 58.5q0 25 -9 53.5t-37 53t-81 40t-139 15.5q-174 0 -312.5 -118t-216.5 -359h-168l-14 -48l160 -32l-256 -951q-45 -166 -94 -245.5t-97 -79.5q-47 0 -65.5 29.5t-18.5 80.5v29h-147 q-14 -10 -25.5 -33.5t-11.5 -58.5q0 -51 43 -86t141 -35q84 0 154 43t128 119t103.5 179t79.5 224l226 797h360z" />
<glyph unicode="f&#xef;" horiz-adv-x="1087" d="M1352 1329q0 53 -36 89t-89 36t-89 -36t-36 -89t36 -89t89 -36t89 36t36 89zM496 936h331l47 -55l-206 -598q-12 -37 -24.5 -76t-22 -74t-15.5 -63.5t-6 -44.5q0 -51 43 -52q39 0 85 23.5t95 64.5t99.5 98.5t97.5 123.5l-37 32q-49 -66 -94 -111.5t-101 -80.5 q0 29 11.5 84t38.5 131l231 666h-555l27 92q47 166 97 238.5t97 72.5q35 0 47.5 -32t12.5 -99v-49h137q14 12 32.5 45t18.5 88q0 51 -40 86t-138 35q-78 0 -145.5 -36t-124 -98.5t-100.5 -150.5t-77 -192h-168l-14 -48l160 -32l-256 -951q-45 -166 -94 -245.5t-97 -79.5 q-47 0 -65.5 29.5t-18.5 80.5v29h-147q-14 -10 -25.5 -33.5t-11.5 -58.5q0 -51 43 -86t141 -35q84 0 154 43t128 119t103.5 179t79.5 224z" />
<glyph unicode="ff&#xef;" horiz-adv-x="1636" d="M907 1004h-393l14 45q47 166 122 238.5t145 72.5q35 0 62.5 -13.5t49 -33t36.5 -44t26 -48.5zM496 936h391l-228 -846q-45 -166 -107.5 -260t-162.5 -94q-55 0 -109.5 42t-82.5 122zM1090 1339q-31 33 -92.5 64t-149.5 31q-78 0 -152.5 -32t-139 -89.5t-116 -136 t-82.5 -172.5h-168l-14 -48l160 -32l-256 -951q-45 -166 -94 -245.5t-97 -79.5q-47 0 -65.5 29.5t-18.5 80.5v29h-147q-14 -10 -25.5 -33.5t-11.5 -58.5q0 -51 43 -86t141 -35q96 0 178.5 44t129.5 122q35 -33 92 -55.5t129 -22.5q180 0 308 149.5t206 430.5l196 694h332 l47 -55l-206 -598q-12 -37 -24.5 -76t-22 -74t-15.5 -63.5t-6 -44.5q0 -51 43 -52q39 0 85 23.5t95 64.5t99.5 98.5t97.5 123.5l-37 32q-49 -66 -94 -111.5t-101 -80.5q0 29 11.5 84t37.5 131l232 666h-555l29 92q51 164 99 237.5t95 73.5q35 0 47.5 -32t12.5 -99v-49h137 q14 12 32.5 45t18.5 88q0 51 -40 86t-138 35q-153 -1 -266 -142zM1923 1329q0 53 -36 89t-89 36t-89 -36t-36 -89t36 -89t89 -36t89 36t36 89z" />
<glyph unicode="fb" horiz-adv-x="1523" d="M1368 756q0 -86 -32.5 -200t-88 -214t-130.5 -170t-156 -70q-35 0 -61 10.5t-44 22.5q-23 14 -37 35q33 115 94.5 240t130 229t134 173t106.5 69q43 0 63.5 -34t20.5 -91zM639 86q35 -41 88 -77t113 -36q76 0 156.5 42t158.5 112t148.5 160t124 189t84 199.5t30.5 188.5 q0 86 -32.5 126t-94.5 40q-70 0 -136.5 -44t-131 -115.5t-123.5 -162t-115 -180.5h-4l269 947h-21l-86 -25q-27 14 -70 22.5t-110 8.5q-174 0 -312.5 -118t-216.5 -359h-168l-14 -48l160 -32l-256 -951q-45 -166 -94 -245.5t-97 -79.5q-47 0 -65.5 29.5t-18.5 80.5v29h-147 q-14 -10 -25.5 -33.5t-11.5 -58.5q0 -51 43 -86t141 -35q84 0 154 43t128 119t103.5 179t79.5 224l226 797h227l20 68h-229l27 92q31 102 63.5 163.5t67.5 94t69.5 43t69.5 10.5t59.5 -13.5t43 -35t29.5 -47t20 -49.5z" />
<glyph unicode="ff&#xeb;" horiz-adv-x="1998" d="M2277 1329q0 53 -35.5 89t-89.5 36q-53 0 -88.5 -36t-35.5 -89t35.5 -89t88.5 -36t89 36t36 89zM1780 924q51 0 69.5 -25t18.5 -47q0 -47 -36 -102.5t-93.5 -102.5t-131 -79.5t-147.5 -32.5h-24q27 76 63.5 146.5t81.5 123.5t95.5 86t103.5 33zM928 1004h-414l14 45 q47 166 123 238.5t154 72.5q41 0 70.5 -13.5t52 -33t37 -44t24.5 -48.5zM1386 266q0 51 8.5 106.5t24.5 112.5q106 2 217 41t200 100.5t145.5 136.5t56.5 146q0 61 -40 91t-100 30q-88 0 -174 -43t-164.5 -114.5t-146 -164t-117 -191.5t-78 -196.5t-28.5 -177.5 q0 -72 39 -121t117 -49q74 0 149.5 27t147 73t136 107.5t117.5 132.5l-30 23q-98 -111 -200.5 -169t-174.5 -58q-59 0 -82 45.5t-23 111.5zM496 936h411l-227 -846q-45 -166 -112.5 -260t-168.5 -94q-59 0 -116.5 42t-85.5 122zM1110 1096q31 102 64.5 163.5t69.5 94t72 43 t70 10.5q35 0 63 -14.5t48.5 -36t30.5 -49t10 -52.5v-28h148q14 10 25 33.5t11 58.5q0 25 -9 53.5t-36.5 53t-81 40t-139.5 15.5q-92 0 -187 -36t-165 -102q-31 33 -86 62t-144 29q-84 0 -162.5 -32t-147 -89.5t-122 -136t-84.5 -172.5h-168l-14 -48l160 -32l-256 -951 q-45 -166 -94 -245.5t-97 -79.5q-47 0 -65.5 29.5t-18.5 80.5v29h-147q-14 -10 -25.5 -33.5t-11.5 -58.5q0 -51 43 -86t141 -35q96 0 178.5 44t129.5 122q35 -33 90 -55.5t141 -22.5q180 0 313.5 149.5t210.5 430.5l197 694h227l21 68h-230z" />
<glyph unicode="ff&#xe4;" horiz-adv-x="2142" d="M1364 248q0 57 17.5 127.5t48 143.5t70.5 141.5t85 122t93 86t94 32.5q35 0 60.5 -11t43.5 -24q23 -14 37 -32q-33 -115 -94.5 -240t-130 -229.5t-134 -173t-106.5 -68.5q-43 0 -63.5 34t-20.5 91zM1739 268q-31 -72 -53.5 -140.5t-22.5 -102.5q0 -51 43 -52 q39 0 84 23.5t94 64.5t99.5 98.5t97.5 123.5l-35 32q-49 -66 -94 -111.5t-101 -80.5q0 29 11.5 84t38.5 131l217 686h-21l-78 -53q-20 20 -45.5 39.5t-81.5 19.5q-66 0 -142.5 -42t-154 -111.5t-151.5 -159.5t-130.5 -189.5t-90 -200t-33.5 -188.5q0 -86 32.5 -126t94.5 -40 q70 0 136.5 44t131 116t123.5 162t115 180h4zM928 1004h-414l14 45q47 166 123 238.5t154 72.5q41 0 70.5 -13.5t52 -33t37 -44t24.5 -48.5zM496 936h411l-227 -846q-45 -166 -112.5 -260t-168.5 -94q-59 0 -116.5 42t-85.5 122zM1110 1096q31 102 64.5 163.5t69.5 94t72 43 t70 10.5q35 0 63 -14.5t48.5 -36t30.5 -49t10 -52.5v-28h148q14 10 25 33.5t11 58.5q0 25 -9 53.5t-36.5 53t-81 40t-139.5 15.5q-92 0 -187 -36t-165 -102q-31 33 -86 62t-144 29q-84 0 -162.5 -32t-147 -89.5t-122 -136t-84.5 -172.5h-168l-14 -48l160 -32l-256 -951 q-45 -166 -94 -245.5t-97 -79.5q-47 0 -65.5 29.5t-18.5 80.5v29h-147q-14 -10 -25.5 -33.5t-11.5 -58.5q0 -51 43 -86t141 -35q96 0 178.5 44t129.5 122q35 -33 90 -55.5t141 -22.5q180 0 313.5 149.5t210.5 430.5l197 694h227l21 68h-230zM2277 1329q0 53 -35.5 89 t-89.5 36q-53 0 -88.5 -36t-35.5 -89t35.5 -89t88.5 -36t89 36t36 89z" />
<glyph unicode="f&#xf6;" horiz-adv-x="1472" d="M621 143q0 -78 39.5 -124t115.5 -46q92 0 180 44t167 117t146.5 167t116 192.5t76 193.5t27.5 173t-40 124t-116 46q-92 0 -180 -44t-167 -116.5t-146.5 -167t-115.5 -192.5t-75.5 -193.5t-27.5 -173.5zM922 109q-57 0 -81 39.5t-24 117.5q0 59 14.5 131t40 144.5 t62.5 142.5t80 123t93 85t103 32q57 0 81 -40t24 -118q0 -59 -14.5 -131t-40 -144.5t-62.5 -142t-80 -123t-93 -85t-103 -31.5zM1708 1329q0 53 -36 89t-89 36t-89 -36t-36 -89t36 -89t89 -36t89 36t36 89zM190 1004l-14 -48l160 -32l-256 -951q-45 -166 -94 -245.5 t-97 -79.5q-47 0 -65.5 29.5t-18.5 80.5v29h-147q-14 -10 -25.5 -33.5t-11.5 -58.5q0 -51 43 -86t141 -35q84 0 154 43t128 119t103.5 179t79.5 224l226 797h225l20 68h-227l27 92q31 102 64.5 163.5t69.5 94t71.5 43t70.5 10.5t62.5 -14.5t48 -36t31 -49t10.5 -52.5v-28 h147q14 10 25.5 33.5t11.5 58.5q0 25 -9 53.5t-37 53t-81 40t-139 15.5q-174 0 -312.5 -118t-216.5 -359h-168z" />
<glyph unicode="ff&#xf6;" horiz-adv-x="2041" d="M1190 143q0 -78 40 -124t116 -46q92 0 180 44t167 117t146.5 167t115.5 192.5t75.5 193.5t27.5 173t-40 124t-115 46q-92 0 -180.5 -44t-167 -116.5t-146.5 -167t-116 -192.5t-75.5 -193.5t-27.5 -173.5zM1491 109q-57 0 -81 39.5t-24 117.5q0 59 14.5 131t40 144.5 t62.5 142.5t80 123t93 85t104 32q57 0 80.5 -40t23.5 -118q0 -59 -14.5 -131t-40 -144.5t-62 -142t-79.5 -123t-93.5 -85t-103.5 -31.5zM928 1004h-414l14 45q47 166 123 238.5t154 72.5q41 0 70.5 -13.5t52 -33t37 -44t24.5 -48.5zM496 936h411l-227 -846 q-45 -166 -112.5 -260t-168.5 -94q-59 0 -116.5 42t-85.5 122zM1110 1096q31 102 64.5 163.5t69.5 94t72 43t70 10.5q35 0 63 -14.5t48.5 -36t30.5 -49t10 -52.5v-28h148q14 10 25 33.5t11 58.5q0 25 -9 53.5t-36.5 53t-81 40t-139.5 15.5q-92 0 -187 -36t-165 -102 q-31 33 -86 62t-144 29q-84 0 -162.5 -32t-147 -89.5t-122 -136t-84.5 -172.5h-168l-14 -48l160 -32l-256 -951q-45 -166 -94 -245.5t-97 -79.5q-47 0 -65.5 29.5t-18.5 80.5v29h-147q-14 -10 -25.5 -33.5t-11.5 -58.5q0 -51 43 -86t141 -35q96 0 178.5 44t129.5 122 q35 -33 90 -55.5t141 -22.5q180 0 313.5 149.5t210.5 430.5l197 694h227l21 68h-230zM2277 1329q0 53 -35.5 89t-89.5 36q-53 0 -88.5 -36t-35.5 -89t35.5 -89t88.5 -36t89 36t36 89z" />
<glyph unicode="f&#xff;" horiz-adv-x="1476" d="M496 936h317l51 -55l-229 -836q-18 -68 -48 -125t-67 -98t-78 -63.5t-84 -22.5q-59 0 -90.5 49t-60.5 129zM1575 1329q0 53 -36 89t-89 36t-89 -36t-36 -89t36 -89t89 -36t89 36t36 89zM190 1004l-14 -48l160 -32l-256 -951q-45 -166 -94 -245.5t-97 -79.5 q-47 0 -65.5 29.5t-18.5 80.5v29h-147q-14 -10 -25.5 -33.5t-11.5 -58.5q0 -51 43 -86t141 -35q96 0 178.5 44t129.5 122q16 -16 32.5 -30.5t37 -25t49 -16.5t71.5 -6q80 0 150.5 25.5t135 69.5t126 101.5t125.5 121.5q160 158 290 295t222 252.5t143 208.5t51 163 t-42 100.5t-85 30.5t-72.5 -8t-52.5 -18l-22 -156h53q33 0 52.5 -16.5t19.5 -51.5q0 -43 -50.5 -121.5t-138.5 -184t-204.5 -231.5t-247.5 -261h-4q23 53 49 125.5t63 189.5t85 287t112 420h-547l27 92q31 102 61.5 163.5t62 94t64.5 43t68 10.5t62.5 -14.5t48 -36t30.5 -49 t10 -52.5v-28h148q14 10 25.5 33.5t11.5 58.5q0 25 -9.5 53.5t-37 53t-81 40t-139.5 15.5q-174 0 -302 -118t-206 -359h-168z" />
<glyph unicode="ff&#xff;" horiz-adv-x="2023" d="M907 1004h-393l14 45q47 166 113 238.5t143 72.5q41 0 71 -13.5t52.5 -33t36.5 -44t25 -48.5zM496 936h391l-228 -846q-45 -166 -112.5 -260t-167.5 -94q-59 0 -106.5 42t-75.5 122zM1360 936l51 -55l-229 -836q-18 -68 -48 -125t-67 -98t-78 -63.5t-84 -22.5 q-59 0 -108 35.5t-84 103.5q14 31 32.5 73t37 91t35 101.5t30.5 101.5l196 694h316zM1087 1096q27 104 58 165.5t63.5 93t66.5 42t68 10.5q35 0 63 -14.5t48.5 -36t30.5 -49t10 -52.5v-28h147q14 10 25.5 33.5t11.5 58.5q0 25 -9 53.5t-36.5 53t-81 40t-139.5 15.5 q-98 0 -173 -37t-146 -109q-31 33 -91.5 66t-148.5 33q-84 0 -160 -32t-140.5 -89.5t-114.5 -136t-81 -172.5h-168l-14 -48l160 -32l-256 -951q-45 -166 -94 -245.5t-97 -79.5q-47 0 -65.5 29.5t-18.5 80.5v29h-147q-14 -10 -25.5 -33.5t-11.5 -58.5q0 -51 43 -86t141 -35 q96 0 178.5 44t129.5 122q35 -33 80 -55.5t131 -22.5q133 0 237 80q47 -33 125 -56.5t164 -23.5q80 0 150.5 25.5t135 69.5t126 101.5t124.5 121.5q160 158 290 295t222.5 252.5t143.5 208.5t51 163t-42 100.5t-85 30.5t-72.5 -8t-52.5 -18l-22 -156h53q33 0 52.5 -16.5 t19.5 -51.5q0 -43 -50.5 -121.5t-138.5 -184t-204.5 -231.5t-247.5 -261h-5q23 53 49.5 125.5t63.5 189.5t85 287t112 420h-545zM2122 1329q0 53 -36 89t-89 36t-89 -36t-36 -89t36 -89t89 -36t89 36t36 89z" />
<glyph unicode="f&#xfa;" horiz-adv-x="1615" d="M1503 1454q-102 -86 -214.5 -151.5t-244.5 -118.5l23 -31q133 41 261 91t280 128zM514 1004l27 92q47 166 97 238.5t97 72.5q35 0 52.5 -29.5t17.5 -81.5v-28h147q14 10 25.5 33.5t11.5 58.5q0 51 -43 86t-141 35q-78 0 -145.5 -36t-124 -98.5t-100.5 -150.5t-77 -192 h-168l-14 -48l160 -32l-256 -951q-45 -166 -94 -245.5t-97 -79.5q-47 0 -65.5 29.5t-18.5 80.5v29h-147q-14 -10 -25.5 -33.5t-11.5 -58.5q0 -51 43 -86t141 -35q84 0 154 43t128 119t103.5 179t79.5 224l226 797h348l47 -55l-229 -531q-10 -23 -22.5 -56.5t-24 -70.5 t-19.5 -72.5t-8 -60.5q0 -41 27.5 -79t99.5 -38q78 0 154.5 49.5t147 123t135.5 160.5t118 165h4l-80 -201q-29 -74 -48.5 -142.5t-19.5 -102.5q0 -51 43 -52q35 0 82 22.5t101.5 63.5t112 97.5t112.5 122.5l-31 32q-74 -78 -127 -119.5t-112 -66.5q0 29 11 86t32 113 l243 690l-168 -10q-41 -160 -99 -303.5t-122 -231.5q-53 -72 -103 -135.5t-98.5 -110.5t-90.5 -73.5t-74 -26.5q-31 0 -50.5 16.5t-19.5 50.5q0 33 16.5 75t32.5 85l266 654h-569z" />
<glyph unicode="ff&#xfa;" horiz-adv-x="2162" d="M2118 1454q-102 -86 -215 -151.5t-244 -118.5l22 -31q133 41 261.5 91t279.5 128zM907 1004h-393l14 45q47 166 118 238.5t149 72.5q41 0 69.5 -13.5t48 -33t32.5 -44t24 -48.5zM496 936h391l-228 -846q-45 -166 -107.5 -260t-162.5 -94q-59 0 -111.5 42t-80.5 122z M1044 936h347l47 -55l-230 -531q-10 -23 -22 -56.5t-23.5 -70.5t-19.5 -72.5t-8 -60.5q0 -41 27.5 -79t99.5 -38q78 0 154.5 49.5t147 123t135 160.5t118.5 165h4l-80 -201q-29 -74 -48.5 -142.5t-19.5 -102.5q0 -51 43 -52q35 0 82 22.5t101.5 63.5t111.5 97.5t113 122.5 l-31 32q-74 -78 -127 -119.5t-113 -66.5q0 29 11.5 86t31.5 113l244 690l-168 -10q-41 -160 -99 -303.5t-122 -231.5q-53 -72 -103.5 -135.5t-98.5 -110.5t-90 -73.5t-75 -26.5q-31 0 -50 16.5t-19 50.5q0 33 16.5 75t32.5 85l266 654h-567l27 92q47 166 97 238.5t97 72.5 q35 0 52.5 -29.5t17.5 -81.5v-28h147q14 10 25.5 33.5t11.5 58.5q0 51 -43 86t-141 35q-78 0 -145.5 -36t-125.5 -102q-31 33 -81 62t-138 29q-84 0 -161.5 -32t-143 -89.5t-118 -136t-83.5 -172.5h-168l-14 -48l160 -32l-256 -951q-45 -166 -94 -245.5t-97 -79.5 q-47 0 -65.5 29.5t-18.5 80.5v29h-147q-14 -10 -25.5 -33.5t-11.5 -58.5q0 -51 43 -86t141 -35q96 0 178.5 44t129.5 122q35 -33 85 -55.5t136 -22.5q180 0 308 149.5t206 430.5z" />
<glyph unicode="f&#xf9;" horiz-adv-x="1615" d="M1151 1372q102 -74 198.5 -126t198.5 -93l23 31q-166 104 -316 270zM514 1004l27 92q47 166 97 238.5t97 72.5q35 0 52.5 -29.5t17.5 -81.5v-28h147q14 10 25.5 33.5t11.5 58.5q0 51 -43 86t-141 35q-78 0 -145.5 -36t-124 -98.5t-100.5 -150.5t-77 -192h-168l-14 -48 l160 -32l-256 -951q-45 -166 -94 -245.5t-97 -79.5q-47 0 -65.5 29.5t-18.5 80.5v29h-147q-14 -10 -25.5 -33.5t-11.5 -58.5q0 -51 43 -86t141 -35q84 0 154 43t128 119t103.5 179t79.5 224l226 797h348l47 -55l-229 -531q-10 -23 -22.5 -56.5t-24 -70.5t-19.5 -72.5 t-8 -60.5q0 -41 27.5 -79t99.5 -38q78 0 154.5 49.5t147 123t135.5 160.5t118 165h4l-80 -201q-29 -74 -48.5 -142.5t-19.5 -102.5q0 -51 43 -52q35 0 82 22.5t101.5 63.5t112 97.5t112.5 122.5l-31 32q-74 -78 -127 -119.5t-112 -66.5q0 29 11 86t32 113l243 690l-168 -10 q-41 -160 -99 -303.5t-122 -231.5q-53 -72 -103 -135.5t-98.5 -110.5t-90.5 -73.5t-74 -26.5q-31 0 -50.5 16.5t-19.5 50.5q0 33 16.5 75t32.5 85l266 654h-569z" />
<glyph unicode="ff&#xf9;" horiz-adv-x="2162" d="M1724 1372q102 -74 198.5 -126t199.5 -93l22 31q-166 104 -315 270zM907 1004h-393l14 45q47 166 118 238.5t149 72.5q41 0 69.5 -13.5t48 -33t32.5 -44t24 -48.5zM496 936h391l-228 -846q-45 -166 -107.5 -260t-162.5 -94q-59 0 -111.5 42t-80.5 122zM1044 936h347 l47 -55l-230 -531q-10 -23 -22 -56.5t-23.5 -70.5t-19.5 -72.5t-8 -60.5q0 -41 27.5 -79t99.5 -38q78 0 154.5 49.5t147 123t135 160.5t118.5 165h4l-80 -201q-29 -74 -48.5 -142.5t-19.5 -102.5q0 -51 43 -52q35 0 82 22.5t101.5 63.5t111.5 97.5t113 122.5l-31 32 q-74 -78 -127 -119.5t-113 -66.5q0 29 11.5 86t31.5 113l244 690l-168 -10q-41 -160 -99 -303.5t-122 -231.5q-53 -72 -103.5 -135.5t-98.5 -110.5t-90 -73.5t-75 -26.5q-31 0 -50 16.5t-19 50.5q0 33 16.5 75t32.5 85l266 654h-567l27 92q47 166 97 238.5t97 72.5 q35 0 52.5 -29.5t17.5 -81.5v-28h147q14 10 25.5 33.5t11.5 58.5q0 51 -43 86t-141 35q-78 0 -145.5 -36t-125.5 -102q-31 33 -81 62t-138 29q-84 0 -161.5 -32t-143 -89.5t-118 -136t-83.5 -172.5h-168l-14 -48l160 -32l-256 -951q-45 -166 -94 -245.5t-97 -79.5 q-47 0 -65.5 29.5t-18.5 80.5v29h-147q-14 -10 -25.5 -33.5t-11.5 -58.5q0 -51 43 -86t141 -35q96 0 178.5 44t129.5 122q35 -33 85 -55.5t136 -22.5q180 0 308 149.5t206 430.5z" />
<glyph unicode="f&#xfb;" horiz-adv-x="1615" d="M1460 1452v2q-84 -84 -189.5 -148.5t-228.5 -121.5l23 -31q123 37 209 72t149 67q35 -35 81 -68.5t108 -70.5l22 31q-53 53 -97 127.5t-75 142.5zM514 1004l27 92q47 166 97 238.5t97 72.5q35 0 52.5 -29.5t17.5 -81.5v-28h147q14 10 25.5 33.5t11.5 58.5q0 51 -43 86 t-141 35q-78 0 -145.5 -36t-124 -98.5t-100.5 -150.5t-77 -192h-168l-14 -48l160 -32l-256 -951q-45 -166 -94 -245.5t-97 -79.5q-47 0 -65.5 29.5t-18.5 80.5v29h-147q-14 -10 -25.5 -33.5t-11.5 -58.5q0 -51 43 -86t141 -35q84 0 154 43t128 119t103.5 179t79.5 224 l226 797h348l47 -55l-229 -531q-10 -23 -22.5 -56.5t-24 -70.5t-19.5 -72.5t-8 -60.5q0 -41 27.5 -79t99.5 -38q78 0 154.5 49.5t147 123t135.5 160.5t118 165h4l-80 -201q-29 -74 -48.5 -142.5t-19.5 -102.5q0 -51 43 -52q35 0 82 22.5t101.5 63.5t112 97.5t112.5 122.5 l-31 32q-74 -78 -127 -119.5t-112 -66.5q0 29 11 86t32 113l243 690l-168 -10q-41 -160 -99 -303.5t-122 -231.5q-53 -72 -103 -135.5t-98.5 -110.5t-90.5 -73.5t-74 -26.5q-31 0 -50.5 16.5t-19.5 50.5q0 33 16.5 75t32.5 85l266 654h-569z" />
<glyph unicode="ff&#xfb;" horiz-adv-x="2162" d="M2034 1452v2q-84 -84 -189.5 -148.5t-228.5 -121.5l22 -31q123 37 209 72t150 67q35 -35 81 -68.5t107 -70.5l23 31q-53 53 -97.5 127.5t-74.5 142.5zM907 1004h-393l14 45q47 166 118 238.5t149 72.5q41 0 69.5 -13.5t48 -33t32.5 -44t24 -48.5zM496 936h391l-228 -846 q-45 -166 -107.5 -260t-162.5 -94q-59 0 -111.5 42t-80.5 122zM1044 936h347l47 -55l-230 -531q-10 -23 -22 -56.5t-23.5 -70.5t-19.5 -72.5t-8 -60.5q0 -41 27.5 -79t99.5 -38q78 0 154.5 49.5t147 123t135 160.5t118.5 165h4l-80 -201q-29 -74 -48.5 -142.5t-19.5 -102.5 q0 -51 43 -52q35 0 82 22.5t101.5 63.5t111.5 97.5t113 122.5l-31 32q-74 -78 -127 -119.5t-113 -66.5q0 29 11.5 86t31.5 113l244 690l-168 -10q-41 -160 -99 -303.5t-122 -231.5q-53 -72 -103.5 -135.5t-98.5 -110.5t-90 -73.5t-75 -26.5q-31 0 -50 16.5t-19 50.5 q0 33 16.5 75t32.5 85l266 654h-567l27 92q47 166 97 238.5t97 72.5q35 0 52.5 -29.5t17.5 -81.5v-28h147q14 10 25.5 33.5t11.5 58.5q0 51 -43 86t-141 35q-78 0 -145.5 -36t-125.5 -102q-31 33 -81 62t-138 29q-84 0 -161.5 -32t-143 -89.5t-118 -136t-83.5 -172.5h-168 l-14 -48l160 -32l-256 -951q-45 -166 -94 -245.5t-97 -79.5q-47 0 -65.5 29.5t-18.5 80.5v29h-147q-14 -10 -25.5 -33.5t-11.5 -58.5q0 -51 43 -86t141 -35q96 0 178.5 44t129.5 122q35 -33 85 -55.5t136 -22.5q180 0 308 149.5t206 430.5z" />
<glyph unicode="ffb" horiz-adv-x="2072" d="M1917 756q0 -86 -33 -200t-88 -214t-130 -170t-157 -70q-35 0 -60.5 10.5t-43.5 22.5q-23 14 -37 35q33 115 94.5 240t130 229t134 173t106.5 69q43 0 63.5 -34t20.5 -91zM1188 86q35 -41 88 -77t113 -36q76 0 156.5 42t158.5 112t148.5 160t124 189t84 199.5t30.5 188.5 q0 86 -33 126t-94 40q-70 0 -136.5 -44t-131 -115.5t-124 -162t-114.5 -180.5h-4l268 947h-20l-105 -25q-27 14 -60.5 22.5t-100.5 8.5q-63 0 -112.5 -11.5t-91.5 -31t-76 -45t-66 -54.5q-31 33 -89.5 64t-146.5 31q-84 0 -160 -32t-140.5 -89.5t-114.5 -136t-81 -172.5 h-168l-14 -48l160 -32l-256 -951q-45 -166 -94 -245.5t-97 -79.5q-47 0 -65.5 29.5t-18.5 80.5v29h-147q-14 -10 -25.5 -33.5t-11.5 -58.5q0 -51 43 -86t141 -35q96 0 178.5 44t129.5 122q35 -33 90 -55.5t141 -22.5q180 0 302 149.5t202 430.5l196 694h228l20 68h-229 l27 92q31 102 64.5 163.5t69.5 94t71.5 43t70.5 10.5t58.5 -13.5t41 -35t27.5 -47t18 -49.5zM907 1004h-393l14 45q47 166 113 238.5t143 72.5q41 0 71 -13.5t52.5 -33t36.5 -44t25 -48.5zM496 936h391l-228 -846q-45 -166 -102 -260t-158 -94q-59 0 -116.5 42t-85.5 122z " />
<glyph unicode="fh" horiz-adv-x="1669" d="M1055 1450q-31 10 -77 20.5t-91 10.5q-174 0 -312.5 -118t-216.5 -359h-168l-14 -48l160 -32l-256 -951q-45 -166 -94 -245.5t-97 -79.5q-47 0 -65.5 29.5t-18.5 80.5v29h-147q-14 -10 -25.5 -33.5t-11.5 -58.5q0 -51 43 -86t141 -35q84 0 154 43t128 119t103.5 179 t79.5 224l226 797h227l20 68h-229l27 92q31 102 64.5 163.5t67.5 94t67.5 43t62.5 10.5q33 0 59.5 -12.5t45 -33t30.5 -44t20 -47.5l-348 -1270h156q18 102 39.5 182t44 143.5t49.5 113.5t57 96q47 68 100.5 131t109 110t109.5 76t103 29q31 0 50.5 -16.5t19.5 -51.5 q0 -16 -6 -37.5t-14.5 -44t-17.5 -43t-15 -35.5l-191 -383q-35 -72 -63.5 -141.5t-28.5 -103.5q0 -51 43 -52q35 0 85 22.5t107.5 63.5t118 97.5t115.5 122.5l-31 32q-74 -78 -127 -119.5t-112 -66.5q0 29 15 76t46 106l211 408q27 53 42 99t15 93t-36.5 85t-108.5 38 q-78 0 -161 -46t-163.5 -119.5t-153.5 -165t-130 -179.5h-4l293 955h-17z" />
<glyph unicode="ffh" horiz-adv-x="2217" d="M1090 1096q31 102 64.5 163.5t67 94t67.5 43t63 10.5q33 0 59.5 -12.5t45 -33t30.5 -44t20 -47.5l-348 -1270h156q18 102 39.5 182t44 143.5t49.5 113.5t57 96q47 68 100.5 131t108.5 110t109.5 76t103.5 29q31 0 50.5 -16.5t19.5 -51.5q0 -16 -6 -37.5t-14.5 -44 t-17.5 -43t-15 -35.5l-191 -383q-35 -72 -63.5 -141.5t-28.5 -103.5q0 -51 43 -52q35 0 85 22.5t107.5 63.5t118 97.5t115.5 122.5l-31 32q-74 -78 -127 -119.5t-112 -66.5q0 29 15 76t46 106l211 408q27 53 42 99t15 93t-36.5 85t-108.5 38q-78 0 -161 -46t-164 -119.5 t-153.5 -165t-129.5 -179.5h-4l292 955h-16l-104 -25q-31 10 -77 20.5t-91 10.5q-98 0 -186.5 -33t-159.5 -109q-31 33 -89.5 64t-146.5 31q-84 0 -160 -32t-140.5 -89.5t-114.5 -136t-81 -172.5h-168l-14 -48l160 -32l-256 -951q-45 -166 -94 -245.5t-97 -79.5 q-47 0 -65.5 29.5t-18.5 80.5v29h-147q-14 -10 -25.5 -33.5t-11.5 -58.5q0 -51 43 -86t141 -35q96 0 178.5 44t129.5 122q35 -33 90 -55.5t141 -22.5q180 0 302 149.5t202 430.5l196 694h228l20 68h-229zM907 1004h-393l14 45q47 166 113 238.5t143 72.5q41 0 71 -13.5 t52.5 -33t36.5 -44t25 -48.5zM496 936h391l-228 -846q-45 -166 -102 -260t-158 -94q-59 0 -116.5 42t-85.5 122z" />
<glyph unicode="fk" horiz-adv-x="1544" d="M1042 469q-35 0 -60.5 10t-41.5 27q55 86 111.5 155.5t107.5 117.5t92 75t64 27q31 0 46 -15.5t15 -56.5q0 -49 -32.5 -107.5t-82 -110.5t-108 -87t-111.5 -35zM1227 111q-53 66 -92 150.5t-56 154.5q59 12 141.5 57t157 110.5t126.5 144.5t52 159q0 68 -31.5 105.5 t-101.5 37.5q-53 0 -118.5 -36t-136 -101.5t-143.5 -160.5t-138 -212h-4l293 955h-15l-104 -25q-27 14 -70 22.5t-110 8.5q-174 0 -307.5 -118t-211.5 -359h-168l-14 -48l160 -32l-256 -951q-45 -166 -94 -245.5t-97 -79.5q-47 0 -65.5 29.5t-18.5 80.5v29h-147 q-14 -10 -25.5 -33.5t-11.5 -58.5q0 -51 43 -86t141 -35q84 0 154 43t128 119t103.5 179t79.5 224l226 797h227l20 68h-229l27 92q31 102 62.5 163.5t65 94t68.5 43t70 10.5t60.5 -12.5t44 -33t29.5 -44t20 -47.5l-349 -1270h154q8 66 25.5 131.5t39 124.5t43 109.5 t39.5 87.5q18 -84 50 -169t67 -153t67.5 -109.5t55.5 -41.5q27 0 64.5 27.5t75.5 69.5t74 88t60 83l-30 31q-59 -70 -93 -105.5t-77 -62.5z" />
<glyph unicode="ffk" horiz-adv-x="2107" d="M1606 469q-35 0 -60.5 10t-42.5 27q55 86 111.5 155.5t108 117.5t92 75t63.5 27q31 0 46 -15.5t15 -56.5q0 -49 -32.5 -107.5t-81.5 -110.5t-107.5 -87t-111.5 -35zM1176 0h153q8 66 25.5 131.5t39 124.5t43 109.5t40.5 87.5q18 -84 50 -169t66.5 -153t67.5 -109.5 t55 -41.5q27 0 65 27.5t75.5 69.5t73.5 88t61 83l-31 31q-59 -70 -93 -106t-77 -62q-53 66 -92 150.5t-56 154.5q59 12 141.5 57t157 110.5t127 144.5t52.5 159q0 68 -32 105.5t-101 37.5q-53 0 -119 -36t-136.5 -101.5t-143 -160.5t-138.5 -212h-4l293 955h-15l-118 -25 q-27 14 -65 22.5t-105 8.5q-63 0 -112.5 -11.5t-91.5 -31t-76 -45t-66 -54.5q-31 33 -89.5 64t-146.5 31q-84 0 -160 -32t-140.5 -89.5t-114.5 -136t-81 -172.5h-168l-14 -48l160 -32l-256 -951q-45 -166 -94 -245.5t-97 -79.5q-47 0 -65.5 29.5t-18.5 80.5v29h-147 q-14 -10 -25.5 -33.5t-11.5 -58.5q0 -51 43 -86t141 -35q96 0 178.5 44t129.5 122q35 -33 90 -55.5t141 -22.5q180 0 302 149.5t202 430.5l196 694h228l20 68h-229l27 92q31 102 64.5 163.5t69.5 94t71.5 43t70.5 10.5t59.5 -13.5t43 -35t29.5 -47t20 -49.5zM907 1004h-393 l14 45q47 166 113 238.5t143 72.5q41 0 71 -13.5t52.5 -33t36.5 -44t25 -48.5zM496 936h391l-228 -846q-45 -166 -102 -260t-158 -94q-59 0 -116.5 42t-85.5 122z" />
<glyph unicode="fr" horiz-adv-x="1269" d="M1219 838q29 0 52 -7.5t52 -25.5h6l84 176q-8 10 -29.5 27.5t-72.5 17.5q-61 0 -124 -50t-124.5 -127t-117.5 -169t-101 -174h-10l196 498h-516l27 92q47 166 97 238.5t97 72.5q35 0 52.5 -29.5t17.5 -81.5v-28h147q14 10 25.5 33.5t11.5 58.5q0 51 -43 86t-141 35 q-78 0 -145.5 -36t-124 -98.5t-100.5 -150.5t-77 -192h-168l-14 -48l160 -32l-256 -951q-45 -166 -94 -245.5t-97 -79.5q-47 0 -65.5 29.5t-18.5 80.5v29h-147q-14 -10 -25.5 -33.5t-11.5 -58.5q0 -51 43 -86t141 -35q84 0 154 43t128 119t103.5 179t79.5 224l226 797h303 l55 -55l-307 -881h155q23 88 58 184.5t78 189.5t91 177t98 147.5t99.5 101.5t92.5 38z" />
<glyph unicode="ffr" horiz-adv-x="1837" d="M907 1004h-393l14 45q47 166 122 238.5t145 72.5q35 0 62.5 -13.5t49 -33t36.5 -44t26 -48.5zM496 936h391l-228 -846q-45 -166 -107.5 -260t-162.5 -94q-55 0 -109.5 42t-82.5 122zM1090 1096q31 102 61.5 163.5t62 94t64.5 43t68 10.5t62.5 -14.5t48 -36t30.5 -49 t10 -52.5v-28h148q14 10 25 33.5t11 58.5q0 25 -13 53.5t-45 53t-83 40t-125 15.5q-115 0 -188.5 -42t-136.5 -100q-31 33 -92.5 64t-149.5 31q-78 0 -152.5 -32t-139 -89.5t-116 -136t-82.5 -172.5h-168l-14 -48l160 -32l-256 -951q-45 -166 -94 -245.5t-97 -79.5 q-47 0 -65.5 29.5t-18.5 80.5v29h-147q-14 -10 -25.5 -33.5t-11.5 -58.5q0 -51 43 -86t141 -35q96 0 178.5 44t129.5 122q35 -33 92 -55.5t129 -22.5q180 0 308 149.5t206 430.5l196 694h322l55 -55l-307 -881h156q23 88 57.5 184.5t77.5 189.5t91 177t98.5 147.5 t98.5 101.5t93 38q29 0 52.5 -7.5t51.5 -25.5h6l84 176q-8 10 -29.5 27.5t-72.5 17.5q-61 0 -123.5 -50t-124 -127t-118 -169t-101.5 -174h-10l196 498h-534z" />
<glyph unicode="ft" horiz-adv-x="1134" d="M666 313q-12 -37 -24.5 -80t-24 -83.5t-17.5 -74.5t-6 -50q0 -51 43 -52q39 0 90 26t107.5 69t111.5 99t103 116l-31 32q-41 -41 -70.5 -69.5t-55.5 -50t-51.5 -39t-58.5 -33.5q0 63 49 215l189 598h219l21 68h-222l82 270h-43l-196 -270h-367l27 92q47 166 97 238.5 t97 72.5q35 0 52.5 -29.5t17.5 -81.5v-28h147q14 10 25.5 33.5t11.5 58.5q0 51 -43 86t-141 35q-78 0 -145.5 -36t-124 -98.5t-100.5 -150.5t-77 -192h-168l-14 -48l160 -32l-256 -951q-45 -166 -94 -245.5t-97 -79.5q-47 0 -65.5 29.5t-18.5 80.5v29h-147 q-14 -10 -25.5 -33.5t-11.5 -58.5q0 -51 43 -86t141 -35q84 0 154 43t128 119t103.5 179t79.5 224l226 797h372z" />
<glyph unicode="fft" horiz-adv-x="1681" d="M907 1004h-393l14 45q47 166 113 238.5t143 72.5q41 0 71 -13.5t52.5 -33t36.5 -44t25 -48.5zM496 936h391l-228 -846q-45 -166 -102 -260t-158 -94q-59 0 -116.5 42t-85.5 122zM1044 936h371l-203 -623q-12 -37 -24 -80t-23.5 -83.5t-17.5 -74.5t-6 -50q0 -51 43 -52 q39 0 90 26t107.5 69t111.5 99t102 116l-30 32q-41 -41 -71 -69.5t-55.5 -50t-51 -39t-58.5 -33.5q0 63 49 215l189 598h219l20 68h-221l82 270h-43l-197 -270h-364l27 92q47 166 97 238.5t97 72.5q35 0 52.5 -29.5t17.5 -81.5v-28h147q14 10 25.5 33.5t11.5 58.5 q0 51 -43 86t-141 35q-78 0 -145.5 -36t-125.5 -102q-31 33 -86 62t-143 29q-84 0 -160 -32t-140.5 -89.5t-114.5 -136t-81 -172.5h-168l-14 -48l160 -32l-256 -951q-45 -166 -94 -245.5t-97 -79.5q-47 0 -65.5 29.5t-18.5 80.5v29h-147q-14 -10 -25.5 -33.5t-11.5 -58.5 q0 -51 43 -86t141 -35q96 0 178.5 44t129.5 122q35 -33 90 -55.5t141 -22.5q180 0 303 149.5t201 430.5z" />
<glyph unicode="fu" horiz-adv-x="1615" d="M514 1004l27 92q47 166 97 238.5t97 72.5q35 0 52.5 -29.5t17.5 -81.5v-28h147q14 10 25.5 33.5t11.5 58.5q0 51 -43 86t-141 35q-78 0 -145.5 -36t-124 -98.5t-100.5 -150.5t-77 -192h-168l-14 -48l160 -32l-256 -951q-45 -166 -94 -245.5t-97 -79.5q-47 0 -65.5 29.5 t-18.5 80.5v29h-147q-14 -10 -25.5 -33.5t-11.5 -58.5q0 -51 43 -86t141 -35q84 0 154 43t128 119t103.5 179t79.5 224l226 797h348l47 -55l-229 -531q-10 -23 -22.5 -56.5t-24 -70.5t-19.5 -72.5t-8 -60.5q0 -41 27.5 -79t99.5 -38q78 0 154.5 49.5t147 123t135.5 160.5 t118 165h4l-80 -201q-29 -74 -48.5 -142.5t-19.5 -102.5q0 -51 43 -52q35 0 82 22.5t101.5 63.5t112 97.5t112.5 122.5l-31 32q-74 -78 -127 -119.5t-112 -66.5q0 29 11 86t32 113l243 690l-168 -10q-41 -160 -99 -303.5t-122 -231.5q-53 -72 -103 -135.5t-98.5 -110.5 t-90.5 -73.5t-74 -26.5q-31 0 -50.5 16.5t-19.5 50.5q0 33 16.5 75t32.5 85l266 654h-569z" />
<glyph unicode="ffu" horiz-adv-x="2162" d="M907 1004h-393l14 45q47 166 118 238.5t149 72.5q41 0 69.5 -13.5t48 -33t32.5 -44t24 -48.5zM496 936h391l-228 -846q-45 -166 -107.5 -260t-162.5 -94q-59 0 -111.5 42t-80.5 122zM1044 936h347l47 -55l-230 -531q-10 -23 -22 -56.5t-23.5 -70.5t-19.5 -72.5t-8 -60.5 q0 -41 27.5 -79t99.5 -38q78 0 154.5 49.5t147 123t135 160.5t118.5 165h4l-80 -201q-29 -74 -48.5 -142.5t-19.5 -102.5q0 -51 43 -52q35 0 82 22.5t101.5 63.5t111.5 97.5t113 122.5l-31 32q-74 -78 -127 -119.5t-113 -66.5q0 29 11.5 86t31.5 113l244 690l-168 -10 q-41 -160 -99 -303.5t-122 -231.5q-53 -72 -103.5 -135.5t-98.5 -110.5t-90 -73.5t-75 -26.5q-31 0 -50 16.5t-19 50.5q0 33 16.5 75t32.5 85l266 654h-567l27 92q47 166 97 238.5t97 72.5q35 0 52.5 -29.5t17.5 -81.5v-28h147q14 10 25.5 33.5t11.5 58.5q0 51 -43 86 t-141 35q-78 0 -145.5 -36t-125.5 -102q-31 33 -81 62t-138 29q-84 0 -161.5 -32t-143 -89.5t-118 -136t-83.5 -172.5h-168l-14 -48l160 -32l-256 -951q-45 -166 -94 -245.5t-97 -79.5q-47 0 -65.5 29.5t-18.5 80.5v29h-147q-14 -10 -25.5 -33.5t-11.5 -58.5q0 -51 43 -86 t141 -35q96 0 178.5 44t129.5 122q35 -33 85 -55.5t136 -22.5q180 0 308 149.5t206 430.5z" />
<glyph unicode="fy" horiz-adv-x="1476" d="M496 936h317l51 -55l-229 -836q-18 -68 -48 -125t-67 -98t-78 -63.5t-84 -22.5q-59 0 -90.5 49t-60.5 129zM80 -27q-45 -166 -94 -245.5t-97 -79.5q-47 0 -65.5 29.5t-18.5 80.5v29h-147q-14 -10 -25.5 -33.5t-11.5 -58.5q0 -51 43 -86t141 -35q96 0 178.5 44t129.5 122 q16 -16 32.5 -30.5t37 -25t49 -16.5t71.5 -6q80 0 150.5 25.5t135 69.5t126 101.5t125.5 121.5q160 158 290 295t222 252.5t143 208.5t51 163t-42 100.5t-85 30.5t-72.5 -8t-52.5 -18l-22 -156h53q33 0 52.5 -16.5t19.5 -51.5q0 -43 -50.5 -121.5t-138.5 -184t-204.5 -231.5 t-247.5 -261h-4q23 53 49 125.5t63 189.5t85 287t112 420h-547l27 92q47 166 97 238.5t97 72.5q35 0 52.5 -29.5t17.5 -81.5v-28h147q14 10 25.5 33.5t11.5 58.5q0 51 -43 86t-141 35q-78 0 -145.5 -36t-124 -98.5t-100.5 -150.5t-77 -192h-168l-14 -48l160 -32z" />
<glyph unicode="ffy" horiz-adv-x="2023" d="M907 1004h-393l14 45q47 166 113 238.5t143 72.5q41 0 71 -13.5t52.5 -33t36.5 -44t25 -48.5zM496 936h391l-228 -846q-45 -166 -112.5 -260t-167.5 -94q-59 0 -106.5 42t-75.5 122zM1360 936l51 -55l-229 -836q-18 -68 -48 -125t-67 -98t-78 -63.5t-84 -22.5 q-59 0 -108 35.5t-84 103.5q14 31 32.5 73t37 91t35 101.5t30.5 101.5l196 694h316zM1063 1004l27 92q47 166 97 238.5t97 72.5q35 0 52.5 -29.5t17.5 -81.5v-28h147q14 10 25.5 33.5t11.5 58.5q0 51 -43 86t-141 35q-78 0 -145.5 -36t-125.5 -102q-31 33 -86 62t-143 29 q-84 0 -160 -32t-140.5 -89.5t-114.5 -136t-81 -172.5h-168l-14 -48l160 -32l-256 -951q-45 -166 -94 -245.5t-97 -79.5q-47 0 -65.5 29.5t-18.5 80.5v29h-147q-14 -10 -25.5 -33.5t-11.5 -58.5q0 -51 43 -86t141 -35q96 0 178.5 44t129.5 122q35 -33 80 -55.5t131 -22.5 q133 0 237 80q47 -33 125 -56.5t164 -23.5q80 0 150.5 25.5t135 69.5t126 101.5t124.5 121.5q160 158 290 295t222.5 252.5t143.5 208.5t51 163t-42 100.5t-85 30.5t-72.5 -8t-52.5 -18l-22 -156h53q33 0 52.5 -16.5t19.5 -51.5q0 -43 -50.5 -121.5t-138.5 -184 t-204.5 -231.5t-247.5 -261h-5q23 53 49.5 125.5t63.5 189.5t85 287t112 420h-545z" />
<glyph unicode="f&#xfd;" horiz-adv-x="1476" d="M1479 1454q-102 -86 -215 -151.5t-244 -118.5l22 -31q133 41 261.5 91t279.5 128zM496 936h317l51 -55l-229 -836q-18 -68 -48 -125t-67 -98t-78 -63.5t-84 -22.5q-59 0 -90.5 49t-60.5 129zM80 -27q-45 -166 -94 -245.5t-97 -79.5q-47 0 -65.5 29.5t-18.5 80.5v29h-147 q-14 -10 -25.5 -33.5t-11.5 -58.5q0 -51 43 -86t141 -35q96 0 178.5 44t129.5 122q16 -16 32.5 -30.5t37 -25t49 -16.5t71.5 -6q80 0 150.5 25.5t135 69.5t126 101.5t125.5 121.5q160 158 290 295t222 252.5t143 208.5t51 163t-42 100.5t-85 30.5t-72.5 -8t-52.5 -18 l-22 -156h53q33 0 52.5 -16.5t19.5 -51.5q0 -43 -50.5 -121.5t-138.5 -184t-204.5 -231.5t-247.5 -261h-4q23 53 49 125.5t63 189.5t85 287t112 420h-547l27 92q47 166 97 238.5t97 72.5q35 0 52.5 -29.5t17.5 -81.5v-28h147q14 10 25.5 33.5t11.5 58.5q0 51 -43 86t-141 35 q-78 0 -145.5 -36t-124 -98.5t-100.5 -150.5t-77 -192h-168l-14 -48l160 -32z" />
<glyph unicode="ff&#xfd;" horiz-adv-x="2023" d="M2046 1454q-102 -86 -215 -151.5t-244 -118.5l23 -31q133 41 261 91t279 128zM907 1004h-393l14 45q47 166 113 238.5t143 72.5q41 0 71 -13.5t52.5 -33t36.5 -44t25 -48.5zM496 936h391l-228 -846q-45 -166 -112.5 -260t-167.5 -94q-59 0 -106.5 42t-75.5 122zM1360 936 l51 -55l-229 -836q-18 -68 -48 -125t-67 -98t-78 -63.5t-84 -22.5q-59 0 -108 35.5t-84 103.5q14 31 32.5 73t37 91t35 101.5t30.5 101.5l196 694h316zM1063 1004l27 92q47 166 97 238.5t97 72.5q35 0 52.5 -29.5t17.5 -81.5v-28h147q14 10 25.5 33.5t11.5 58.5q0 51 -43 86 t-141 35q-78 0 -145.5 -36t-125.5 -102q-31 33 -86 62t-143 29q-84 0 -160 -32t-140.5 -89.5t-114.5 -136t-81 -172.5h-168l-14 -48l160 -32l-256 -951q-45 -166 -94 -245.5t-97 -79.5q-47 0 -65.5 29.5t-18.5 80.5v29h-147q-14 -10 -25.5 -33.5t-11.5 -58.5q0 -51 43 -86 t141 -35q96 0 178.5 44t129.5 122q35 -33 80 -55.5t131 -22.5q133 0 237 80q47 -33 125 -56.5t164 -23.5q80 0 150.5 25.5t135 69.5t126 101.5t124.5 121.5q160 158 290 295t222.5 252.5t143.5 208.5t51 163t-42 100.5t-85 30.5t-72.5 -8t-52.5 -18l-22 -156h53 q33 0 52.5 -16.5t19.5 -51.5q0 -43 -50.5 -121.5t-138.5 -184t-204.5 -231.5t-247.5 -261h-5q23 53 49.5 125.5t63.5 189.5t85 287t112 420h-545z" />
<glyph unicode="f&#xed;" horiz-adv-x="1087" d="M1313 1454q-43 -35 -88 -67.5t-92 -61.5q-12 25 -31 52.5t-49.5 50t-75.5 38t-111 15.5q-174 0 -302 -118t-206 -359h-168l-14 -48l160 -32l-256 -951q-45 -166 -94 -245.5t-97 -79.5q-47 0 -65.5 29.5t-18.5 80.5v29h-147q-14 -10 -25.5 -33.5t-11.5 -58.5q0 -51 43 -86 t141 -35q84 0 154 43t128 119t103.5 179t79.5 224l226 797h331l47 -55l-206 -598q-12 -37 -24.5 -76t-22 -74t-15.5 -63.5t-6 -44.5q0 -51 43 -52q39 0 85 23.5t95 64.5t99.5 98.5t97.5 123.5l-37 32q-49 -66 -94 -111.5t-101 -80.5q0 29 11.5 84t38.5 131l231 666h-555 l27 92q31 102 61.5 163.5t62 94t64.5 43t68 10.5t62.5 -14.5t48 -36t30.5 -49t10 -52.5v-67q117 41 233.5 83t235.5 101z" />
<glyph unicode="ff&#xed;" horiz-adv-x="1636" d="M907 1004h-393l14 45q47 166 122 238.5t145 72.5q35 0 62.5 -13.5t49 -33t36.5 -44t26 -48.5zM496 936h391l-228 -846q-45 -166 -107.5 -260t-162.5 -94q-55 0 -109.5 42t-82.5 122zM1090 1339q-31 33 -92.5 64t-149.5 31q-78 0 -152.5 -32t-139 -89.5t-116 -136 t-82.5 -172.5h-168l-14 -48l160 -32l-256 -951q-45 -166 -94 -245.5t-97 -79.5q-47 0 -65.5 29.5t-18.5 80.5v29h-147q-14 -10 -25.5 -33.5t-11.5 -58.5q0 -51 43 -86t141 -35q96 0 178.5 44t129.5 122q35 -33 92 -55.5t129 -22.5q180 0 308 149.5t206 430.5l196 694h332 l47 -55l-206 -598q-12 -37 -24.5 -76t-22 -74t-15.5 -63.5t-6 -44.5q0 -51 43 -52q39 0 85 23.5t95 64.5t99.5 98.5t97.5 123.5l-37 32q-49 -66 -94 -111.5t-101 -80.5q0 29 11.5 84t37.5 131l232 666h-555l29 92q31 102 65.5 163.5t69.5 94t70.5 43t70.5 10.5t62.5 -14.5 t48 -36t31 -49t10.5 -52.5v-67q117 41 233.5 83t235.5 101l-105 82q-43 -35 -88 -67.5t-92 -61.5q-12 25 -30.5 52.5t-49.5 50t-76 38t-110 15.5q-94 0 -185 -35t-163 -107z" />
<glyph unicode="f&#xec;" horiz-adv-x="1087" d="M999 1454q-16 6 -38 12q-18 4 -42 9.5t-53 5.5q-174 0 -302 -118t-206 -359h-168l-14 -48l160 -32l-256 -951q-45 -166 -94 -245.5t-97 -79.5q-47 0 -65.5 29.5t-18.5 80.5v29h-147q-14 -10 -25.5 -33.5t-11.5 -58.5q0 -51 43 -86t141 -35q84 0 154 43t128 119t103.5 179 t79.5 224l226 797h331l47 -55l-206 -598q-12 -37 -24.5 -76t-22 -74t-15.5 -63.5t-6 -44.5q0 -51 43 -52q39 0 85 23.5t95 64.5t99.5 98.5t97.5 123.5l-37 32q-49 -66 -94 -111.5t-101 -80.5q0 29 11.5 84t38.5 131l231 666h-555l27 92q31 102 61.5 163.5t62 94t64.5 43 t68 10.5t59.5 -23.5t38.5 -52.5q86 -41 190.5 -89t206.5 -89l23 31q-43 27 -89 62.5t-89 72.5t-80.5 71.5t-57.5 63.5z" />
<glyph unicode="ff&#xec;" horiz-adv-x="1636" d="M907 1004h-393l14 45q47 166 122 238.5t145 72.5q35 0 62.5 -13.5t49 -33t36.5 -44t26 -48.5zM496 936h391l-228 -846q-45 -166 -107.5 -260t-162.5 -94q-55 0 -109.5 42t-82.5 122zM1094 1335q-35 35 -96.5 67t-149.5 32q-78 0 -152.5 -32t-139 -89.5t-116 -136 t-82.5 -172.5h-168l-14 -48l160 -32l-256 -951q-45 -166 -94 -245.5t-97 -79.5q-47 0 -65.5 29.5t-18.5 80.5v29h-147q-14 -10 -25.5 -33.5t-11.5 -58.5q0 -51 43 -86t141 -35q96 0 178.5 44t129.5 122q35 -33 92 -55.5t129 -22.5q180 0 308 149.5t206 430.5l196 694h332 l47 -55l-206 -598q-12 -37 -24.5 -76t-22 -74t-15.5 -63.5t-6 -44.5q0 -51 43 -52q39 0 85 23.5t95 64.5t99.5 98.5t97.5 123.5l-37 32q-49 -66 -94 -111.5t-101 -80.5q0 29 11.5 84t37.5 131l232 666h-555l27 92q31 102 64.5 163.5t69.5 94t71.5 43t70.5 10.5t59.5 -23.5 t38.5 -52.5q86 -41 190.5 -89t207.5 -89l22 31q-43 27 -89 62.5t-89 72.5t-80 71.5t-57 63.5q-16 6 -39 12q-18 4 -42 9.5t-52 5.5q-199 -1 -342 -146z" />
<glyph unicode="f&#xee;" horiz-adv-x="1087" d="M1157 1452v2l-53 -49q-25 31 -79 53.5t-159 22.5q-174 0 -302 -118t-206 -359h-168l-14 -48l160 -32l-256 -951q-45 -166 -94 -245.5t-97 -79.5q-47 0 -65.5 29.5t-18.5 80.5v29h-147q-14 -10 -25.5 -33.5t-11.5 -58.5q0 -51 43 -86t141 -35q84 0 154 43t128 119 t103.5 179t79.5 224l226 797h331l47 -55l-206 -598q-12 -37 -24.5 -76t-22 -74t-15.5 -63.5t-6 -44.5q0 -51 43 -52q39 0 85 23.5t95 64.5t99.5 98.5t97.5 123.5l-37 32q-49 -66 -94 -111.5t-101 -80.5q0 29 11.5 84t38.5 131l231 666h-555l27 92q31 102 61.5 163.5t62 94 t64.5 43t68 10.5q57 0 96 -37t49 -80q-47 -29 -98 -55.5t-105 -50.5l23 -31q123 37 209 72t149 67q35 -35 81 -68.5t108 -70.5l22 31q-53 53 -97 127.5t-75 142.5z" />
<glyph unicode="ff&#xee;" horiz-adv-x="1636" d="M907 1004h-393l14 45q47 166 122 238.5t145 72.5q35 0 62.5 -13.5t49 -33t36.5 -44t26 -48.5zM496 936h391l-228 -846q-45 -166 -107.5 -260t-162.5 -94q-55 0 -109.5 42t-82.5 122zM1090 1331q-31 39 -92.5 71t-149.5 32q-78 0 -152.5 -32t-139 -89.5t-116 -136 t-82.5 -172.5h-168l-14 -48l160 -32l-256 -951q-45 -166 -94 -245.5t-97 -79.5q-47 0 -65.5 29.5t-18.5 80.5v29h-147q-14 -10 -25.5 -33.5t-11.5 -58.5q0 -51 43 -86t141 -35q96 0 178.5 44t129.5 122q35 -33 92 -55.5t129 -22.5q180 0 308 149.5t206 430.5l196 694h332 l47 -55l-206 -598q-12 -37 -24.5 -76t-22 -74t-15.5 -63.5t-6 -44.5q0 -51 43 -52q39 0 85 23.5t95 64.5t99.5 98.5t97.5 123.5l-37 32q-49 -66 -94 -111.5t-101 -80.5q0 29 11.5 84t37.5 131l232 666h-555l27 92q31 102 64.5 163.5t69.5 94t71.5 43t70.5 10.5q57 0 96 -37 t49 -80q-47 -29 -98 -55.5t-104 -50.5l22 -31q123 37 209 72t150 67q35 -35 81 -68.5t107 -70.5l23 31q-53 53 -97.5 127.5t-74.5 142.5l-3 -2v2l-53 -49q-25 31 -79 53.5t-158 22.5q-98 0 -186 -37t-160 -113z" />
<glyph unicode="g&#xed;" horiz-adv-x="1452" d="M1544 1454q-102 -86 -214.5 -151.5t-244.5 -118.5l23 -31q133 41 261 91t280 128zM573 -72q0 -63 -36.5 -110t-92 -79t-122 -47.5t-125.5 -15.5q-31 0 -61 6.5t-53.5 18.5t-38.5 32.5t-15 49.5q0 82 37.5 127t97.5 90h323q49 0 67.5 -23.5t18.5 -48.5zM344 530 q0 80 24.5 158t64.5 141.5t90 102.5t100 39q49 0 75.5 -45t26.5 -125q0 -57 -24.5 -129t-64.5 -135.5t-91 -106.5t-107 -43q-41 0 -67.5 41t-26.5 102zM1032 283q-12 -37 -24.5 -76t-21.5 -74t-15 -63.5t-6 -44.5q0 -51 43 -52q39 0 85 23.5t95 64.5t99 98.5t97 123.5 l-36 32q-49 -66 -94.5 -111.5t-100.5 -80.5q0 29 11.5 84t37.5 131l232 666h-619q-45 27 -117 26q-88 0 -182 -41t-172 -111.5t-128 -166t-50 -201.5q0 -43 11 -82t40 -68l-104 -81q-18 -16 -41 -37t-42.5 -44.5t-31.5 -48t-12 -49.5q0 -49 36.5 -74.5t77.5 -25.5 q-106 -76 -163.5 -149.5t-57.5 -147.5q0 -59 58.5 -94t181.5 -35q92 0 198.5 42t197.5 108.5t150.5 147.5t59.5 159q0 57 -29.5 91t-115.5 34h-306q-53 0 -86.5 9t-33.5 38q0 23 20.5 56.5t83.5 74.5q37 -18 100 -19q72 0 139.5 28t127 72t108.5 101t84 115.5t54.5 113 t19.5 95.5q0 53 -17 96h310l55 -55z" />
<glyph unicode="g&#xec;" horiz-adv-x="1452" d="M1178 1372q102 -74 198.5 -126t198.5 -93l22 31q-166 104 -315 270zM573 -72q0 -63 -36.5 -110t-92 -79t-122 -47.5t-125.5 -15.5q-31 0 -61 6.5t-53.5 18.5t-38.5 32.5t-15 49.5q0 82 37.5 127t97.5 90h323q49 0 67.5 -23.5t18.5 -48.5zM344 530q0 80 24.5 158 t64.5 141.5t90 102.5t100 39q49 0 75.5 -45t26.5 -125q0 -57 -24.5 -129t-64.5 -135.5t-91 -106.5t-107 -43q-41 0 -67.5 41t-26.5 102zM1032 283q-12 -37 -24.5 -76t-21.5 -74t-15 -63.5t-6 -44.5q0 -51 43 -52q39 0 85 23.5t95 64.5t99 98.5t97 123.5l-36 32 q-49 -66 -94.5 -111.5t-100.5 -80.5q0 29 11.5 84t37.5 131l232 666h-619q-45 27 -117 26q-88 0 -182 -41t-172 -111.5t-128 -166t-50 -201.5q0 -43 11 -82t40 -68l-104 -81q-18 -16 -41 -37t-42.5 -44.5t-31.5 -48t-12 -49.5q0 -49 36.5 -74.5t77.5 -25.5 q-106 -76 -163.5 -149.5t-57.5 -147.5q0 -59 58.5 -94t181.5 -35q92 0 198.5 42t197.5 108.5t150.5 147.5t59.5 159q0 57 -29.5 91t-115.5 34h-306q-53 0 -86.5 9t-33.5 38q0 23 20.5 56.5t83.5 74.5q37 -18 100 -19q72 0 139.5 28t127 72t108.5 101t84 115.5t54.5 113 t19.5 95.5q0 53 -17 96h310l55 -55z" />
<glyph unicode="g&#xee;" horiz-adv-x="1452" d="M1468 1452v2q-84 -84 -189 -148.5t-228 -121.5l22 -31q123 37 209 72t150 67q35 -35 81 -68.5t107 -70.5l22 31q-53 53 -97 127.5t-75 142.5zM573 -72q0 -63 -36.5 -110t-92 -79t-122 -47.5t-125.5 -15.5q-31 0 -61 6.5t-53.5 18.5t-38.5 32.5t-15 49.5q0 82 37.5 127 t97.5 90h323q49 0 67.5 -23.5t18.5 -48.5zM344 530q0 80 24.5 158t64.5 141.5t90 102.5t100 39q49 0 75.5 -45t26.5 -125q0 -57 -24.5 -129t-64.5 -135.5t-91 -106.5t-107 -43q-41 0 -67.5 41t-26.5 102zM1032 283q-12 -37 -24.5 -76t-21.5 -74t-15 -63.5t-6 -44.5 q0 -51 43 -52q39 0 85 23.5t95 64.5t99 98.5t97 123.5l-36 32q-49 -66 -94.5 -111.5t-100.5 -80.5q0 29 11.5 84t37.5 131l232 666h-619q-45 27 -117 26q-88 0 -182 -41t-172 -111.5t-128 -166t-50 -201.5q0 -43 11 -82t40 -68l-104 -81q-18 -16 -41 -37t-42.5 -44.5 t-31.5 -48t-12 -49.5q0 -49 36.5 -74.5t77.5 -25.5q-106 -76 -163.5 -149.5t-57.5 -147.5q0 -59 58.5 -94t181.5 -35q92 0 198.5 42t197.5 108.5t150.5 147.5t59.5 159q0 57 -29.5 91t-115.5 34h-306q-53 0 -86.5 9t-33.5 38q0 23 20.5 56.5t83.5 74.5q37 -18 100 -19 q72 0 139.5 28t127 72t108.5 101t84 115.5t54.5 113t19.5 95.5q0 53 -17 96h310l55 -55z" />
<glyph unicode="g&#xef;" horiz-adv-x="1452" d="M1315 1329q0 53 -36 89t-89 36t-89 -36t-36 -89t36 -89t89 -36t89 36t36 89zM1741 1329q0 53 -36 89t-89 36t-89 -36t-36 -89t36 -89t89 -36t89 36t36 89zM573 -72q0 -63 -36.5 -110t-92 -79t-122 -47.5t-125.5 -15.5q-31 0 -61 6.5t-53.5 18.5t-38.5 32.5t-15 49.5 q0 82 37.5 127t97.5 90h323q49 0 67.5 -23.5t18.5 -48.5zM344 530q0 80 24.5 158t64.5 141.5t90 102.5t100 39q49 0 75.5 -45t26.5 -125q0 -57 -24.5 -129t-64.5 -135.5t-91 -106.5t-107 -43q-41 0 -67.5 41t-26.5 102zM1032 283q-12 -37 -24.5 -76t-21.5 -74t-15 -63.5 t-6 -44.5q0 -51 43 -52q39 0 85 23.5t95 64.5t99 98.5t97 123.5l-36 32q-49 -66 -94.5 -111.5t-100.5 -80.5q0 29 11.5 84t37.5 131l232 666h-619q-45 27 -117 26q-88 0 -182 -41t-172 -111.5t-128 -166t-50 -201.5q0 -43 11 -82t40 -68l-104 -81q-18 -16 -41 -37 t-42.5 -44.5t-31.5 -48t-12 -49.5q0 -49 36.5 -74.5t77.5 -25.5q-106 -76 -163.5 -149.5t-57.5 -147.5q0 -59 58.5 -94t181.5 -35q92 0 198.5 42t197.5 108.5t150.5 147.5t59.5 159q0 57 -29.5 91t-115.5 34h-306q-53 0 -86.5 9t-33.5 38q0 23 20.5 56.5t83.5 74.5 q37 -18 100 -19q72 0 139.5 28t127 72t108.5 101t84 115.5t54.5 113t19.5 95.5q0 53 -17 96h310l55 -55z" />
<glyph unicode="g&#xfa;" horiz-adv-x="1980" d="M1882 1454q-102 -86 -215 -151.5t-244 -118.5l23 -31q133 41 261 91t280 128zM573 -72q0 -63 -36.5 -110t-92 -79t-122 -47.5t-125.5 -15.5q-31 0 -61 6.5t-53.5 18.5t-38.5 32.5t-15 49.5q0 82 37.5 127t97.5 90h323q49 0 67.5 -23.5t18.5 -48.5zM344 530q0 80 24.5 158 t64.5 141.5t90 102.5t100 39q49 0 75.5 -45t26.5 -125q0 -57 -24.5 -129t-64.5 -135.5t-91 -106.5t-107 -43q-41 0 -67.5 41t-26.5 102zM815 1004q-45 27 -117 26q-88 0 -182 -41t-172 -111.5t-128 -166t-50 -201.5q0 -43 11 -82t40 -68l-104 -81q-18 -16 -41 -37 t-42.5 -44.5t-31.5 -48t-12 -49.5q0 -49 36.5 -74.5t77.5 -25.5q-106 -76 -163.5 -149.5t-57.5 -147.5q0 -59 58.5 -94t181.5 -35q92 0 198.5 42t197.5 108.5t150.5 147.5t59.5 159q0 57 -29.5 91t-115.5 34h-306q-53 0 -86.5 9t-33.5 38q0 23 20.5 56.5t83.5 74.5 q37 -18 100 -19q72 0 139.5 28t127 72t108.5 101t84 115.5t54.5 113t19.5 95.5q0 53 -17 96h326l55 -55l-229 -531q-10 -23 -22.5 -56.5t-23.5 -70.5t-19.5 -72.5t-8.5 -60.5q0 -41 28 -79t99 -38q78 0 155 49.5t147.5 123t135 160.5t117.5 165h4l-79 -201 q-29 -74 -48.5 -142.5t-19.5 -102.5q0 -51 43 -52q35 0 82 22.5t101.5 63.5t111.5 97.5t113 122.5l-31 32q-74 -78 -127 -119.5t-113 -66.5q0 29 11.5 86t31.5 113l244 690l-168 -10q-41 -160 -99.5 -303.5t-121.5 -231.5q-53 -72 -103.5 -135.5t-98.5 -110.5t-90 -73.5 t-75 -26.5q-31 0 -50 16.5t-19 50.5q0 33 16 75t33 85l266 654h-633z" />
<glyph unicode="g&#xf9;" horiz-adv-x="1980" d="M1473 1372q102 -74 198 -126t199 -93l22 31q-166 104 -315 270zM573 -72q0 -63 -36.5 -110t-92 -79t-122 -47.5t-125.5 -15.5q-31 0 -61 6.5t-53.5 18.5t-38.5 32.5t-15 49.5q0 82 37.5 127t97.5 90h323q49 0 67.5 -23.5t18.5 -48.5zM344 530q0 80 24.5 158t64.5 141.5 t90 102.5t100 39q49 0 75.5 -45t26.5 -125q0 -57 -24.5 -129t-64.5 -135.5t-91 -106.5t-107 -43q-41 0 -67.5 41t-26.5 102zM815 1004q-45 27 -117 26q-88 0 -182 -41t-172 -111.5t-128 -166t-50 -201.5q0 -43 11 -82t40 -68l-104 -81q-18 -16 -41 -37t-42.5 -44.5 t-31.5 -48t-12 -49.5q0 -49 36.5 -74.5t77.5 -25.5q-106 -76 -163.5 -149.5t-57.5 -147.5q0 -59 58.5 -94t181.5 -35q92 0 198.5 42t197.5 108.5t150.5 147.5t59.5 159q0 57 -29.5 91t-115.5 34h-306q-53 0 -86.5 9t-33.5 38q0 23 20.5 56.5t83.5 74.5q37 -18 100 -19 q72 0 139.5 28t127 72t108.5 101t84 115.5t54.5 113t19.5 95.5q0 53 -17 96h326l55 -55l-229 -531q-10 -23 -22.5 -56.5t-23.5 -70.5t-19.5 -72.5t-8.5 -60.5q0 -41 28 -79t99 -38q78 0 155 49.5t147.5 123t135 160.5t117.5 165h4l-79 -201q-29 -74 -48.5 -142.5 t-19.5 -102.5q0 -51 43 -52q35 0 82 22.5t101.5 63.5t111.5 97.5t113 122.5l-31 32q-74 -78 -127 -119.5t-113 -66.5q0 29 11.5 86t31.5 113l244 690l-168 -10q-41 -160 -99.5 -303.5t-121.5 -231.5q-53 -72 -103.5 -135.5t-98.5 -110.5t-90 -73.5t-75 -26.5q-31 0 -50 16.5 t-19 50.5q0 33 16 75t33 85l266 654h-633z" />
<glyph unicode="g&#xfb;" horiz-adv-x="1980" d="M1804 1452v2q-84 -84 -189.5 -148.5t-228.5 -121.5l23 -31q123 37 209 72t149 67q35 -35 81 -68.5t108 -70.5l22 31q-53 53 -97 127.5t-75 142.5zM573 -72q0 -63 -36.5 -110t-92 -79t-122 -47.5t-125.5 -15.5q-31 0 -61 6.5t-53.5 18.5t-38.5 32.5t-15 49.5 q0 82 37.5 127t97.5 90h323q49 0 67.5 -23.5t18.5 -48.5zM344 530q0 80 24.5 158t64.5 141.5t90 102.5t100 39q49 0 75.5 -45t26.5 -125q0 -57 -24.5 -129t-64.5 -135.5t-91 -106.5t-107 -43q-41 0 -67.5 41t-26.5 102zM815 1004q-45 27 -117 26q-88 0 -182 -41t-172 -111.5 t-128 -166t-50 -201.5q0 -43 11 -82t40 -68l-104 -81q-18 -16 -41 -37t-42.5 -44.5t-31.5 -48t-12 -49.5q0 -49 36.5 -74.5t77.5 -25.5q-106 -76 -163.5 -149.5t-57.5 -147.5q0 -59 58.5 -94t181.5 -35q92 0 198.5 42t197.5 108.5t150.5 147.5t59.5 159q0 57 -29.5 91 t-115.5 34h-306q-53 0 -86.5 9t-33.5 38q0 23 20.5 56.5t83.5 74.5q37 -18 100 -19q72 0 139.5 28t127 72t108.5 101t84 115.5t54.5 113t19.5 95.5q0 53 -17 96h326l55 -55l-229 -531q-10 -23 -22.5 -56.5t-23.5 -70.5t-19.5 -72.5t-8.5 -60.5q0 -41 28 -79t99 -38 q78 0 155 49.5t147.5 123t135 160.5t117.5 165h4l-79 -201q-29 -74 -48.5 -142.5t-19.5 -102.5q0 -51 43 -52q35 0 82 22.5t101.5 63.5t111.5 97.5t113 122.5l-31 32q-74 -78 -127 -119.5t-113 -66.5q0 29 11.5 86t31.5 113l244 690l-168 -10q-41 -160 -99.5 -303.5 t-121.5 -231.5q-53 -72 -103.5 -135.5t-98.5 -110.5t-90 -73.5t-75 -26.5q-31 0 -50 16.5t-19 50.5q0 33 16 75t33 85l266 654h-633z" />
<glyph unicode="g&#xfc;" horiz-adv-x="1980" d="M1626 1329q0 53 -36 89t-89 36t-89 -36t-36 -89t36 -89t89 -36t89 36t36 89zM2052 1329q0 53 -36 89t-89 36t-89 -36t-36 -89t36 -89t89 -36t89 36t36 89zM573 -72q0 -63 -36.5 -110t-92 -79t-122 -47.5t-125.5 -15.5q-31 0 -61 6.5t-53.5 18.5t-38.5 32.5t-15 49.5 q0 82 37.5 127t97.5 90h323q49 0 67.5 -23.5t18.5 -48.5zM344 530q0 80 24.5 158t64.5 141.5t90 102.5t100 39q49 0 75.5 -45t26.5 -125q0 -57 -24.5 -129t-64.5 -135.5t-91 -106.5t-107 -43q-41 0 -67.5 41t-26.5 102zM815 1004q-45 27 -117 26q-88 0 -182 -41t-172 -111.5 t-128 -166t-50 -201.5q0 -43 11 -82t40 -68l-104 -81q-18 -16 -41 -37t-42.5 -44.5t-31.5 -48t-12 -49.5q0 -49 36.5 -74.5t77.5 -25.5q-106 -76 -163.5 -149.5t-57.5 -147.5q0 -59 58.5 -94t181.5 -35q92 0 198.5 42t197.5 108.5t150.5 147.5t59.5 159q0 57 -29.5 91 t-115.5 34h-306q-53 0 -86.5 9t-33.5 38q0 23 20.5 56.5t83.5 74.5q37 -18 100 -19q72 0 139.5 28t127 72t108.5 101t84 115.5t54.5 113t19.5 95.5q0 53 -17 96h326l55 -55l-229 -531q-10 -23 -22.5 -56.5t-23.5 -70.5t-19.5 -72.5t-8.5 -60.5q0 -41 28 -79t99 -38 q78 0 155 49.5t147.5 123t135 160.5t117.5 165h4l-79 -201q-29 -74 -48.5 -142.5t-19.5 -102.5q0 -51 43 -52q35 0 82 22.5t101.5 63.5t111.5 97.5t113 122.5l-31 32q-74 -78 -127 -119.5t-113 -66.5q0 29 11.5 86t31.5 113l244 690l-168 -10q-41 -160 -99.5 -303.5 t-121.5 -231.5q-53 -72 -103.5 -135.5t-98.5 -110.5t-90 -73.5t-75 -26.5q-31 0 -50 16.5t-19 50.5q0 33 16 75t33 85l266 654h-633z" />
<glyph unicode="t&#xed;" horiz-adv-x="1136" d="M1249 1454q-102 -86 -214.5 -151.5t-243.5 -118.5l22 -31q133 41 261 91t280 128zM717 283q-12 -37 -24.5 -76t-21.5 -74t-15.5 -63.5t-6.5 -44.5q0 -51 43 -52q39 0 85 23.5t95.5 64.5t99.5 98.5t97 123.5l-37 32q-49 -66 -94 -111.5t-100 -80.5q0 29 11 84t38 131 l229 666h-606l82 270h-43l-197 -270h-155l-15 -48l162 -32l-207 -611q-12 -37 -24.5 -80t-23.5 -83.5t-17 -74.5t-6 -50q0 -51 43 -52q39 0 90 26t107 69t111.5 99t102.5 116l-31 32q-41 -41 -70.5 -69.5t-55 -50t-51 -39t-58.5 -33.5q0 63 49 215l189 598h385l47 -55z" />
<glyph unicode="t&#xec;" horiz-adv-x="1136" d="M883 1372q102 -74 198.5 -126t198.5 -93l23 31q-166 104 -316 270zM717 283q-12 -37 -24.5 -76t-21.5 -74t-15.5 -63.5t-6.5 -44.5q0 -51 43 -52q39 0 85 23.5t95.5 64.5t99.5 98.5t97 123.5l-37 32q-49 -66 -94 -111.5t-100 -80.5q0 29 11 84t38 131l229 666h-606 l82 270h-43l-197 -270h-155l-15 -48l162 -32l-207 -611q-12 -37 -24.5 -80t-23.5 -83.5t-17 -74.5t-6 -50q0 -51 43 -52q39 0 90 26t107 69t111.5 99t102.5 116l-31 32q-41 -41 -70.5 -69.5t-55 -50t-51 -39t-58.5 -33.5q0 63 49 215l189 598h385l47 -55z" />
<glyph unicode="t&#xee;" horiz-adv-x="1136" d="M1174 1452v2q-84 -84 -189.5 -148.5t-228.5 -121.5l22 -31q123 37 209 72t150 67q35 -35 81 -68.5t107 -70.5l23 31q-53 53 -97.5 127.5t-74.5 142.5zM717 283q-12 -37 -24.5 -76t-21.5 -74t-15.5 -63.5t-6.5 -44.5q0 -51 43 -52q39 0 85 23.5t95.5 64.5t99.5 98.5 t97 123.5l-37 32q-49 -66 -94 -111.5t-100 -80.5q0 29 11 84t38 131l229 666h-606l82 270h-43l-197 -270h-155l-15 -48l162 -32l-207 -611q-12 -37 -24.5 -80t-23.5 -83.5t-17 -74.5t-6 -50q0 -51 43 -52q39 0 90 26t107 69t111.5 99t102.5 116l-31 32q-41 -41 -70.5 -69.5 t-55 -50t-51 -39t-58.5 -33.5q0 63 49 215l189 598h385l47 -55z" />
<glyph unicode="t&#xef;" horiz-adv-x="1136" d="M1405 1329q0 53 -36 89t-89 36t-89 -36t-36 -89t36 -89t89 -36t89 36t36 89zM979 1329q0 53 -36 89t-89 36t-89 -36t-36 -89t36 -89t89 -36t89 36t36 89zM717 283q-12 -37 -24.5 -76t-21.5 -74t-15.5 -63.5t-6.5 -44.5q0 -51 43 -52q39 0 85 23.5t95.5 64.5t99.5 98.5 t97 123.5l-37 32q-49 -66 -94 -111.5t-100 -80.5q0 29 11 84t38 131l229 666h-606l82 270h-43l-197 -270h-155l-15 -48l162 -32l-207 -611q-12 -37 -24.5 -80t-23.5 -83.5t-17 -74.5t-6 -50q0 -51 43 -52q39 0 90 26t107 69t111.5 99t102.5 116l-31 32q-41 -41 -70.5 -69.5 t-55 -50t-51 -39t-58.5 -33.5q0 63 49 215l189 598h385l47 -55z" />
<glyph unicode="tt&#xed;" horiz-adv-x="1714" d="M1843 1454q-102 -86 -214.5 -151.5t-244.5 -118.5l23 -31q133 41 261 91t280 128zM1294 283q-12 -37 -24.5 -76t-21.5 -74t-15 -63.5t-6 -44.5q0 -51 43 -52q39 0 85 23.5t95 64.5t99 98.5t98 123.5l-37 32q-49 -66 -94.5 -111.5t-100.5 -80.5q0 29 11.5 84t37.5 131 l230 666h-607l82 270h-43l-196 -270h-420l82 270h-43l-197 -270h-155l-15 -48l162 -32l-207 -611q-12 -37 -24.5 -80t-23.5 -83.5t-17 -74.5t-6 -50q0 -51 43 -52q39 0 90 26t107 69t111.5 99t102.5 116l-31 32q-41 -41 -70.5 -69.5t-55 -50t-51 -39t-58.5 -33.5 q0 63 49 215l189 598h436l-213 -623q-12 -37 -24.5 -80t-24 -83.5t-17.5 -74.5t-6 -50q0 -51 43 -52q39 0 90 26t107.5 69t112 99t102.5 116l-31 32q-41 -41 -70.5 -69.5t-55.5 -50t-51.5 -39t-58.5 -33.5q0 63 50 215l188 598h385l47 -55z" />
<glyph unicode="tt&#xec;" horiz-adv-x="1714" d="M1456 1372q102 -74 198.5 -126t198.5 -93l23 31q-166 104 -315 270zM1294 283q-12 -37 -24.5 -76t-21.5 -74t-15 -63.5t-6 -44.5q0 -51 43 -52q39 0 85 23.5t95 64.5t99 98.5t98 123.5l-37 32q-49 -66 -94.5 -111.5t-100.5 -80.5q0 29 11.5 84t37.5 131l230 666h-607 l82 270h-43l-196 -270h-420l82 270h-43l-197 -270h-155l-15 -48l162 -32l-207 -611q-12 -37 -24.5 -80t-23.5 -83.5t-17 -74.5t-6 -50q0 -51 43 -52q39 0 90 26t107 69t111.5 99t102.5 116l-31 32q-41 -41 -70.5 -69.5t-55 -50t-51 -39t-58.5 -33.5q0 63 49 215l189 598h436 l-213 -623q-12 -37 -24.5 -80t-24 -83.5t-17.5 -74.5t-6 -50q0 -51 43 -52q39 0 90 26t107.5 69t112 99t102.5 116l-31 32q-41 -41 -70.5 -69.5t-55.5 -50t-51.5 -39t-58.5 -33.5q0 63 50 215l188 598h385l47 -55z" />
<glyph unicode="tt&#xee;" horiz-adv-x="1714" d="M1726 1452v2q-84 -84 -189 -148.5t-228 -121.5l22 -31q123 37 209 72t150 67q35 -35 81 -68.5t107 -70.5l23 31q-53 53 -97.5 127.5t-74.5 142.5zM1294 283q-12 -37 -24.5 -76t-21.5 -74t-15 -63.5t-6 -44.5q0 -51 43 -52q39 0 85 23.5t95 64.5t99 98.5t98 123.5l-37 32 q-49 -66 -94.5 -111.5t-100.5 -80.5q0 29 11.5 84t37.5 131l230 666h-607l82 270h-43l-196 -270h-420l82 270h-43l-197 -270h-155l-15 -48l162 -32l-207 -611q-12 -37 -24.5 -80t-23.5 -83.5t-17 -74.5t-6 -50q0 -51 43 -52q39 0 90 26t107 69t111.5 99t102.5 116l-31 32 q-41 -41 -70.5 -69.5t-55 -50t-51 -39t-58.5 -33.5q0 63 49 215l189 598h436l-213 -623q-12 -37 -24.5 -80t-24 -83.5t-17.5 -74.5t-6 -50q0 -51 43 -52q39 0 90 26t107.5 69t112 99t102.5 116l-31 32q-41 -41 -70.5 -69.5t-55.5 -50t-51.5 -39t-58.5 -33.5q0 63 50 215 l188 598h385l47 -55z" />
<glyph unicode="tt&#xef;" horiz-adv-x="1714" d="M1958 1329q0 53 -36 89t-89 36t-89 -36t-36 -89t36 -89t89 -36t89 36t36 89zM1532 1329q0 53 -36 89t-89 36t-89 -36t-36 -89t36 -89t89 -36t89 36t36 89zM1294 283q-12 -37 -24.5 -76t-21.5 -74t-15 -63.5t-6 -44.5q0 -51 43 -52q39 0 85 23.5t95 64.5t99 98.5t98 123.5 l-37 32q-49 -66 -94.5 -111.5t-100.5 -80.5q0 29 11.5 84t37.5 131l230 666h-607l82 270h-43l-196 -270h-420l82 270h-43l-197 -270h-155l-15 -48l162 -32l-207 -611q-12 -37 -24.5 -80t-23.5 -83.5t-17 -74.5t-6 -50q0 -51 43 -52q39 0 90 26t107 69t111.5 99t102.5 116 l-31 32q-41 -41 -70.5 -69.5t-55 -50t-51 -39t-58.5 -33.5q0 63 49 215l189 598h436l-213 -623q-12 -37 -24.5 -80t-24 -83.5t-17.5 -74.5t-6 -50q0 -51 43 -52q39 0 90 26t107.5 69t112 99t102.5 116l-31 32q-41 -41 -70.5 -69.5t-55.5 -50t-51.5 -39t-58.5 -33.5 q0 63 50 215l188 598h385l47 -55z" />
<glyph unicode="t&#xfa;" horiz-adv-x="1665" d="M1585 1454q-102 -86 -215 -151.5t-244 -118.5l23 -31q133 41 261 91t280 128zM510 1004l82 270h-43l-197 -270h-155l-15 -48l162 -32l-207 -611q-12 -37 -24.5 -80t-23.5 -83.5t-17 -74.5t-6 -50q0 -51 43 -52q39 0 90 26t107 69t111.5 99t102.5 116l-31 32 q-41 -41 -70.5 -69.5t-55 -50t-51 -39t-58.5 -33.5q0 63 49 215l189 598h401l47 -55l-229 -531q-10 -23 -22.5 -56.5t-24 -70.5t-19.5 -72.5t-8 -60.5q0 -41 27.5 -79t99.5 -38q78 0 154.5 49.5t147.5 123t135.5 160.5t117.5 165h4l-80 -201q-29 -74 -48 -142.5t-19 -102.5 q0 -51 43 -52q35 0 82 22.5t101 63.5t111.5 97.5t112.5 122.5l-31 32q-74 -78 -127 -119.5t-112 -66.5q0 29 11 86t32 113l243 690l-167 -10q-41 -160 -99.5 -303.5t-122.5 -231.5q-53 -72 -103 -135.5t-98 -110.5t-90 -73.5t-75 -26.5q-31 0 -50.5 16.5t-19.5 50.5 q0 33 16.5 75t32.5 85l267 654h-623z" />
<glyph unicode="t&#xf9;" horiz-adv-x="1665" d="M1151 1372q102 -74 198.5 -126t198.5 -93l23 31q-166 104 -316 270zM510 1004l82 270h-43l-197 -270h-155l-15 -48l162 -32l-207 -611q-12 -37 -24.5 -80t-23.5 -83.5t-17 -74.5t-6 -50q0 -51 43 -52q39 0 90 26t107 69t111.5 99t102.5 116l-31 32q-41 -41 -70.5 -69.5 t-55 -50t-51 -39t-58.5 -33.5q0 63 49 215l189 598h401l47 -55l-229 -531q-10 -23 -22.5 -56.5t-24 -70.5t-19.5 -72.5t-8 -60.5q0 -41 27.5 -79t99.5 -38q78 0 154.5 49.5t147.5 123t135.5 160.5t117.5 165h4l-80 -201q-29 -74 -48 -142.5t-19 -102.5q0 -51 43 -52 q35 0 82 22.5t101 63.5t111.5 97.5t112.5 122.5l-31 32q-74 -78 -127 -119.5t-112 -66.5q0 29 11 86t32 113l243 690l-167 -10q-41 -160 -99.5 -303.5t-122.5 -231.5q-53 -72 -103 -135.5t-98 -110.5t-90 -73.5t-75 -26.5q-31 0 -50.5 16.5t-19.5 50.5q0 33 16.5 75t32.5 85 l267 654h-623z" />
<glyph unicode="t&#xfb;" horiz-adv-x="1665" d="M1481 1452v2q-84 -84 -189.5 -148.5t-228.5 -121.5l22 -31q123 37 209 72t150 67q35 -35 81 -68.5t107 -70.5l23 31q-53 53 -97.5 127.5t-74.5 142.5zM510 1004l82 270h-43l-197 -270h-155l-15 -48l162 -32l-207 -611q-12 -37 -24.5 -80t-23.5 -83.5t-17 -74.5t-6 -50 q0 -51 43 -52q39 0 90 26t107 69t111.5 99t102.5 116l-31 32q-41 -41 -70.5 -69.5t-55 -50t-51 -39t-58.5 -33.5q0 63 49 215l189 598h401l47 -55l-229 -531q-10 -23 -22.5 -56.5t-24 -70.5t-19.5 -72.5t-8 -60.5q0 -41 27.5 -79t99.5 -38q78 0 154.5 49.5t147.5 123 t135.5 160.5t117.5 165h4l-80 -201q-29 -74 -48 -142.5t-19 -102.5q0 -51 43 -52q35 0 82 22.5t101 63.5t111.5 97.5t112.5 122.5l-31 32q-74 -78 -127 -119.5t-112 -66.5q0 29 11 86t32 113l243 690l-167 -10q-41 -160 -99.5 -303.5t-122.5 -231.5q-53 -72 -103 -135.5 t-98 -110.5t-90 -73.5t-75 -26.5q-31 0 -50.5 16.5t-19.5 50.5q0 33 16.5 75t32.5 85l267 654h-623z" />
<glyph unicode="t&#xfc;" horiz-adv-x="1665" d="M1286 1329q0 53 -36 89t-89 36t-89 -36t-36 -89t36 -89t89 -36t89 36t36 89zM1712 1329q0 53 -36 89t-89 36t-89 -36t-36 -89t36 -89t89 -36t89 36t36 89zM510 1004l82 270h-43l-197 -270h-155l-15 -48l162 -32l-207 -611q-12 -37 -24.5 -80t-23.5 -83.5t-17 -74.5 t-6 -50q0 -51 43 -52q39 0 90 26t107 69t111.5 99t102.5 116l-31 32q-41 -41 -70.5 -69.5t-55 -50t-51 -39t-58.5 -33.5q0 63 49 215l189 598h401l47 -55l-229 -531q-10 -23 -22.5 -56.5t-24 -70.5t-19.5 -72.5t-8 -60.5q0 -41 27.5 -79t99.5 -38q78 0 154.5 49.5t147.5 123 t135.5 160.5t117.5 165h4l-80 -201q-29 -74 -48 -142.5t-19 -102.5q0 -51 43 -52q35 0 82 22.5t101 63.5t111.5 97.5t112.5 122.5l-31 32q-74 -78 -127 -119.5t-112 -66.5q0 29 11 86t32 113l243 690l-167 -10q-41 -160 -99.5 -303.5t-122.5 -231.5q-53 -72 -103 -135.5 t-98 -110.5t-90 -73.5t-75 -26.5q-31 0 -50.5 16.5t-19.5 50.5q0 33 16.5 75t32.5 85l267 654h-623z" />
<glyph unicode="tt&#xfa;" horiz-adv-x="2242" d="M2159 1454q-102 -86 -215 -151.5t-244 -118.5l22 -31q133 41 261 91t280 128zM1087 1004l82 270h-43l-196 -270h-420l82 270h-43l-197 -270h-155l-15 -48l162 -32l-207 -611q-12 -37 -24.5 -80t-23.5 -83.5t-17 -74.5t-6 -50q0 -51 43 -52q39 0 90 26t107 69t111.5 99 t102.5 116l-31 32q-41 -41 -70.5 -69.5t-55 -50t-51 -39t-58.5 -33.5q0 63 49 215l189 598h436l-213 -623q-12 -37 -24.5 -80t-24 -83.5t-17.5 -74.5t-6 -50q0 -51 43 -52q39 0 90 26t107.5 69t112 99t102.5 116l-31 32q-41 -41 -70.5 -69.5t-55.5 -50t-51.5 -39 t-58.5 -33.5q0 63 50 215l188 598h401l48 -55l-230 -531q-10 -23 -22.5 -56.5t-23.5 -70.5t-19.5 -72.5t-8.5 -60.5q0 -41 28 -79t99 -38q78 0 155 49.5t147.5 123t135 160.5t117.5 165h5l-80 -201q-29 -74 -48.5 -142.5t-19.5 -102.5q0 -51 43 -52q35 0 82 22.5t101.5 63.5 t111.5 97.5t113 122.5l-31 32q-74 -78 -127 -119.5t-113 -66.5q0 29 11.5 86t31.5 113l244 690l-168 -10q-41 -160 -99.5 -303.5t-121.5 -231.5q-53 -72 -103.5 -135.5t-98.5 -110.5t-90 -73.5t-75 -26.5q-31 0 -50 16.5t-19 50.5q0 33 16 75t33 85l266 654h-623z" />
<glyph unicode="tt&#xf9;" horiz-adv-x="2242" d="M1745 1372q102 -74 198.5 -126t198.5 -93l23 31q-166 104 -316 270zM1087 1004l82 270h-43l-196 -270h-420l82 270h-43l-197 -270h-155l-15 -48l162 -32l-207 -611q-12 -37 -24.5 -80t-23.5 -83.5t-17 -74.5t-6 -50q0 -51 43 -52q39 0 90 26t107 69t111.5 99t102.5 116 l-31 32q-41 -41 -70.5 -69.5t-55 -50t-51 -39t-58.5 -33.5q0 63 49 215l189 598h436l-213 -623q-12 -37 -24.5 -80t-24 -83.5t-17.5 -74.5t-6 -50q0 -51 43 -52q39 0 90 26t107.5 69t112 99t102.5 116l-31 32q-41 -41 -70.5 -69.5t-55.5 -50t-51.5 -39t-58.5 -33.5 q0 63 50 215l188 598h401l48 -55l-230 -531q-10 -23 -22.5 -56.5t-23.5 -70.5t-19.5 -72.5t-8.5 -60.5q0 -41 28 -79t99 -38q78 0 155 49.5t147.5 123t135 160.5t117.5 165h5l-80 -201q-29 -74 -48.5 -142.5t-19.5 -102.5q0 -51 43 -52q35 0 82 22.5t101.5 63.5t111.5 97.5 t113 122.5l-31 32q-74 -78 -127 -119.5t-113 -66.5q0 29 11.5 86t31.5 113l244 690l-168 -10q-41 -160 -99.5 -303.5t-121.5 -231.5q-53 -72 -103.5 -135.5t-98.5 -110.5t-90 -73.5t-75 -26.5q-31 0 -50 16.5t-19 50.5q0 33 16 75t33 85l266 654h-623z" />
<glyph unicode="tt&#xfb;" horiz-adv-x="2242" d="M2095 1452v2q-84 -84 -189.5 -148.5t-228.5 -121.5l23 -31q123 37 209 72t149 67q35 -35 81 -68.5t108 -70.5l22 31q-53 53 -97 127.5t-75 142.5zM1087 1004l82 270h-43l-196 -270h-420l82 270h-43l-197 -270h-155l-15 -48l162 -32l-207 -611q-12 -37 -24.5 -80 t-23.5 -83.5t-17 -74.5t-6 -50q0 -51 43 -52q39 0 90 26t107 69t111.5 99t102.5 116l-31 32q-41 -41 -70.5 -69.5t-55 -50t-51 -39t-58.5 -33.5q0 63 49 215l189 598h436l-213 -623q-12 -37 -24.5 -80t-24 -83.5t-17.5 -74.5t-6 -50q0 -51 43 -52q39 0 90 26t107.5 69 t112 99t102.5 116l-31 32q-41 -41 -70.5 -69.5t-55.5 -50t-51.5 -39t-58.5 -33.5q0 63 50 215l188 598h401l48 -55l-230 -531q-10 -23 -22.5 -56.5t-23.5 -70.5t-19.5 -72.5t-8.5 -60.5q0 -41 28 -79t99 -38q78 0 155 49.5t147.5 123t135 160.5t117.5 165h5l-80 -201 q-29 -74 -48.5 -142.5t-19.5 -102.5q0 -51 43 -52q35 0 82 22.5t101.5 63.5t111.5 97.5t113 122.5l-31 32q-74 -78 -127 -119.5t-113 -66.5q0 29 11.5 86t31.5 113l244 690l-168 -10q-41 -160 -99.5 -303.5t-121.5 -231.5q-53 -72 -103.5 -135.5t-98.5 -110.5t-90 -73.5 t-75 -26.5q-31 0 -50 16.5t-19 50.5q0 33 16 75t33 85l266 654h-623z" />
<glyph unicode="tt&#xfc;" horiz-adv-x="2242" d="M1880 1329q0 53 -36 89t-89 36t-89 -36t-36 -89t36 -89t89 -36t89 36t36 89zM2306 1329q0 53 -36 89t-89 36t-89 -36t-36 -89t36 -89t89 -36t89 36t36 89zM1087 1004l82 270h-43l-196 -270h-420l82 270h-43l-197 -270h-155l-15 -48l162 -32l-207 -611q-12 -37 -24.5 -80 t-23.5 -83.5t-17 -74.5t-6 -50q0 -51 43 -52q39 0 90 26t107 69t111.5 99t102.5 116l-31 32q-41 -41 -70.5 -69.5t-55 -50t-51 -39t-58.5 -33.5q0 63 49 215l189 598h436l-213 -623q-12 -37 -24.5 -80t-24 -83.5t-17.5 -74.5t-6 -50q0 -51 43 -52q39 0 90 26t107.5 69 t112 99t102.5 116l-31 32q-41 -41 -70.5 -69.5t-55.5 -50t-51.5 -39t-58.5 -33.5q0 63 50 215l188 598h401l48 -55l-230 -531q-10 -23 -22.5 -56.5t-23.5 -70.5t-19.5 -72.5t-8.5 -60.5q0 -41 28 -79t99 -38q78 0 155 49.5t147.5 123t135 160.5t117.5 165h5l-80 -201 q-29 -74 -48.5 -142.5t-19.5 -102.5q0 -51 43 -52q35 0 82 22.5t101.5 63.5t111.5 97.5t113 122.5l-31 32q-74 -78 -127 -119.5t-113 -66.5q0 29 11.5 86t31.5 113l244 690l-168 -10q-41 -160 -99.5 -303.5t-121.5 -231.5q-53 -72 -103.5 -135.5t-98.5 -110.5t-90 -73.5 t-75 -26.5q-31 0 -50 16.5t-19 50.5q0 33 16 75t33 85l266 654h-623z" />
<glyph unicode="gfl" horiz-adv-x="1966" d="M573 -72q0 -63 -36.5 -110t-92 -79t-122 -47.5t-125.5 -15.5q-31 0 -61 6.5t-53.5 18.5t-38.5 32.5t-15 49.5q0 82 37.5 127t97.5 90h323q49 0 67.5 -23.5t18.5 -48.5zM344 530q0 80 24.5 158t64.5 141.5t90 102.5t100 39q49 0 75.5 -45t26.5 -125q0 -57 -24.5 -129 t-64.5 -135.5t-91 -106.5t-107 -43q-41 0 -67.5 41t-26.5 102zM891 840q0 53 -17 96h316l-258 -963q-45 -166 -98.5 -245.5t-128.5 -79.5q-25 0 -43.5 13t-32 33.5t-20.5 44t-7 44.5v16q55 55 89 114.5t34 117.5q0 57 -29.5 91t-115.5 34h-306q-53 0 -86.5 9t-33.5 38 q0 23 20.5 56.5t83.5 74.5q37 -18 100 -19q72 0 139.5 28t127 72t108.5 101t84 115.5t54.5 113t19.5 95.5zM1575 936l20 68h-229l27 92q31 102 61.5 163.5t62 94t64.5 43t68 10.5t61.5 -13.5t46 -35t32.5 -47t21 -49.5l-292 -1057q-31 -115 -31 -170q0 -29 14.5 -45.5 t34.5 -16.5q39 0 84 23.5t94 64.5t99.5 98.5t97.5 123.5l-35 32q-96 -127 -205 -192q-4 31 9.5 110.5t39.5 176.5l303 1065h-20l-105 -25q-27 14 -69.5 22.5t-110.5 8.5q-174 0 -302 -118t-206 -359h-395q-45 27 -117 26q-88 0 -182 -41t-172 -111.5t-128 -166t-50 -201.5 q0 -43 11 -82t40 -68l-104 -81q-18 -16 -41 -37t-42.5 -44.5t-31.5 -48t-12 -49.5q0 -49 36.5 -74.5t77.5 -25.5q-106 -76 -163.5 -149.5t-57.5 -147.5q0 -59 58.5 -94t181.5 -35q78 0 165 29.5t167 79.5q10 -18 31.5 -38t51 -36.5t66.5 -26.5t78 -10q154 0 260 146.5 t184 420.5l226 797h227z" />
<glyph unicode="gi" horiz-adv-x="1452" d="M1559 1329q0 53 -36 89t-89 36t-89 -36t-36 -89t35.5 -89t89.5 -36q53 0 89 36t36 89zM573 -72q0 -63 -36.5 -110t-92 -79t-122 -47.5t-125.5 -15.5q-31 0 -61 6.5t-53.5 18.5t-38.5 32.5t-15 49.5q0 82 37.5 127t97.5 90h323q49 0 67.5 -23.5t18.5 -48.5zM344 530 q0 80 24.5 158t64.5 141.5t90 102.5t100 39q49 0 75.5 -45t26.5 -125q0 -57 -24.5 -129t-64.5 -135.5t-91 -106.5t-107 -43q-41 0 -67.5 41t-26.5 102zM1032 283q-12 -37 -24.5 -76t-21.5 -74t-15 -63.5t-6 -44.5q0 -51 43 -52q39 0 85 23.5t95 64.5t99 98.5t97 123.5 l-36 32q-49 -66 -94.5 -111.5t-100.5 -80.5q0 29 11.5 84t37.5 131l232 666h-619q-45 27 -117 26q-88 0 -182 -41t-172 -111.5t-128 -166t-50 -201.5q0 -43 11 -82t40 -68l-104 -81q-18 -16 -41 -37t-42.5 -44.5t-31.5 -48t-12 -49.5q0 -49 36.5 -74.5t77.5 -25.5 q-106 -76 -163.5 -149.5t-57.5 -147.5q0 -59 58.5 -94t181.5 -35q92 0 198.5 42t197.5 108.5t150.5 147.5t59.5 159q0 57 -29.5 91t-115.5 34h-306q-53 0 -86.5 9t-33.5 38q0 23 20.5 56.5t83.5 74.5q37 -18 100 -19q72 0 139.5 28t127 72t108.5 101t84 115.5t54.5 113 t19.5 95.5q0 53 -17 96h310l55 -55z" />
<glyph unicode="gj" horiz-adv-x="1423" d="M1540 1329q0 53 -36 89t-89 36t-89 -36t-36 -89t36 -89t89 -36t89 36t36 89zM573 -72q0 -63 -36.5 -110t-92 -79t-122 -47.5t-125.5 -15.5q-31 0 -61 6.5t-53.5 18.5t-38.5 32.5t-15 49.5q0 82 37.5 127t97.5 90h323q49 0 67.5 -23.5t18.5 -48.5zM344 530q0 80 24.5 158 t64.5 141.5t90 102.5t100 39q49 0 75.5 -45t26.5 -125q0 -57 -24.5 -129t-64.5 -135.5t-91 -106.5t-107 -43q-41 0 -67.5 41t-26.5 102zM358 315q72 0 139.5 28t127 72t108.5 101t84 115.5t54.5 113t19.5 95.5q0 35 -6 55t-17 43h312l57 -64l-244 -901 q-45 -166 -104.5 -245.5t-151.5 -79.5q-86 0 -125 41t-34 88q66 59 106.5 124.5t40.5 129.5q0 57 -29.5 91t-115.5 34h-306q-53 0 -86.5 9t-33.5 38q0 23 20.5 56.5t83.5 74.5q37 -19 100 -19zM113 279q-18 -16 -41 -37t-42.5 -44.5t-31.5 -48t-12 -49.5q0 -49 36.5 -74.5 t77.5 -25.5q-106 -76 -163.5 -149.5t-57.5 -147.5q0 -59 58.5 -94t181.5 -35q72 0 150.5 25.5t154.5 66.5q16 -27 71.5 -59.5t166.5 -32.5q96 0 177 43t146.5 119t114.5 179t84 224l246 865h-615q-45 27 -117 26q-88 0 -182 -41t-172 -111.5t-128 -166t-50 -201.5 q0 -43 11 -82t40 -68z" />
<glyph unicode="gm" horiz-adv-x="2519" d="M573 -72q0 -63 -36.5 -110t-92 -79t-122 -47.5t-125.5 -15.5q-31 0 -61 6.5t-53.5 18.5t-38.5 32.5t-15 49.5q0 82 37.5 127t97.5 90h323q49 0 67.5 -23.5t18.5 -48.5zM344 530q0 80 24.5 158t64.5 141.5t90 102.5t100 39q49 0 75.5 -45t26.5 -125q0 -57 -24.5 -129 t-64.5 -135.5t-91 -106.5t-107 -43q-41 0 -67.5 41t-26.5 102zM113 279q-18 -16 -41 -37t-42.5 -44.5t-31.5 -48t-12 -49.5q0 -49 36.5 -74.5t77.5 -25.5q-106 -76 -163.5 -149.5t-57.5 -147.5q0 -59 58.5 -94t181.5 -35q92 0 198.5 42t197.5 108.5t150.5 147.5t59.5 159 q0 57 -29.5 91t-115.5 34h-306q-53 0 -86.5 9t-33.5 38q0 23 20.5 56.5t83.5 74.5q37 -18 100 -19q72 0 139.5 28t127 72t108.5 101t84 115.5t54.5 113t19.5 95.5q0 33 -6 53t-17 43h316l55 -55l-307 -881h155q47 174 106.5 311.5t125.5 223.5q49 68 101.5 130t101.5 110 t91 77t73 29q63 0 63 -68q0 -33 -12.5 -65.5t-22.5 -63.5l-250 -684h176q25 106 49.5 188t51 146.5t54.5 116t58 94.5q115 160 206 248t169 88q31 0 50.5 -16.5t19.5 -51.5q0 -16 -6 -37.5t-14.5 -44t-17.5 -43t-15 -35.5l-191 -383q-35 -72 -63.5 -141.5t-28.5 -103.5 q0 -51 43 -52q35 0 85 22.5t107.5 63.5t118 97.5t115.5 122.5l-31 32q-74 -78 -127 -119.5t-112 -66.5q0 29 16 79t45 103l211 408q27 53 42 99t15 93t-33.5 85t-105.5 38q-88 0 -168 -51t-151.5 -127t-133 -163t-112.5 -157h-4q37 86 63.5 151t43 112t24.5 80.5t8 56.5 q0 41 -23.5 69.5t-101.5 28.5q-74 0 -148.5 -51t-145 -127t-134 -163t-115.5 -157h-4l185 472h-619q-45 27 -117 26q-88 0 -182 -41t-172 -111.5t-128 -166t-50 -201.5q0 -43 11 -82t40 -68z" />
<glyph unicode="gn" horiz-adv-x="2017" d="M573 -72q0 -63 -36.5 -110t-92 -79t-122 -47.5t-125.5 -15.5q-31 0 -61 6.5t-53.5 18.5t-38.5 32.5t-15 49.5q0 82 37.5 127t97.5 90h323q49 0 67.5 -23.5t18.5 -48.5zM344 530q0 80 24.5 158t64.5 141.5t90 102.5t100 39q49 0 75.5 -45t26.5 -125q0 -57 -24.5 -129 t-64.5 -135.5t-91 -106.5t-107 -43q-41 0 -67.5 41t-26.5 102zM1726 881q31 0 50.5 -16.5t19.5 -51.5q0 -16 -6 -37.5t-14.5 -44t-17.5 -43t-15 -35.5l-191 -383q-35 -72 -63.5 -141.5t-28.5 -103.5q0 -51 43 -52q35 0 85 22.5t107.5 63.5t118 97.5t115.5 122.5l-31 32 q-74 -78 -127 -119.5t-112 -66.5q0 29 16.5 79t44.5 103l211 408q27 53 42.5 99t15.5 93t-34 85t-106 38q-78 0 -160.5 -49t-161.5 -123t-149.5 -161t-124.5 -165h-4q45 119 89 236t94 236h-617q-45 27 -117 26q-88 0 -182 -41t-172 -111.5t-128 -166t-50 -201.5 q0 -43 11 -82t40 -68l-104 -81q-18 -16 -41 -37t-42.5 -44.5t-31.5 -48t-12 -49.5q0 -49 36.5 -74.5t77.5 -25.5q-106 -76 -163.5 -149.5t-57.5 -147.5q0 -59 58.5 -94t181.5 -35q92 0 198.5 42t197.5 108.5t150.5 147.5t59.5 159q0 57 -29.5 91t-115.5 34h-306 q-53 0 -86.5 9t-33.5 38q0 23 20.5 56.5t83.5 74.5q37 -18 100 -19q72 0 139.5 28t127 72t108.5 101t84 115.5t54.5 113t19.5 95.5q0 53 -17 96h310l55 -55l-307 -881h155q33 100 61 180t55.5 144.5t56 116t59.5 94.5q51 72 105.5 135t107.5 110t102 74t92 27z" />
<glyph unicode="gr" horiz-adv-x="1654" d="M573 -72q0 -63 -36.5 -110t-92 -79t-122 -47.5t-125.5 -15.5q-31 0 -61 6.5t-53.5 18.5t-38.5 32.5t-15 49.5q0 82 37.5 127t97.5 90h323q49 0 67.5 -23.5t18.5 -48.5zM344 530q0 80 24.5 158t64.5 141.5t90 102.5t100 39q49 0 75.5 -45t26.5 -125q0 -57 -24.5 -129 t-64.5 -135.5t-91 -106.5t-107 -43q-41 0 -67.5 41t-26.5 102zM1604 838q29 0 52 -7.5t52 -25.5h6l84 176q-8 10 -29.5 27.5t-72.5 17.5q-61 0 -124 -50t-124.5 -127t-117.5 -169t-101 -174h-10l198 498h-602q-45 27 -117 26q-88 0 -182 -41t-172 -111.5t-128 -166 t-50 -201.5q0 -43 11 -82t40 -68l-104 -81q-18 -16 -41 -37t-42.5 -44.5t-31.5 -48t-12 -49.5q0 -49 36.5 -74.5t77.5 -25.5q-106 -76 -163.5 -149.5t-57.5 -147.5q0 -59 58.5 -94t181.5 -35q92 0 198.5 42t197.5 108.5t150.5 147.5t59.5 159q0 57 -29.5 91t-115.5 34h-306 q-53 0 -86.5 9t-33.5 38q0 23 20.5 56.5t83.5 74.5q37 -18 100 -19q72 0 139.5 28t127 72t108.5 101t84 115.5t54.5 113t19.5 95.5q0 53 -17 96h310l55 -55l-307 -881h155q23 88 58 184.5t78 189.5t91 177t98 147.5t99.5 101.5t92.5 38z" />
<glyph unicode="gt" horiz-adv-x="1519" d="M573 -72q0 -63 -36.5 -110t-92 -79t-122 -47.5t-125.5 -15.5q-31 0 -61 6.5t-53.5 18.5t-38.5 32.5t-15 49.5q0 82 37.5 127t97.5 90h323q49 0 67.5 -23.5t18.5 -48.5zM344 530q0 80 24.5 158t64.5 141.5t90 102.5t100 39q49 0 75.5 -45t26.5 -125q0 -57 -24.5 -129 t-64.5 -135.5t-91 -106.5t-107 -43q-41 0 -67.5 41t-26.5 102zM1051 313q-12 -37 -24.5 -80t-24 -83.5t-17.5 -74.5t-6 -50q0 -51 43 -52q39 0 90 26t107.5 69t111.5 99t103 116l-31 32q-41 -41 -70.5 -69.5t-55.5 -50t-51.5 -39t-58.5 -33.5q0 63 50 215l188 598h219l21 68 h-222l82 270h-43l-196 -270h-451q-45 27 -117 26q-88 0 -182 -41t-172 -111.5t-128 -166t-50 -201.5q0 -43 11 -82t40 -68l-104 -81q-18 -16 -41 -37t-42.5 -44.5t-31.5 -48t-12 -49.5q0 -49 36.5 -74.5t77.5 -25.5q-106 -76 -163.5 -149.5t-57.5 -147.5q0 -59 58.5 -94 t181.5 -35q92 0 198.5 42t197.5 108.5t150.5 147.5t59.5 159q0 57 -29.5 91t-115.5 34h-306q-53 0 -86.5 9t-33.5 38q0 23 20.5 56.5t83.5 74.5q37 -18 100 -19q72 0 139.5 28t127 72t108.5 101t84 115.5t54.5 113t19.5 95.5q0 53 -17 96h379z" />
<glyph unicode="gu" horiz-adv-x="1980" d="M573 -72q0 -63 -36.5 -110t-92 -79t-122 -47.5t-125.5 -15.5q-31 0 -61 6.5t-53.5 18.5t-38.5 32.5t-15 49.5q0 82 37.5 127t97.5 90h323q49 0 67.5 -23.5t18.5 -48.5zM344 530q0 80 24.5 158t64.5 141.5t90 102.5t100 39q49 0 75.5 -45t26.5 -125q0 -57 -24.5 -129 t-64.5 -135.5t-91 -106.5t-107 -43q-41 0 -67.5 41t-26.5 102zM815 1004q-45 27 -117 26q-88 0 -182 -41t-172 -111.5t-128 -166t-50 -201.5q0 -43 11 -82t40 -68l-104 -81q-18 -16 -41 -37t-42.5 -44.5t-31.5 -48t-12 -49.5q0 -49 36.5 -74.5t77.5 -25.5 q-106 -76 -163.5 -149.5t-57.5 -147.5q0 -59 58.5 -94t181.5 -35q92 0 198.5 42t197.5 108.5t150.5 147.5t59.5 159q0 57 -29.5 91t-115.5 34h-306q-53 0 -86.5 9t-33.5 38q0 23 20.5 56.5t83.5 74.5q37 -18 100 -19q72 0 139.5 28t127 72t108.5 101t84 115.5t54.5 113 t19.5 95.5q0 53 -17 96h326l55 -55l-229 -531q-10 -23 -22.5 -56.5t-23.5 -70.5t-19.5 -72.5t-8.5 -60.5q0 -41 28 -79t99 -38q78 0 155 49.5t147.5 123t135 160.5t117.5 165h4l-79 -201q-29 -74 -48.5 -142.5t-19.5 -102.5q0 -51 43 -52q35 0 82 22.5t101.5 63.5 t111.5 97.5t113 122.5l-31 32q-74 -78 -127 -119.5t-113 -66.5q0 29 11.5 86t31.5 113l244 690l-168 -10q-41 -160 -99.5 -303.5t-121.5 -231.5q-53 -72 -103.5 -135.5t-98.5 -110.5t-90 -73.5t-75 -26.5q-31 0 -50 16.5t-19 50.5q0 33 16 75t33 85l266 654h-633z" />
<glyph unicode="gv" horiz-adv-x="1714" d="M573 -72q0 -63 -36.5 -110t-92 -79t-122 -47.5t-125.5 -15.5q-31 0 -61 6.5t-53.5 18.5t-38.5 32.5t-15 49.5q0 82 37.5 127t97.5 90h323q49 0 67.5 -23.5t18.5 -48.5zM344 530q0 80 24.5 158t64.5 141.5t90 102.5t100 39q49 0 75.5 -45t26.5 -125q0 -57 -24.5 -129 t-64.5 -135.5t-91 -106.5t-107 -43q-41 0 -67.5 41t-26.5 102zM1612 780q0 -109 -110.5 -252t-301.5 -354h-4l109 830h-490q-45 27 -117 26q-88 0 -182 -41t-172 -111.5t-128 -166t-50 -201.5q0 -43 11 -82t40 -68l-104 -81q-18 -16 -41 -37t-42.5 -44.5t-31.5 -48 t-12 -49.5q0 -49 36.5 -74.5t77.5 -25.5q-106 -76 -163.5 -149.5t-57.5 -147.5q0 -59 58.5 -94t181.5 -35q92 0 198.5 42t197.5 108.5t150.5 147.5t59.5 159q0 57 -29.5 91t-115.5 34h-306q-53 0 -86.5 9t-33.5 38q0 23 20.5 56.5t83.5 74.5q37 -18 100 -19q72 0 139.5 28 t127 72t108.5 101t84 115.5t54.5 113t19.5 95.5q0 53 -17 96h197l59 -55l-102 -901h51q154 158 282 292t218 247.5t140 207.5t50 172q0 72 -35.5 101.5t-78.5 29.5t-69.5 -6t-55.5 -20l-23 -156h39q25 0 45.5 -16.5t20.5 -51.5z" />
<glyph unicode="gw" horiz-adv-x="2146" d="M573 -72q0 -63 -36.5 -110t-92 -79t-122 -47.5t-125.5 -15.5q-31 0 -61 6.5t-53.5 18.5t-38.5 32.5t-15 49.5q0 82 37.5 127t97.5 90h323q49 0 67.5 -23.5t18.5 -48.5zM344 530q0 80 24.5 158t64.5 141.5t90 102.5t100 39q49 0 75.5 -45t26.5 -125q0 -57 -24.5 -129 t-64.5 -135.5t-91 -106.5t-107 -43q-41 0 -67.5 41t-26.5 102zM2044 780q0 -109 -110.5 -252t-301.5 -354h-4l68 512q35 59 54 112.5t19 100.5q0 72 -35.5 101.5t-78.5 29.5q-27 0 -43.5 -3t-32.5 -9l-53 -453q-53 -80 -135 -175t-191 -216h-4l109 830h-490q-45 27 -117 26 q-88 0 -182 -41t-172 -111.5t-128 -166t-50 -201.5q0 -43 11 -82t40 -68l-104 -81q-18 -16 -41 -37t-42.5 -44.5t-31.5 -48t-12 -49.5q0 -49 36.5 -74.5t77.5 -25.5q-106 -76 -163.5 -149.5t-57.5 -147.5q0 -59 58.5 -94t181.5 -35q92 0 198.5 42t197.5 108.5t150.5 147.5 t59.5 159q0 57 -29.5 91t-115.5 34h-306q-53 0 -86.5 9t-33.5 38q0 23 20.5 56.5t83.5 74.5q37 -18 100 -19q72 0 139.5 28t127 72t108.5 101t84 115.5t54.5 113t19.5 95.5q0 53 -17 96h197l59 -55l-102 -901h51q129 131 237.5 245.5t194.5 214.5l-51 -460h51 q154 158 282 292t218 247.5t140.5 207.5t50.5 172q0 72 -36 101.5t-79 29.5t-69.5 -6t-55.5 -20l-23 -156h39q25 0 45.5 -16.5t20.5 -51.5z" />
<glyph unicode="gy" horiz-adv-x="1789" d="M573 -72q0 -63 -36.5 -110t-92 -79t-122 -47.5t-125.5 -15.5q-31 0 -61 6.5t-53.5 18.5t-38.5 32.5t-15 49.5q0 82 37.5 127t97.5 90h323q49 0 67.5 -23.5t18.5 -48.5zM344 530q0 80 24.5 158t64.5 141.5t90 102.5t100 39q49 0 75.5 -45t26.5 -125q0 -57 -24.5 -129 t-64.5 -135.5t-91 -106.5t-107 -43q-41 0 -67.5 41t-26.5 102zM770 -266q-51 0 -93 16.5t-59 65.5q47 53 77 107t30 108q0 57 -29.5 91t-115.5 34h-306q-53 0 -86.5 9t-33.5 38q0 23 20.5 56.5t83.5 74.5q37 -18 100 -19q72 0 139.5 28t127 72t108.5 101t84 115.5t54.5 113 t19.5 95.5q0 53 -17 96h244l60 -55q-20 -166 -41 -324t-42.5 -291t-46 -232.5t-53.5 -148.5q-41 -72 -97 -111.5t-128 -39.5zM166 510q0 -43 11 -82t40 -68l-104 -81q-18 -16 -41 -37t-42.5 -44.5t-31.5 -48t-12 -49.5q0 -49 36.5 -74.5t77.5 -25.5q-106 -76 -163.5 -149.5 t-57.5 -147.5q0 -59 58.5 -94t181.5 -35q84 0 176 34t178 89q16 -39 64.5 -67.5t105.5 -28.5q61 0 117.5 18.5t120 61.5t141.5 115.5t182 183.5q307 322 466 551t159 368q0 70 -42 100.5t-85 30.5t-73 -8t-52 -18l-23 -156h54q33 0 52 -16.5t19 -51.5q0 -84 -115.5 -267 t-377.5 -480h-4q18 53 33.5 116.5t34 170t43 269.5t59.5 415h-537q-45 27 -117 26q-88 0 -182 -41t-172 -111.5t-128 -166t-50 -201.5z" />
<glyph unicode="ti" horiz-adv-x="1136" d="M1243 1329q0 53 -36 89t-89 36t-89 -36t-36 -89t36 -89t89 -36t89 36t36 89zM717 283q-12 -37 -24.5 -76t-21.5 -74t-15.5 -63.5t-6.5 -44.5q0 -51 43 -52q39 0 85 23.5t95.5 64.5t99.5 98.5t97 123.5l-37 32q-49 -66 -94 -111.5t-100 -80.5q0 29 11 84t38 131l229 666 h-606l82 270h-43l-197 -270h-155l-15 -48l162 -32l-207 -611q-12 -37 -24.5 -80t-23.5 -83.5t-17 -74.5t-6 -50q0 -51 43 -52q39 0 90 26t107 69t111.5 99t102.5 116l-31 32q-41 -41 -70.5 -69.5t-55 -50t-51 -39t-58.5 -33.5q0 63 49 215l189 598h385l47 -55z" />
<glyph unicode="tti" horiz-adv-x="1714" d="M1821 1329q0 53 -36 89t-89 36t-89 -36t-36 -89t35.5 -89t89.5 -36q53 0 89 36t36 89zM1294 283q-12 -37 -24.5 -76t-21.5 -74t-15 -63.5t-6 -44.5q0 -51 43 -52q39 0 85 23.5t95 64.5t99 98.5t98 123.5l-37 32q-49 -66 -94.5 -111.5t-100.5 -80.5q0 29 11.5 84t37.5 131 l230 666h-607l82 270h-43l-196 -270h-420l82 270h-43l-197 -270h-155l-15 -48l162 -32l-207 -611q-12 -37 -24.5 -80t-23.5 -83.5t-17 -74.5t-6 -50q0 -51 43 -52q39 0 90 26t107 69t111.5 99t102.5 116l-31 32q-41 -41 -70.5 -69.5t-55 -50t-51 -39t-58.5 -33.5 q0 63 49 215l189 598h436l-213 -623q-12 -37 -24.5 -80t-24 -83.5t-17.5 -74.5t-6 -50q0 -51 43 -52q39 0 90 26t107.5 69t112 99t102.5 116l-31 32q-41 -41 -70.5 -69.5t-55.5 -50t-51.5 -39t-58.5 -33.5q0 63 50 215l188 598h385l47 -55z" />
<glyph unicode="tj" horiz-adv-x="1110" d="M1225 1329q0 53 -36 89t-89 36t-89 -36t-36 -89t36 -89t89 -36t89 36t36 89zM510 1004l82 270h-43l-197 -270h-155l-15 -48l162 -32l-207 -611q-12 -37 -24.5 -80t-23.5 -83.5t-17 -74.5t-6 -50q0 -51 43 -52q39 0 90 26t107 69t111.5 99t102.5 116l-31 32 q-41 -41 -70.5 -69.5t-55 -50t-51 -39t-58.5 -33.5q0 63 49 215l189 598h380l50 -62l-244 -901q-45 -166 -94 -245.5t-97 -79.5q-47 0 -65.5 29.5t-18.5 80.5v29h-147q-14 -10 -25.5 -33.5t-11.5 -58.5q0 -51 43 -86t141 -35q84 0 154 43t128 119t103.5 179t79.5 224 l246 865h-604z" />
<glyph unicode="tm" horiz-adv-x="2203" d="M1913 881q31 0 50 -16.5t19 -51.5q0 -16 -6 -37.5t-14 -44t-17.5 -43t-15.5 -35.5l-190 -383q-35 -72 -63.5 -141.5t-28.5 -103.5q0 -51 43 -52q35 0 85 22.5t107 63.5t117.5 97.5t116.5 122.5l-31 32q-74 -78 -127 -119.5t-113 -66.5q0 29 16.5 79t45.5 103l211 408 q27 53 42 99t15 93t-34 85t-105 38q-88 0 -168 -51t-151.5 -127t-133 -163t-113.5 -157h-4q37 86 63.5 151t43 112t25 80.5t8.5 56.5q0 41 -23.5 69.5t-101.5 28.5q-74 0 -149 -51t-145.5 -127t-134 -163t-114.5 -157h-4l182 472h-606l82 270h-43l-197 -270h-155l-15 -48 l162 -32l-207 -611q-12 -37 -24.5 -80t-23.5 -83.5t-17 -74.5t-6 -50q0 -51 43 -52q39 0 90 26t107 69t111.5 99t102.5 116l-31 32q-41 -41 -70.5 -69.5t-55 -50t-51 -39t-58.5 -33.5q0 63 49 215l189 598h385l47 -55l-308 -881h156q47 174 106.5 311.5t125.5 223.5 q49 68 101 130t101 110t91 77t73 29q63 0 64 -68q0 -33 -12.5 -65.5t-22.5 -63.5l-250 -684h176q25 106 49.5 188t51 146.5t54 116t58.5 94.5q115 160 206 248t169 88z" />
<glyph unicode="ttm" horiz-adv-x="2781" d="M2490 881q31 0 50.5 -16.5t19.5 -51.5q0 -16 -6 -37.5t-14.5 -44t-17.5 -43t-15 -35.5l-191 -383q-35 -72 -63.5 -141.5t-28.5 -103.5q0 -51 43 -52q35 0 85 22.5t107.5 63.5t118 97.5t115.5 122.5l-31 32q-74 -78 -127 -119.5t-112 -66.5q0 29 16.5 79t44.5 103l211 408 q27 53 42.5 99t15.5 93t-34 85t-106 38q-88 0 -168 -51t-151.5 -127t-133 -163t-112.5 -157h-4q37 86 63.5 151t43 112t24.5 80.5t8 56.5q0 41 -23.5 69.5t-101.5 28.5q-74 0 -148.5 -51t-145 -127t-134 -163t-114.5 -157h-5l183 472h-607l82 270h-43l-196 -270h-420l82 270 h-43l-197 -270h-155l-15 -48l162 -32l-207 -611q-12 -37 -24.5 -80t-23.5 -83.5t-17 -74.5t-6 -50q0 -51 43 -52q39 0 90 26t107 69t111.5 99t102.5 116l-31 32q-41 -41 -70.5 -69.5t-55 -50t-51 -39t-58.5 -33.5q0 63 49 215l189 598h436l-213 -623q-12 -37 -24.5 -80 t-24 -83.5t-17.5 -74.5t-6 -50q0 -51 43 -52q39 0 90 26t107.5 69t112 99t102.5 116l-31 32q-41 -41 -70.5 -69.5t-55.5 -50t-51.5 -39t-58.5 -33.5q0 63 50 215l188 598h385l47 -55l-307 -881h156q47 174 106.5 311.5t124.5 223.5q49 68 101.5 130t101.5 110t91 77t73 29 q63 0 63 -68q0 -33 -12 -65.5t-23 -63.5l-250 -684h177q25 106 49 188t51 146.5t54.5 116t58.5 94.5q115 160 205.5 248t168.5 88z" />
<glyph unicode="ttn" horiz-adv-x="2279" d="M1989 881q31 0 50 -16.5t19 -51.5q0 -16 -6 -37.5t-14 -44t-17.5 -43t-15.5 -35.5l-190 -383q-35 -72 -64 -141.5t-29 -103.5q0 -51 43 -52q35 0 85.5 22.5t107.5 63.5t117.5 97.5t115.5 122.5l-30 32q-74 -78 -127.5 -119.5t-112.5 -66.5q0 29 16.5 79t44.5 103l211 408 q27 53 42.5 99t15.5 93t-34 85t-106 38q-78 0 -160.5 -49t-161.5 -123t-149.5 -161t-123.5 -165h-5l183 472h-607l82 270h-43l-196 -270h-420l82 270h-43l-197 -270h-155l-15 -48l162 -32l-207 -611q-12 -37 -24.5 -80t-23.5 -83.5t-17 -74.5t-6 -50q0 -51 43 -52 q39 0 90 26t107 69t111.5 99t102.5 116l-31 32q-41 -41 -70.5 -69.5t-55 -50t-51 -39t-58.5 -33.5q0 63 49 215l189 598h436l-213 -623q-12 -37 -24.5 -80t-24 -83.5t-17.5 -74.5t-6 -50q0 -51 43 -52q39 0 90 26t107.5 69t112 99t102.5 116l-31 32q-41 -41 -70.5 -69.5 t-55.5 -50t-51.5 -39t-58.5 -33.5q0 63 50 215l188 598h385l47 -55l-307 -881h156q33 100 60.5 180t55 144.5t56 116t59.5 94.5q51 72 105.5 135t107.5 110t102.5 74t92.5 27z" />
<glyph unicode="tp" horiz-adv-x="1550" d="M1395 756q0 -86 -33 -200t-88 -214t-130 -170t-157 -70q-35 0 -60.5 10.5t-43.5 22.5q-23 14 -37 35q33 115 94 240t130 229t134.5 173t106.5 69q43 0 63.5 -34t20.5 -91zM1092 1004h-582l82 270h-43l-197 -270h-155l-15 -48l162 -32l-207 -611q-12 -37 -24.5 -80 t-23.5 -83.5t-17 -74.5t-6 -50q0 -51 43 -52q39 0 90 26t107 69t111.5 99t102.5 116l-31 32q-41 -41 -70.5 -69.5t-55 -50t-51 -39t-58.5 -33.5q0 63 49 215l189 598h370l47 -55l-327 -1157l-60 -66h-145l-19 -57h541l19 57h-130l-57 66l72 260q31 -10 63 -11q76 0 157 42 t159 112t148.5 160t123.5 189t84 199.5t31 188.5q0 86 -33 126t-94 40q-70 0 -136.5 -44t-131 -115.5t-124 -162t-114.5 -180.5h-6z" />
<glyph unicode="ttp" horiz-adv-x="2127" d="M1972 756q0 -86 -32.5 -200t-88 -214t-130 -170t-156.5 -70q-35 0 -60.5 10.5t-44.5 22.5q-23 14 -37 35q33 115 94.5 240t130 229t134 173t106.5 69q43 0 63.5 -34t20.5 -91zM1669 1004h-582l82 270h-43l-196 -270h-420l82 270h-43l-197 -270h-155l-15 -48l162 -32 l-207 -611q-12 -37 -24.5 -80t-23.5 -83.5t-17 -74.5t-6 -50q0 -51 43 -52q39 0 90 26t107 69t111.5 99t102.5 116l-31 32q-41 -41 -70.5 -69.5t-55 -50t-51 -39t-58.5 -33.5q0 63 49 215l189 598h436l-213 -623q-12 -37 -24.5 -80t-24 -83.5t-17.5 -74.5t-6 -50 q0 -51 43 -52q39 0 90 26t107.5 69t112 99t102.5 116l-31 32q-41 -41 -70.5 -69.5t-55.5 -50t-51.5 -39t-58.5 -33.5q0 63 50 215l188 598h371l47 -55l-328 -1157l-59 -66h-146l-18 -57h541l18 57h-129l-57 66l71 260q31 -10 64 -11q76 0 156.5 42t158.5 112t148.5 160 t124 189t84 199.5t30.5 188.5q0 86 -32.5 126t-94.5 40q-70 0 -136 -44t-130.5 -115.5t-124 -162t-115.5 -180.5h-6z" />
<glyph unicode="tn" horiz-adv-x="1701" d="M1411 881q31 0 50.5 -16.5t19.5 -51.5q0 -16 -6.5 -37.5t-14.5 -44t-17 -43t-16 -35.5l-190 -383q-35 -72 -63.5 -141.5t-28.5 -103.5q0 -51 43 -52q35 0 85 22.5t107.5 63.5t118 97.5t115.5 122.5l-31 32q-74 -78 -127 -119.5t-113 -66.5q0 29 16.5 79t45.5 103l211 408 q27 53 42 99t15 93t-33.5 85t-105.5 38q-78 0 -161 -49t-161.5 -123t-149.5 -161t-124 -165h-4l182 472h-606l82 270h-43l-197 -270h-155l-15 -48l162 -32l-207 -611q-12 -37 -24.5 -80t-23.5 -83.5t-17 -74.5t-6 -50q0 -51 43 -52q39 0 90 26t107 69t111.5 99t102.5 116 l-31 32q-41 -41 -70.5 -69.5t-55 -50t-51 -39t-58.5 -33.5q0 63 49 215l189 598h385l47 -55l-308 -881h156q33 100 60.5 180t55 144.5t56.5 116t60 94.5q51 72 105 135t107.5 110t102.5 74t92 27z" />
<glyph unicode="tr" horiz-adv-x="1339" d="M1288 838q29 0 52.5 -7.5t52.5 -25.5h6l84 176q-8 10 -29.5 27.5t-73.5 17.5q-61 0 -123.5 -50t-124 -127t-118 -169t-101.5 -174h-10l197 498h-590l82 270h-43l-197 -270h-155l-15 -48l162 -32l-207 -611q-12 -37 -24.5 -80t-23.5 -83.5t-17 -74.5t-6 -50q0 -51 43 -52 q39 0 90 26t107 69t111.5 99t102.5 116l-31 32q-41 -41 -70.5 -69.5t-55 -50t-51 -39t-58.5 -33.5q0 63 49 215l189 598h385l47 -55l-308 -881h156q23 88 57.5 184.5t77.5 189.5t91.5 177t98.5 147.5t98 101.5t93 38z" />
<glyph unicode="ttr" horiz-adv-x="1916" d="M1866 838q29 0 52.5 -7.5t51.5 -25.5h6l84 176q-8 10 -29.5 27.5t-72.5 17.5q-61 0 -123.5 -50t-124 -127t-118 -169t-101.5 -174h-10l196 498h-590l82 270h-43l-196 -270h-420l82 270h-43l-197 -270h-155l-15 -48l162 -32l-207 -611q-12 -37 -24.5 -80t-23.5 -83.5 t-17 -74.5t-6 -50q0 -51 43 -52q39 0 90 26t107 69t111.5 99t102.5 116l-31 32q-41 -41 -70.5 -69.5t-55 -50t-51 -39t-58.5 -33.5q0 63 49 215l189 598h436l-213 -623q-12 -37 -24.5 -80t-24 -83.5t-17.5 -74.5t-6 -50q0 -51 43 -52q39 0 90 26t107.5 69t112 99t102.5 116 l-31 32q-41 -41 -70.5 -69.5t-55.5 -50t-51.5 -39t-58.5 -33.5q0 63 50 215l188 598h385l47 -55l-307 -881h156q23 88 57.5 184.5t77.5 189.5t91 177t98 147.5t98.5 101.5t93.5 38z" />
<glyph unicode="tt" horiz-adv-x="1183" d="M137 313q-12 -37 -24.5 -80t-23.5 -83.5t-17 -74.5t-6 -50q0 -51 43 -52q39 0 90 26t107 69t111.5 99t102.5 116l-31 32q-41 -41 -70.5 -69.5t-55 -50t-51 -39t-58.5 -33.5q0 63 49 215l189 598h436l-213 -623q-12 -37 -24.5 -80t-24 -83.5t-17.5 -74.5t-6 -50 q0 -51 43 -52q39 0 90 26t107.5 69t112 99t102.5 116l-31 32q-41 -41 -70.5 -69.5t-55.5 -50t-51.5 -39t-58.5 -33.5q0 63 50 215l188 598h219l21 68h-222l82 270h-43l-196 -270h-420l82 270h-43l-197 -270h-155l-15 -48l162 -32z" />
<glyph unicode="tu" horiz-adv-x="1665" d="M510 1004l82 270h-43l-197 -270h-155l-15 -48l162 -32l-207 -611q-12 -37 -24.5 -80t-23.5 -83.5t-17 -74.5t-6 -50q0 -51 43 -52q39 0 90 26t107 69t111.5 99t102.5 116l-31 32q-41 -41 -70.5 -69.5t-55 -50t-51 -39t-58.5 -33.5q0 63 49 215l189 598h401l47 -55 l-229 -531q-10 -23 -22.5 -56.5t-24 -70.5t-19.5 -72.5t-8 -60.5q0 -41 27.5 -79t99.5 -38q78 0 154.5 49.5t147.5 123t135.5 160.5t117.5 165h4l-80 -201q-29 -74 -48 -142.5t-19 -102.5q0 -51 43 -52q35 0 82 22.5t101 63.5t111.5 97.5t112.5 122.5l-31 32 q-74 -78 -127 -119.5t-112 -66.5q0 29 11 86t32 113l243 690l-167 -10q-41 -160 -99.5 -303.5t-122.5 -231.5q-53 -72 -103 -135.5t-98 -110.5t-90 -73.5t-75 -26.5q-31 0 -50.5 16.5t-19.5 50.5q0 33 16.5 75t32.5 85l267 654h-623z" />
<glyph unicode="ttu" horiz-adv-x="2242" d="M1087 1004l82 270h-43l-196 -270h-420l82 270h-43l-197 -270h-155l-15 -48l162 -32l-207 -611q-12 -37 -24.5 -80t-23.5 -83.5t-17 -74.5t-6 -50q0 -51 43 -52q39 0 90 26t107 69t111.5 99t102.5 116l-31 32q-41 -41 -70.5 -69.5t-55 -50t-51 -39t-58.5 -33.5 q0 63 49 215l189 598h436l-213 -623q-12 -37 -24.5 -80t-24 -83.5t-17.5 -74.5t-6 -50q0 -51 43 -52q39 0 90 26t107.5 69t112 99t102.5 116l-31 32q-41 -41 -70.5 -69.5t-55.5 -50t-51.5 -39t-58.5 -33.5q0 63 50 215l188 598h401l48 -55l-230 -531q-10 -23 -22.5 -56.5 t-23.5 -70.5t-19.5 -72.5t-8.5 -60.5q0 -41 28 -79t99 -38q78 0 155 49.5t147.5 123t135 160.5t117.5 165h5l-80 -201q-29 -74 -48.5 -142.5t-19.5 -102.5q0 -51 43 -52q35 0 82 22.5t101.5 63.5t111.5 97.5t113 122.5l-31 32q-74 -78 -127 -119.5t-113 -66.5q0 29 11.5 86 t31.5 113l244 690l-168 -10q-41 -160 -99.5 -303.5t-121.5 -231.5q-53 -72 -103.5 -135.5t-98.5 -110.5t-90 -73.5t-75 -26.5q-31 0 -50 16.5t-19 50.5q0 33 16 75t33 85l266 654h-623z" />
<glyph unicode="tv" horiz-adv-x="1419" d="M1317 780q0 -109 -110.5 -252t-301.5 -354h-4l113 830h-504l82 270h-43l-197 -270h-155l-15 -48l162 -32l-207 -611q-12 -37 -24.5 -80t-23.5 -83.5t-17 -74.5t-6 -50q0 -51 43 -52q39 0 90 26t107 69t111.5 99t102.5 116l-31 32q-41 -41 -70.5 -69.5t-55 -50t-51 -39 t-58.5 -33.5q0 63 49 215l189 598h292l52 -55l-103 -901h51q154 158 282 292t218 247.5t140.5 207.5t50.5 172q0 72 -36 101.5t-79 29.5t-69.5 -6t-55.5 -20l-23 -156h39q25 0 45.5 -16.5t20.5 -51.5z" />
<glyph unicode="ttv" horiz-adv-x="1996" d="M1894 780q0 -109 -110.5 -252t-300.5 -354h-4l112 830h-504l82 270h-43l-196 -270h-420l82 270h-43l-197 -270h-155l-15 -48l162 -32l-207 -611q-12 -37 -24.5 -80t-23.5 -83.5t-17 -74.5t-6 -50q0 -51 43 -52q39 0 90 26t107 69t111.5 99t102.5 116l-31 32 q-41 -41 -70.5 -69.5t-55 -50t-51 -39t-58.5 -33.5q0 63 49 215l189 598h436l-213 -623q-12 -37 -24.5 -80t-24 -83.5t-17.5 -74.5t-6 -50q0 -51 43 -52q39 0 90 26t107.5 69t112 99t102.5 116l-31 32q-41 -41 -70.5 -69.5t-55.5 -50t-51.5 -39t-58.5 -33.5q0 63 50 215 l188 598h293l51 -55l-102 -901h51q154 158 282 292t218 247.5t140 207.5t50 172q0 72 -36 101.5t-79 29.5t-69.5 -6t-55.5 -20l-22 -156h39q25 0 45 -16.5t20 -51.5z" />
<glyph unicode="tw" horiz-adv-x="1851" d="M1749 780q0 -109 -110.5 -252t-301.5 -354h-4l68 512q35 59 54.5 112.5t19.5 100.5q0 72 -36 101.5t-79 29.5q-27 0 -43.5 -3t-32.5 -9l-53 -453q-53 -80 -135 -175t-191 -216h-4l113 830h-504l82 270h-43l-197 -270h-155l-15 -48l162 -32l-207 -611q-12 -37 -24.5 -80 t-23.5 -83.5t-17 -74.5t-6 -50q0 -51 43 -52q39 0 90 26t107 69t111.5 99t102.5 116l-31 32q-41 -41 -70.5 -69.5t-55 -50t-51 -39t-58.5 -33.5q0 63 49 215l189 598h292l52 -55l-103 -901h51q129 131 237.5 245.5t195.5 214.5l-52 -460h52q154 158 281.5 292t217.5 247.5 t140.5 207.5t50.5 172q0 72 -36 101.5t-79 29.5t-69.5 -6t-55.5 -20l-22 -156h38q25 0 45.5 -16.5t20.5 -51.5z" />
<glyph unicode="ttw" horiz-adv-x="2428" d="M2327 780q0 -109 -111 -252t-301 -354h-4l67 512q35 59 54.5 112.5t19.5 100.5q0 72 -36 101.5t-79 29.5q-27 0 -43 -3t-32 -9l-54 -453q-53 -80 -135 -175t-190 -216h-4l112 830h-504l82 270h-43l-196 -270h-420l82 270h-43l-197 -270h-155l-15 -48l162 -32l-207 -611 q-12 -37 -24.5 -80t-23.5 -83.5t-17 -74.5t-6 -50q0 -51 43 -52q39 0 90 26t107 69t111.5 99t102.5 116l-31 32q-41 -41 -70.5 -69.5t-55 -50t-51 -39t-58.5 -33.5q0 63 49 215l189 598h436l-213 -623q-12 -37 -24.5 -80t-24 -83.5t-17.5 -74.5t-6 -50q0 -51 43 -52 q39 0 90 26t107.5 69t112 99t102.5 116l-31 32q-41 -41 -70.5 -69.5t-55.5 -50t-51.5 -39t-58.5 -33.5q0 63 50 215l188 598h293l51 -55l-102 -901h51q129 131 237.5 245.5t194.5 214.5l-51 -460h51q154 158 282 292t218 247.5t140 207.5t50 172q0 72 -35.5 101.5 t-78.5 29.5t-70 -6t-55 -20l-23 -156h39q25 0 45.5 -16.5t20.5 -51.5z" />
<glyph unicode="ty" horiz-adv-x="1472" d="M451 -293q-27 0 -51.5 19.5t-24.5 60.5v51h-133q-29 -31 -48.5 -66.5t-19.5 -76.5q0 -45 34 -83t99 -38q61 0 120.5 22.5t127.5 70.5t148.5 125t185.5 188q307 322 465.5 551t158.5 368q0 70 -41.5 100.5t-85.5 30.5q-43 0 -72.5 -8t-51.5 -18l-23 -156h53 q33 0 52.5 -16.5t19.5 -51.5q0 -84 -115.5 -267t-378.5 -480h-4q18 53 35 116.5t36 170t44 269.5t59 415h-530l82 270h-43l-197 -270h-155l-15 -48l162 -32l-207 -611q-12 -37 -24.5 -80t-23.5 -83.5t-17 -74.5t-6 -50q0 -51 43 -52q39 0 90 26t107 69t111.5 99t102.5 116 l-31 32q-41 -41 -70.5 -69.5t-55 -50t-51 -39t-58.5 -33.5q0 63 49 215l189 598h319l51 -55q-23 -172 -39 -326t-32.5 -281t-37 -224t-53.5 -161q-25 -47 -56.5 -80.5t-65 -56t-67 -34t-60.5 -11.5z" />
<glyph unicode="tty" horiz-adv-x="2050" d="M1028 -293q-27 0 -51.5 19.5t-24.5 60.5v51h-133q-29 -31 -48 -66.5t-19 -76.5q0 -45 33.5 -83t99.5 -38q61 0 120.5 22.5t127 70.5t148.5 125t185 188q307 322 466 551t159 368q0 70 -42 100.5t-85 30.5t-72.5 -8t-52.5 -18l-22 -156h53q33 0 52.5 -16.5t19.5 -51.5 q0 -84 -116 -267t-378 -480h-4q18 53 34.5 116.5t36 170t44 269.5t59.5 415h-531l82 270h-43l-196 -270h-420l82 270h-43l-197 -270h-155l-15 -48l162 -32l-207 -611q-12 -37 -24.5 -80t-23.5 -83.5t-17 -74.5t-6 -50q0 -51 43 -52q39 0 90 26t107 69t111.5 99t102.5 116 l-31 32q-41 -41 -70.5 -69.5t-55 -50t-51 -39t-58.5 -33.5q0 63 49 215l189 598h436l-213 -623q-12 -37 -24.5 -80t-24 -83.5t-17.5 -74.5t-6 -50q0 -51 43 -52q39 0 90 26t107.5 69t112 99t102.5 116l-31 32q-41 -41 -70.5 -69.5t-55.5 -50t-51.5 -39t-58.5 -33.5 q0 63 50 215l188 598h320l51 -55q-23 -172 -39.5 -326t-32.5 -281t-36.5 -224t-53.5 -161q-25 -47 -56.5 -80.5t-65.5 -56t-67.5 -34t-60.5 -11.5z" />
<glyph unicode="&#x7a;f" horiz-adv-x="1429" d="M1317 936h227l21 68h-230l27 92q47 166 97 238.5t97 72.5q35 0 52.5 -29.5t17.5 -81.5v-28h148q14 10 25 33.5t11 58.5q0 51 -43 86t-141 35q-78 0 -145.5 -36t-124 -98.5t-100.5 -150.5t-76 -192h-168l-15 -48l160 -32l-256 -951q-88 -326 -293 -325q-49 0 -80.5 26.5 t-57.5 70.5t-50.5 99.5t-56 112.5t-76.5 110.5t-113 92.5l762 786v58h-660l-110 -314h41l123 160h420v-4l-838 -866l22 -21l103 41q47 0 85 -31.5t73.5 -79t70.5 -102.5t78 -102t96.5 -79t122.5 -32q88 0 169 43t149.5 119t122 179t88.5 224z" />
<glyph unicode="&#x7a;g" horiz-adv-x="1736" d="M1380 -72q0 -63 -36.5 -110t-92 -79t-122 -47.5t-125.5 -15.5q-31 0 -61 6.5t-53.5 18.5t-38.5 32.5t-15 49.5q0 82 37.5 127t97.5 90h323q49 0 67.5 -23.5t18.5 -48.5zM1151 530q0 80 24.5 158t64.5 141.5t90 102.5t100 39q49 0 75.5 -45t26.5 -125q0 -57 -24.5 -129 t-64.5 -135.5t-91.5 -106.5t-106.5 -43q-41 0 -67.5 41t-26.5 102zM973 510q0 -43 11 -82t40 -68l-104 -81q-18 -16 -41 -37t-42.5 -44.5t-31.5 -48t-12 -49.5q0 -49 36.5 -74.5t77.5 -25.5q-29 -18 -52.5 -37.5t-45.5 -38.5l-16 -16q-23 -20 -52.5 -44t-62.5 -44.5 t-66.5 -34.5t-64.5 -14q-61 0 -99 48t-74 112.5t-80 129t-120 99.5l813 786v58h-711l-110 -314h41l123 160h461v-4l-879 -866l22 -21l103 41q53 0 97 -44t93 -97.5t110.5 -97.5t149.5 -44q66 0 121.5 11.5t83.5 25.5q-6 -25 -6 -51q0 -59 58.5 -94t181.5 -35q92 0 198.5 42 t197.5 108.5t150.5 147.5t59.5 159q0 57 -29.5 91t-116.5 34h-305q-53 0 -86.5 9t-33.5 38q0 23 20 56.5t84 74.5q37 -18 100 -19q72 0 139.5 28t127 72t108.5 101t84 115.5t54.5 113t19.5 95.5q0 45 -12 80l167 28v56h-231q-45 27 -117 26q-88 0 -182 -41t-172 -111.5 t-128 -166t-50 -201.5z" />
<glyph unicode="&#x7a;j" horiz-adv-x="1331" d="M608 -352q-49 0 -80.5 26.5t-57.5 70.5t-50.5 99.5t-56 112.5t-76.5 110.5t-113 92.5l762 786v58h-660l-110 -314h41l123 160h420v-4l-838 -866l22 -21l103 41q47 0 85 -31.5t73.5 -79t70.5 -102.5t78 -102t96.5 -79t122.5 -32q88 0 169 43t149.5 119t122 179t88.5 224 l251 885l-337 -20l-13 -56h94l58 -74l-244 -901q-88 -325 -293 -325zM1448 1329q0 53 -36 89t-89 36t-89 -36t-36 -89t36 -89t89 -36t89 36t36 89z" />
<glyph unicode="&#x7a;p" horiz-adv-x="1802" d="M1647 756q0 -86 -33 -200t-88.5 -214t-130 -170t-156.5 -70q-35 0 -60.5 10.5t-43.5 22.5q-23 14 -37 35q33 115 94 240t130 229t134.5 173t106.5 69q43 0 63.5 -34t20.5 -91zM1352 1030l-326 -20l-16 -58h96l55 -65l-323 -1149q-45 -47 -87 -80t-94 -33q-49 0 -83.5 33 t-63.5 83t-56.5 112.5t-64.5 122t-88 109.5t-127 75l762 786v58h-660l-110 -314h41l123 160h420v-4l-838 -866l22 -21l103 41q45 0 90 -31.5t92 -79t95 -103.5t101.5 -103.5t112 -79t123.5 -31.5q82 0 154 6t147 23l68 258l2 2l33 123q31 -10 63 -11q76 0 157 42t158.5 112 t148.5 160t124 189t84 199.5t31 188.5q0 86 -33 126t-94 40q-70 0 -136.5 -44t-131 -115.5t-124 -162t-114.5 -180.5h-6z" />
<glyph unicode="&#x7a;y" horiz-adv-x="1746" d="M37 0q47 0 85 -31.5t73.5 -79t70.5 -102.5t78 -102t96.5 -79t122.5 -32q96 0 173 34t144.5 90t135 130t145.5 152q315 315 470 547.5t155 371.5q0 70 -42 100.5t-85 30.5t-73 -8t-52 -18l-23 -156h54q33 0 52 -16.5t19 -51.5q0 -84 -115.5 -267t-377.5 -480h-4 q18 53 34.5 119.5t36 175t44 274.5t59.5 418l-297 -16l-17 -58h76l60 -65q-23 -172 -39.5 -326t-32.5 -281t-36.5 -224t-53.5 -161q-27 -49 -65 -92t-82 -74.5t-93 -50t-98 -18.5t-83 26.5t-62.5 69.5t-56 97.5t-63.5 110.5t-82 109.5t-114 92.5l762 786v58h-660l-110 -314 h41l123 160h420v-4l-838 -866l22 -21z" />
<glyph unicode="&#x7a;&#x7a;" horiz-adv-x="1632" d="M1229 -283q61 0 111.5 21.5t87 52.5t56 65.5t19.5 61.5q0 31 -8 48.5t-25 33.5h-141v-74q0 -25 -5 -52.5t-15.5 -50t-29.5 -37.5t-46 -15q-41 0 -67.5 48t-57.5 112.5t-74 129t-119 99.5l773 786v58h-660l-110 -314h40l123 160h410v-4l-838 -866l23 -21l102 41 q53 0 97.5 -44t93.5 -97.5t110.5 -97.5t149.5 -44zM467 -426q61 0 111.5 21.5t87 52t56 65.5t19.5 62q0 31 -8 48t-24 34h-142v-74q0 -25 -5 -52.5t-15 -50t-29.5 -38t-46.5 -15.5q-29 0 -47 33t-34.5 85t-33 114.5t-40 122t-58.5 107.5t-84 71l762 786v58h-660l-110 -314 h41l123 160h420v-4l-838 -866l22 -21l103 41q35 0 64.5 -31.5t58 -79t57.5 -102.5t64.5 -102t81 -79t104.5 -32z" />
<glyph unicode="&#x7a;&#x7a;y" horiz-adv-x="2500" d="M467 -426q61 0 111.5 21.5t87 52t56 65.5t19.5 62q0 31 -8 48t-24 34h-142v-74q0 -25 -5 -52.5t-15 -50t-29.5 -38t-46.5 -15.5q-29 0 -47 33t-34.5 85t-33 114.5t-40 122t-58.5 107.5t-84 71l762 786v58h-660l-110 -314h41l123 160h420v-4l-838 -866l22 -21l103 41 q35 0 64.5 -31.5t58 -79t57.5 -102.5t64.5 -102t81 -79t104.5 -32zM788 0q47 0 85 -31.5t74 -79t71 -102.5t78 -102t96 -79t123 -32q96 0 173 34t144.5 90t135 130t145.5 152q315 315 469.5 547.5t154.5 371.5q0 70 -41.5 100.5t-85.5 30.5q-43 0 -72.5 -8t-51.5 -18 l-23 -156h53q33 0 52.5 -16.5t19.5 -51.5q0 -84 -115.5 -267t-378.5 -480h-4q18 53 35 119.5t36 175t44 274.5t59 418l-297 -16l-16 -58h76l59 -65q-23 -172 -39 -326t-32.5 -281t-37 -224t-53.5 -161q-27 -49 -64.5 -92t-81.5 -74.5t-93 -50t-99 -18.5q-49 0 -82.5 26.5 t-62.5 69.5t-56.5 97.5t-62.5 110.5t-82 109.5t-114 92.5l762 786v58h-660l-110 -314h40l123 160h420v-4l-837 -866l22 -21z" />
<glyph horiz-adv-x="0" />
<glyph unicode="&#xd;" horiz-adv-x="1024" />
<glyph horiz-adv-x="0" />
<glyph horiz-adv-x="0" />
<glyph unicode=" "  horiz-adv-x="516" />
<glyph unicode="&#x09;" horiz-adv-x="516" />
<glyph unicode="&#xa0;" horiz-adv-x="516" />
<glyph unicode="!" horiz-adv-x="581" d="M338 113q0 59 -40 99t-99 40t-99.5 -40t-40.5 -99t40 -99.5t100 -40.5q59 0 99 40.5t40 99.5zM545 1006l121 448h-195l-121 -448l-86 -600h45z" />
<glyph unicode="&#x22;" horiz-adv-x="720" d="M729 952l98 502h-120l-99 -502h121zM414 952l98 502h-121l-98 -502h121z" />
<glyph unicode="#" horiz-adv-x="1136" d="M494 924h305l-105 -383h-305zM1044 1454h-102l-123 -450h-305l123 450h-102l-123 -450h-205l-21 -80h205l-104 -383h-205l-21 -82h203l-123 -459h103l123 459h305l-123 -459h102l123 459h207l20 82h-204l104 383h205l20 80h-204z" />
<glyph unicode="$" horiz-adv-x="1091" d="M678 1409l-98 -504q-59 63 -98.5 129t-39.5 146q0 111 59.5 170t168.5 59h8zM522 49l99 506q61 -70 104 -138.5t43 -142.5q0 -41 -11.5 -80.5t-37 -72.5t-66.5 -52.5t-102 -19.5h-29zM494 -102l14 75q94 4 168 35t125 80t78.5 113.5t27.5 138.5q0 80 -20.5 145.5t-54 123 t-75.5 106.5t-87 96l110 573q74 -35 123 -111.5t70 -180.5l8 -50h61l84 431h-59l-43 -60q-43 23 -95 41.5t-130 24.5l16 77h-108l-17 -77q-180 -16 -288.5 -115.5t-108.5 -261.5q0 -70 20.5 -131.5t54 -116.5t75.5 -105.5t87 -97.5l-110 -575q-104 47 -171 149.5t-95 220.5 l-4 19h-62l-94 -483h61l76 75q47 -23 108.5 -46t159.5 -34l-14 -79h109z" />
<glyph unicode="%" horiz-adv-x="1867" d="M1346 37q-61 0 -86 57.5t-25 145.5q0 41 7 97t21.5 116.5t36 119t49 103.5t62.5 73.5t76 28.5q61 0 85.5 -57t24.5 -146q0 -43 -7 -98t-21.5 -115.5t-36 -119t-49 -103.5t-62 -73.5t-75.5 -28.5zM1759 539q0 61 -14 116.5t-45 96.5t-80 64.5t-119 23.5 q-109 0 -188.5 -55.5t-133 -139.5t-79 -182t-25.5 -184q0 -61 14.5 -118t45 -97.5t80 -65.5t118.5 -25q109 0 189 55.5t133 140.5t78.5 184.5t25.5 185.5zM1726 1454h-110l-1442 -1454h119zM432 678q-61 0 -85.5 57.5t-24.5 145.5q0 41 7 97t21.5 116.5t36 119t49 103.5 t62 73.5t75.5 28.5q61 0 86 -57t25 -145q0 -43 -7 -98.5t-21.5 -116t-36 -119t-49 -103.5t-62.5 -73.5t-76 -28.5zM846 1180q0 61 -14.5 116.5t-45 96.5t-80 64.5t-118.5 23.5q-109 0 -189 -55.5t-133 -139.5t-78.5 -182t-25.5 -184q0 -61 14 -118t45 -97.5t80 -65.5 t119 -25q109 0 188.5 55.5t133 140.5t79 184.5t25.5 185.5z" />
<glyph unicode="&#x26;" horiz-adv-x="1372" d="M627 991q35 0 50 -34.5t7 -79.5l-440 -330q31 80 74.5 159.5t94 142t106 102.5t108.5 40zM881 1022q4 49 -32 70.5t-79 21.5q-88 0 -179 -49t-178 -130t-164 -183.5t-133.5 -208t-90 -206.5t-33.5 -177q0 -102 49 -144.5t137 -42.5q74 0 171 50.5t197.5 128t192.5 174 t156 186.5h4l-170 -512h154l211 672h219l20 67h-217l76 230h-41l-332 -258l-14 -39h131q-27 -47 -72 -107.5t-102 -123t-122 -122t-127 -105.5t-119.5 -74.5t-100.5 -28.5q-61 0 -83 47t-22 145q0 35 7.5 75t19.5 85l809 594q55 41 107.5 80t91.5 76.5t62.5 76.5t23.5 82 q0 23 -10.5 43.5t-24.5 38.5h-180v-96q0 -31 -4.5 -64.5t-17.5 -68.5t-40.5 -72t-75.5 -74z" />
<glyph unicode="'" horiz-adv-x="405" d="M414 952l98 502h-121l-98 -502h121z" />
<glyph unicode="(" horiz-adv-x="606" d="M219 242q0 174 41 348t112.5 334.5t170 301t213.5 247.5l-17 45q-123 -86 -239.5 -218.5t-207.5 -294t-145.5 -346t-54.5 -374.5q0 -117 21.5 -229.5t57.5 -212t83 -182.5t98 -138l35 47q-78 135 -123 309.5t-45 362.5z" />
<glyph unicode=")" horiz-adv-x="604" d="M430 799q0 -174 -41 -348.5t-112.5 -335t-170 -301t-212.5 -246.5l16 -45q123 86 239.5 218t208 294t145.5 346t54 375q0 117 -21.5 229.5t-57.5 211.5t-83 182t-98 139l-35 -48q78 -135 123 -309t45 -362z" />
<glyph unicode="*" horiz-adv-x="925" d="M229 1092l269 -17v-4l-246 -174l10 -125h129l148 266h4l53 -266l127 2l53 123l-180 172l2 4l279 19l71 120l-94 66l-260 -148l-2 3l119 266l-82 82l-115 -82l18 -264l-2 -2l-204 145l-117 -68z" />
<glyph unicode="+" horiz-adv-x="1046" d="M938 526l18 95h-376l75 383h-106l-76 -383h-377l-18 -95h377l-76 -399h106l76 399h377z" />
<glyph unicode="," horiz-adv-x="520" d="M-51 -289q61 23 127.5 67t121 98t89.5 114.5t35 120.5q0 70 -36 105.5t-96 35.5q-68 0 -108.5 -40t-40.5 -99q0 -57 34 -97.5t111 -42.5q-16 -39 -45.5 -72.5t-65.5 -62t-74 -50t-69 -34.5z" />
<glyph unicode="-" horiz-adv-x="751" d="M639 545v82h-451v-82h451z" />
<glyph unicode="." horiz-adv-x="512" d="M319 113q0 59 -39.5 99t-99.5 40q-59 0 -99 -40t-40 -99t40 -99.5t99 -40.5t99 40.5t40 99.5z" />
<glyph unicode="/" horiz-adv-x="954" d="M-47 0h113l989 1454h-113z" />
<glyph unicode="0" horiz-adv-x="1255" d="M518 35q-63 0 -105 24.5t-68 67.5t-36 101.5t-10 123.5q0 78 12.5 186.5t38 227.5t65.5 235.5t94 210t122.5 150.5t152.5 57q59 0 99.5 -28.5t65 -77.5t34.5 -114.5t10 -139.5q0 -80 -10 -186.5t-32.5 -221t-59.5 -224.5t-90 -198t-123 -141t-160 -53zM1190 954 q0 109 -20.5 204t-66.5 167t-121 114t-183 42q-113 0 -206 -46t-170 -123t-134.5 -176.5t-96 -207t-58 -214t-19.5 -196.5q0 -111 21.5 -210t68.5 -173t121.5 -118t179.5 -44q106 0 198.5 43t168 116t135 170t99.5 206.5t61.5 224.5t21.5 221z" />
<glyph unicode="1" horiz-adv-x="794" d="M199 1083q129 39 247 111l-213 -1051l-98 -86h-145l-10 -57h632l11 57h-144l-65 86l264 1332h-45q-90 -113 -196.5 -194t-223.5 -126z" />
<glyph unicode="2" horiz-adv-x="1138" d="M1098 1221q0 74 -25.5 124t-71 80.5t-108 43t-133.5 12.5q-106 0 -199.5 -31t-163 -82t-109.5 -114.5t-40 -127.5q0 -29 7 -54t17 -42h195l2 111q0 59 17.5 110.5t48 89t75.5 59t105 21.5q92 0 137 -52t45 -146q0 -154 -70.5 -297.5t-188.5 -279.5t-271.5 -268 t-319.5 -263l-72 -31q-6 -20 -6 -39.5t19 -44.5q35 27 67.5 47.5t91.5 20.5t104.5 -18.5t89.5 -42t96 -42t126 -18.5q37 0 79 4t84 11t79 19.5t63 28.5l129 346h-36l-82 -80q-90 -86 -173 -112.5t-170 -26.5t-182.5 6.5t-208.5 -14.5v4q164 113 333 248t307.5 278.5 t225.5 288t87 273.5z" />
<glyph unicode="3" horiz-adv-x="1142" d="M1174 1372q-2 29 -25 53.5t-53 28.5l-60 -61h-28q-45 0 -89.5 13t-91.5 30.5t-100 31t-117 13.5q-27 0 -58.5 -4t-63 -10.5t-60.5 -15.5t-49 -19l-19 43h-41l-79 -365h36l41 45q55 61 109.5 91t108 42t107.5 11t109.5 -3t113 1t118.5 24v-4l-588 -459l-18 -94 q41 20 107.5 45t144.5 25q115 0 164 -63.5t49 -162.5q0 -98 -32 -184t-86 -149.5t-128 -100.5t-156 -37q-74 0 -128 18.5t-95 50.5t-70.5 71.5t-52.5 82.5l-51 -20q18 -174 112.5 -270.5t260.5 -96.5q123 0 230.5 52.5t188 137.5t128 192.5t47.5 217.5q0 66 -17.5 126.5 t-56.5 106.5t-99.5 74.5t-148.5 28.5q-51 0 -104.5 -14t-98.5 -33l2 4z" />
<glyph unicode="4" horiz-adv-x="1089" d="M774 1454q-68 -123 -141.5 -240.5t-162.5 -239.5t-199.5 -249t-252.5 -268l-6 -35h543l-55 -277l-111 -88h-151l-11 -57h650l10 57h-144l-55 88l45 277h248l14 82h-247l86 438h-37l-179 -184l-49 -254h-448l2 4q281 229 496 456.5t372 489.5h-217z" />
<glyph unicode="5" horiz-adv-x="1120" d="M467 1237h182q156 0 286 41t208 123l-21 20q-37 -18 -79 -29.5t-81.5 -17.5t-75.5 -8t-63 -2q-104 0 -191 35t-130 82l-70 -27l-278 -786h61q66 111 159 171t197 60q68 0 120 -24.5t87 -64.5t53.5 -91t18.5 -107q0 -86 -29.5 -171t-84 -152.5t-129.5 -109.5t-163 -42 q-74 0 -131 18.5t-102 50.5t-78 71.5t-55 82.5l-51 -20q18 -174 112 -270.5t260 -96.5q131 0 241 56.5t189.5 146.5t123.5 204t44 228q0 74 -20.5 140.5t-64.5 116.5t-114.5 80t-168.5 30q-188 0 -342 -129h-4z" />
<glyph unicode="6" horiz-adv-x="1128" d="M483 41q-55 0 -95 24.5t-65.5 67.5t-38 99.5t-12.5 119.5q0 76 18.5 162t57.5 158.5t101.5 120t150.5 47.5q57 0 97 -24.5t65.5 -66.5t37 -97.5t11.5 -114.5q0 -80 -17.5 -167t-56.5 -160t-101.5 -121t-152.5 -48zM74 389q0 -86 24.5 -161.5t72.5 -132t122 -89.5t172 -33 q121 0 223.5 50.5t177 133.5t116.5 187.5t42 214.5q0 166 -91 257t-267 91q-80 0 -154 -22.5t-121 -59.5h-4q51 104 126 200.5t161 175.5t179 136.5t181 85.5l10 58q-115 -35 -230.5 -96.5t-224 -143.5t-202.5 -180t-163.5 -208t-109.5 -227.5t-40 -236.5z" />
<glyph unicode="7" horiz-adv-x="1052" d="M254 1155q55 61 113.5 90t119 38t124 6t130 -5t135 3t140.5 32v-4q-131 -117 -267.5 -270.5t-258 -325.5t-215 -356.5t-138.5 -362.5h246q61 375 268 719t533 665q-2 29 -22.5 47.5t-51.5 22.5l-49 -61h-39q-63 0 -117.5 13t-110 30.5t-116 31t-135.5 13.5 q-27 0 -58.5 -3t-62.5 -9.5t-58.5 -14.5t-48.5 -16l-22 37h-41l-76 -365h37z" />
<glyph unicode="8" horiz-adv-x="1126" d="M662 842q-41 33 -82 67.5t-76 74.5t-56.5 87t-21.5 107q0 61 23.5 105t62.5 72.5t88 43t100 14.5q57 0 95.5 -21.5t60 -54t30.5 -71.5t9 -72q0 -43 -16.5 -91t-46 -94t-72.5 -90t-98 -77zM492 721q43 -39 97 -81t102 -88t80 -96t32 -106q0 -59 -27.5 -114.5t-72 -97.5 t-101.5 -66.5t-117 -24.5q-61 0 -107 19.5t-75 53.5t-43 79t-14 94q0 133 71 247.5t175 180.5zM418 -27q102 0 202.5 35t180.5 95.5t129 138t49 164.5q0 57 -22.5 110t-60.5 102.5t-90 98.5t-112 98q180 88 284.5 194.5t104.5 227.5q0 45 -17 88t-58 78t-107.5 56.5 t-163.5 21.5q-90 0 -175 -28t-152.5 -80t-108.5 -124.5t-41 -163.5q0 -96 54.5 -172.5t148.5 -162.5q-74 -37 -147.5 -88.5t-133 -115t-97.5 -138t-38 -158.5q0 -66 28.5 -118t79 -87t118 -53.5t145.5 -18.5z" />
<glyph unicode="9" horiz-adv-x="1130" d="M694 1413q55 0 95 -24.5t66 -67.5t38 -99.5t12 -119.5q0 -78 -18.5 -163t-57 -157.5t-101 -120t-150.5 -47.5q-57 0 -97.5 25t-66 67t-36.5 97t-11 115q0 80 17 166.5t56 159.5t101.5 121t152.5 48zM1104 1065q0 86 -24.5 162t-73 132t-122 89t-171.5 33 q-121 0 -223.5 -50.5t-177 -133.5t-116.5 -187t-42 -215q0 -166 91 -257t267 -91q80 0 154.5 22.5t119.5 59.5h5q-51 -104 -126 -200.5t-161 -175.5t-179.5 -137.5t-181.5 -84.5l-10 -58q115 35 230.5 96.5t224 143.5t203 180.5t164 208t109.5 227t40 236.5z" />
<glyph unicode=":" horiz-adv-x="573" d="M551 891q0 59 -40 99t-99 40t-99.5 -40t-40.5 -99t40 -99t100 -40q59 0 99 40t40 99zM336 113q0 59 -40 99t-99 40t-99.5 -40t-40.5 -99t40 -99.5t100 -40.5q59 0 99 40.5t40 99.5z" />
<glyph unicode=";" horiz-adv-x="587" d="M-27 -289q61 23 128 67t121 98t89 114.5t35 120.5q0 70 -36 105.5t-95 35.5q-68 0 -108.5 -40t-40.5 -99q0 -57 33.5 -97.5t111.5 -42.5q-16 -39 -46 -72.5t-66 -62t-73.5 -50t-68.5 -34.5zM559 891q0 59 -40 99t-99 40t-99 -40t-40 -99t39.5 -99t99.5 -40q59 0 99 40 t40 99z" />
<glyph unicode="&#x3c;" horiz-adv-x="1044" d="M821 43l23 115l-668 405l823 402l25 122l-950 -473l-21 -100z" />
<glyph unicode="=" horiz-adv-x="1308" d="M1098 301l18 94h-1007l-19 -94h1008zM1186 750l18 94h-1007l-19 -94h1008z" />
<glyph unicode="&#x3e;" horiz-adv-x="1040" d="M209 1087l-23 -114l668 -406l-823 -401l-25 -123l950 473l21 100z" />
<glyph unicode="?" horiz-adv-x="921" d="M698 1427q53 0 83 -33.5t30 -86.5q0 -92 -38 -186.5t-108.5 -200t-171 -226.5t-223.5 -264l31 -22l115 118q98 100 201.5 208t189.5 213.5t140 204.5t54 185q0 66 -59 105t-182 39q-90 0 -181.5 -27t-164 -74t-118.5 -111.5t-46 -140.5q0 -29 7 -54t17 -42h175v47 q0 61 21.5 124t56 113t78.5 80.5t93 30.5zM289 113q0 59 -40 99t-99 40t-99.5 -40t-40.5 -99t40 -99.5t100 -40.5q59 0 99 40.5t40 99.5z" />
<glyph unicode="@" horiz-adv-x="1630" d="M535 248q0 57 17 127.5t48 143.5t71 141.5t85 122t93 86t93 32.5q35 0 60.5 -11t44.5 -24q23 -14 36 -32q-33 -115 -94 -240t-129.5 -229.5t-134.5 -173t-107 -68.5q-43 0 -63 34t-20 91zM909 268q-31 -72 -53 -140.5t-22 -102.5q0 -51 43 -52q109 0 225.5 72 t213.5 187.5t159.5 261t62.5 292.5q0 82 -32.5 163t-100.5 145.5t-170 103.5t-240 39q-121 0 -234.5 -36t-216 -98.5t-187.5 -147.5t-146 -184t-96 -208.5t-35 -220.5q0 -98 24.5 -184t71.5 -158h80q-53 72 -84 160t-31 188q0 166 73 315.5t191.5 263t270 181.5t309.5 68 q127 0 217 -34t148.5 -89.5t86 -127t27.5 -147.5q0 -106 -35.5 -212.5t-95 -199t-138.5 -164t-167 -106.5q0 29 8 97.5t35 144.5l217 686h-20l-78 -53q-20 20 -46 39.5t-81 19.5q-66 0 -142.5 -42t-154.5 -111.5t-151.5 -159.5t-130 -189.5t-90.5 -200t-34 -188.5 q0 -86 33 -126t94 -40q70 0 136.5 44t131 116t124 162t114.5 180h4z" />
<glyph unicode="A" d="M510 657l426 613v-613h-426zM936 1427l-973 -1390l-8 -37h451l14 57h-168l-68 127l271 391h481v-432l-84 -86h-141l-15 -57h510l8 37l-102 106v1393h-176v-109z" />
<glyph unicode="B" horiz-adv-x="1302" d="M584 0q123 0 238.5 37t205.5 104.5t144.5 163.5t54.5 217q0 72 -25.5 121t-65.5 81t-91.5 46t-102.5 18l-2 5q63 12 130 45.5t119 86t86 125t34 164.5q0 78 -34 125t-92.5 73t-138 34t-172.5 8h-569l-12 -57h125l63 -86l-231 -1168l-96 -86h-123l-13 -57h568zM559 805 l107 534q23 10 80 21.5t118 11.5q49 0 92 -13t77 -38t53.5 -61.5t19.5 -85.5q0 -100 -36 -171t-93 -115t-127 -63.5t-137 -19.5h-154zM666 84q-78 0 -140.5 10t-103.5 27l121 602h153q147 0 235.5 -68.5t88.5 -179.5q0 -92 -29.5 -163.5t-79 -123t-113.5 -78t-132 -26.5z " />
<glyph unicode="C" horiz-adv-x="1406" d="M961 1401q92 0 154.5 -29t103.5 -76t65.5 -107.5t44.5 -125.5l10 -33h62l86 443h-62l-65 -76q-18 12 -44 26.5t-62.5 27.5t-89 21.5t-126.5 8.5q-154 0 -310.5 -72t-283.5 -199t-206.5 -302t-79.5 -384q0 -96 23.5 -194.5t82 -177t156.5 -129t250 -50.5q115 0 223 45 t198.5 111t160 140.5t108.5 136.5l-53 20q-104 -131 -256 -210t-332 -79q-100 0 -172 45t-118 117t-68.5 163t-22.5 183q0 147 55.5 284.5t144.5 242t200.5 167t222.5 62.5z" />
<glyph unicode="D" horiz-adv-x="1495" d="M666 1339q37 8 75 17q33 6 73 11t75 5q117 0 193.5 -41t122.5 -105.5t65.5 -142t19.5 -151.5q0 -47 -9 -127t-34.5 -172t-69.5 -185.5t-113 -170t-165 -125t-225 -48.5q-41 0 -85 6.5t-79 16.5q-41 8 -82 23zM592 0q203 0 368.5 82t284.5 215t183.5 303t64.5 346 q0 86 -28.5 176t-100.5 164t-193.5 121t-308.5 47h-559l-12 -57h125l63 -86l-229 -1168l-98 -86h-123l-13 -57h576z" />
<glyph unicode="E" horiz-adv-x="1282" d="M1169 1372l74 -266h37l70 348h-1045l-12 -57h125l63 -86l-231 -1168l-117 -86h-102l-13 -57h1061l144 369h-37l-256 -287h-512l129 649h313l58 -246h36l113 574h-37l-153 -246h-314l111 559h495z" />
<glyph unicode="F" horiz-adv-x="1185" d="M1167 1372l74 -266h37l70 348h-1045l-12 -57h125l63 -86l-231 -1168l-96 -86h-123l-13 -57h693l10 57h-223l-68 86l117 588h313l57 -246h37l113 574h-37l-154 -246h-313l111 559h495z" />
<glyph unicode="G" horiz-adv-x="1488" d="M1157 283q-92 -70 -202.5 -108t-235.5 -38q-100 0 -172 45t-118 117t-68.5 163t-22.5 183q0 147 55.5 284.5t144.5 242t200.5 167t222.5 62.5q92 0 154.5 -29t103.5 -76t65.5 -107.5t44.5 -125.5l10 -33h62l86 443h-62l-65 -76q-18 12 -44 26.5t-62.5 27.5t-89 21.5 t-126.5 8.5q-154 0 -310.5 -72t-283.5 -199t-206.5 -302t-79.5 -384q0 -96 23.5 -194.5t82 -177t156.5 -129t250 -50.5q131 0 251.5 57.5t219.5 135.5l71 -184h62l186 698h-463l-14 -53h172l70 -70z" />
<glyph unicode="H" horiz-adv-x="1576" d="M1485 1311l94 86h127l12 57h-647l-12 -57h182l64 -86l-99 -486h-645l98 486l95 86h184l12 57h-647l-12 -57h125l63 -86l-231 -1168l-96 -86h-123l-13 -57h648l10 57h-185l-61 86l119 600h645l-119 -600l-96 -86h-182l-11 -57h648l10 57h-127l-62 86z" />
<glyph unicode="I" horiz-adv-x="749" d="M657 1311l95 86h116l13 57h-570l-12 -57h115l63 -86l-231 -1168l-96 -86h-113l-12 -57h569l10 57h-117l-61 86z" />
<glyph unicode="J" horiz-adv-x="890" d="M453 270q-23 -109 -58 -166t-100 -57q-57 0 -83 41t-28 111l-207 -64q0 -37 24 -66.5t60.5 -51t81.5 -33t88 -11.5q88 0 159 30t123 82t88 126t52 160l187 940l96 86h74l12 57h-643l-12 -57h225l67 -86z" />
<glyph unicode="K" horiz-adv-x="1396" d="M1210 119l-489 676l790 622l9 37h-459l-12 -57h153l-18 -123l-627 -506h-4l106 539l99 90h157l13 57h-625l-12 -57h123l65 -90l-227 -1162l-102 -88h-121l-13 -57h623l10 57h-155l-62 88l113 588h4l407 -590l-16 -86h-119l-10 -57h571l4 37z" />
<glyph unicode="L" horiz-adv-x="1171" d="M862 82h-385l-49 61l231 1168l95 86h204l13 57h-668l-12 -57h125l63 -86l-231 -1168l-96 -86h-123l-13 -57h996l143 369h-37z" />
<glyph unicode="M" horiz-adv-x="1875" d="M1739 0l10 57h-133l-66 86l236 1188l53 66h174l12 57h-380l-709 -1180h-4l-277 1180h-333l-13 -57h140l28 -86l-223 -1127l-107 -127h-100l-12 -57h543l10 57h-162l-72 127l189 953h4l262 -1157h49l705 1157h4l-197 -994l-100 -86h-127l-10 -57h606z" />
<glyph unicode="N" horiz-adv-x="1572" d="M1702 1397l12 57h-520l-12 -57h139l72 -127l-191 -938h-4l-598 1122h-274l-13 -57h90l68 -129l-213 -1082l-108 -129h-99l-12 -57h520l10 57h-139l-72 129l189 955h4l614 -1161h72l256 1290l113 127h96z" />
<glyph unicode="O" horiz-adv-x="1560" d="M342 592q0 156 50 296t135 247.5t199 171t243 63.5q193 0 295 -112.5t102 -348.5q0 -170 -51 -318.5t-137 -261t-201 -177t-240 -64.5q-180 0 -287.5 122t-107.5 382zM1073 1481q-182 0 -350 -86t-296 -227.5t-204 -321.5t-76 -371q0 -80 20.5 -168t74 -162.5t147.5 -123 t240 -48.5q176 0 345 82t301 222.5t213 324.5t81 389q0 70 -22.5 156t-79 159.5t-153 124t-241.5 50.5z" />
<glyph unicode="P" horiz-adv-x="1224" d="M666 1337q33 14 90 24.5t110 10.5q111 0 179.5 -60.5t68.5 -176.5q0 -88 -29.5 -163t-83 -130.5t-126 -86t-158.5 -30.5h-78l-14 -72h94q111 0 219.5 40t194.5 110.5t140 168t54 210.5q0 133 -105.5 202.5t-353.5 69.5h-563l-12 -57h121l67 -86l-231 -1168l-100 -86h-119 l-13 -57h691l10 57h-225l-64 86z" />
<glyph unicode="Q" horiz-adv-x="1560" d="M342 592q0 156 50 296t135 247.5t199 171t243 63.5q193 0 295 -112.5t102 -348.5q0 -170 -51 -318.5t-137 -261t-201 -177t-240 -64.5q-180 0 -287.5 122t-107.5 382zM1073 1481q-182 0 -350 -86t-296 -227.5t-204 -321.5t-76 -371q0 -78 19.5 -164t71 -159.5 t139.5 -122.5t225 -54l311 -374h519l10 39q-98 10 -203.5 45.5t-205 85t-184.5 103.5t-140 103q166 18 320.5 106.5t274 225.5t192.5 312.5t73 369.5q0 70 -22.5 156t-79 159.5t-153 124t-241.5 50.5z" />
<glyph unicode="R" horiz-adv-x="1363" d="M303 1454l-12 -57h123l65 -86l-229 -1166l-100 -88h-121l-13 -57h660l10 57h-192l-64 88l100 514h105q47 0 78.5 -30.5t52.5 -79.5l240 -549h294l5 37l-144 86l-241 541l-58 38l-2 5q113 31 202 70.5t150.5 96t94 130t32.5 170.5q0 51 -18 102t-63.5 90t-121 63.5 t-192.5 24.5h-641zM666 1339q31 8 63 17q29 6 63.5 11t71.5 5q129 0 193.5 -63.5t64.5 -161.5q0 -100 -45 -176t-109.5 -127t-133 -77t-117.5 -26h-172z" />
<glyph unicode="S" horiz-adv-x="1091" d="M721 1409q117 0 196.5 -88t106.5 -229l8 -50h62l84 431h-60l-43 -60q-49 25 -111.5 46.5t-164.5 21.5t-185.5 -27t-143.5 -76t-93 -119.5t-33 -156.5q0 -92 35 -170t88 -146.5t114.5 -132t115 -125t88 -124t34.5 -130.5q0 -41 -11 -80.5t-37 -72.5t-66.5 -52.5 t-102.5 -19.5q-80 0 -144.5 34t-114.5 89t-85 127t-53 147l-4 19h-62l-94 -483h61l76 75q27 -12 59.5 -26.5t74.5 -27.5t95.5 -21.5t123.5 -8.5q98 0 177 29t134 79t83.5 116.5t28.5 142.5q0 104 -34.5 187t-86 152t-111.5 128t-111.5 117.5t-86 120t-34.5 135.5 q0 111 59 170t168 59z" />
<glyph unicode="T" horiz-adv-x="1318" d="M1477 1481h-41l-78 -27h-961l-67 27h-41l-86 -437h37l213 328h319l-242 -1227l-102 -88h-186l-11 -57h721l11 57h-189l-63 88l241 1227h320l82 -328h37z" />
<glyph unicode="U" horiz-adv-x="1540" d="M1698 1397l12 57h-547l-12 -57h143l72 -127l-143 -713q-18 -92 -56.5 -177t-96.5 -149.5t-135 -102.5t-171 -38q-102 0 -164.5 26.5t-93.5 84t-32 145.5t24 209l149 756l98 86h162l13 57h-641l-13 -57h123l68 -86l-156 -783q-27 -133 -18.5 -236.5t57.5 -174 t143.5 -107.5t239.5 -37q139 0 242.5 47.5t176 130t119 192.5t70.5 237l137 690l109 127h121z" />
<glyph unicode="V" d="M573 1311l84 86h142l14 57h-510l-8 -37l102 -106v-1338h41l1118 1444l9 37h-461l-14 -57h167l62 -152l-746 -971v1037z" />
<glyph unicode="W" horiz-adv-x="2019" d="M569 1311l84 86h152l14 57h-520l-8 -37l102 -106v-1338h51l654 936v-936h51l1077 1444l8 37h-460l-15 -57h168l78 -127l-731 -987v856l184 258l23 57h-383v-407l-529 -754v1018z" />
<glyph unicode="X" horiz-adv-x="1275" d="M805 786l616 631l9 37h-457l-12 -57h126l76 -111l-393 -424l-197 432l70 103h113l12 57h-512l-8 -37l129 -106l258 -580l-674 -694l-6 -37h483l11 57h-154l-82 107l457 489l221 -495l-72 -101h-102l-10 -57h520l4 37l-133 106z" />
<glyph unicode="Y" horiz-adv-x="1241" d="M1432 1417l8 37h-420l-12 -57h153l64 -86l-443 -535h-4l-241 535l81 86h193l12 57h-600l-8 -37l123 -106l287 -623l-111 -545l-117 -86h-149l-10 -57h688l10 57h-152l-79 86l108 551z" />
<glyph unicode="Z" horiz-adv-x="1136" d="M477 1454l-67 27h-41l-66 -437h37l262 328h410v-4l-996 -1311v-57h938l60 410h-37l-248 -328h-473v4l1004 1311l-3 57h-780z" />
<glyph unicode="[" horiz-adv-x="651" d="M512 -57l12 57h-284l282 1454h285l10 57h-379l-305 -1568h379z" />
<glyph unicode="\" horiz-adv-x="892" d="M301 1454h-94l430 -1454h94z" />
<glyph unicode="]" horiz-adv-x="651" d="M293 1511l-12 -57h284l-282 -1454h-285l-10 -57h379l305 1568h-379z" />
<glyph unicode="^" horiz-adv-x="1009" d="M123 621h123l284 776l289 -776h121l-348 858h-123z" />
<glyph unicode="_" horiz-adv-x="1310" d="M981 -268v94h-1008v-94h1008z" />
<glyph unicode="`" horiz-adv-x="450" d="M14 1372q102 -74 198.5 -126t199.5 -93l22 31q-166 104 -315 270z" />
<glyph unicode="a" horiz-adv-x="966" d="M188 248q0 57 17.5 127.5t48.5 143.5t71 141.5t85 122t93 86t93 32.5q35 0 60.5 -11t43.5 -24q23 -14 37 -32q-33 -115 -94 -240t-130 -229.5t-134.5 -173t-106.5 -68.5q-43 0 -63.5 34t-20.5 91zM563 268q-31 -72 -53.5 -140.5t-22.5 -102.5q0 -51 43 -52q39 0 84 23.5 t94.5 64.5t99.5 98.5t97 123.5l-35 32q-49 -66 -94 -111.5t-100 -80.5q0 29 11 84t38 131l217 686h-20l-78 -53q-20 20 -46 39.5t-81 19.5q-66 0 -142.5 -42t-154.5 -111.5t-151.5 -159.5t-130 -189.5t-90.5 -200t-34 -188.5q0 -86 33 -126t94 -40q70 0 136.5 44t131 116 t124 162t114.5 180h4z" />
<glyph unicode="b" horiz-adv-x="942" d="M57 86q35 -41 88.5 -77t112.5 -36q76 0 157 42t158.5 112t148.5 160t124 189t84 199.5t31 188.5q0 86 -33 126t-94 40q-70 0 -136.5 -44t-131 -115.5t-124 -162t-114.5 -180.5h-4l268 947l-367 -21l-16 -57h137l55 -66zM786 756q0 -86 -32.5 -200t-88 -214t-130 -170 t-156.5 -70q-35 0 -60.5 10.5t-44.5 22.5q-23 14 -36 35q33 115 94 240t129.5 229t134.5 173t106 69q43 0 63.5 -34t20.5 -91z" />
<glyph unicode="c" horiz-adv-x="841" d="M729 1030q-88 0 -174 -43t-165 -114.5t-146.5 -164t-116.5 -191.5t-78 -196.5t-29 -177.5q0 -72 39 -121t117 -49q74 0 149.5 27t147.5 73t136.5 107.5t117.5 132.5l-31 23q-98 -111 -200.5 -169t-173.5 -58q-59 0 -82 46t-23 111q0 100 33 215t88 213.5t126 164 t146 65.5q68 0 68 -78v-107h127q29 31 52.5 73t23.5 89q0 25 -6.5 48.5t-22.5 42t-46 28.5t-77 10z" />
<glyph unicode="d" horiz-adv-x="976" d="M193 248q0 86 32.5 199.5t88 214t129 170t157.5 69.5q35 0 60.5 -11t44.5 -24q23 -14 36 -32q-33 -115 -94 -240t-129.5 -229.5t-134.5 -173t-107 -68.5q-43 0 -63 34t-20 91zM1063 1475l-367 -21l-16 -57h137l55 -66l-88 -311q-31 10 -63 10q-76 0 -157 -42 t-158.5 -111.5t-148.5 -159.5t-124 -189.5t-84 -200t-31 -188.5q0 -86 33 -126t94 -40q70 0 136.5 44t131 116t124 162t114.5 180h4l-88 -207q-31 -72 -53 -140.5t-22 -102.5q0 -51 43 -52q39 0 86 23.5t98 64.5t102 98.5t99 123.5l-35 32q-49 -66 -94.5 -111.5 t-100.5 -80.5q0 29 7.5 89t29.5 138z" />
<glyph unicode="e" horiz-adv-x="829" d="M610 924q51 0 69.5 -25t18.5 -47q0 -47 -35.5 -102.5t-93 -102.5t-131 -79.5t-147.5 -32.5h-25q27 76 64 146.5t82 123.5t95 86t103 33zM217 266q0 51 8 106.5t25 112.5q106 2 217 41t200 100.5t145 136.5t56 146q0 61 -40 91t-99 30q-88 0 -174 -43t-165 -114.5 t-146.5 -164t-116.5 -191.5t-78 -196.5t-29 -177.5q0 -72 39 -121t117 -49q74 0 149.5 27t147.5 73t136.5 107.5t117.5 132.5l-31 23q-98 -111 -200.5 -169t-173.5 -58q-59 0 -82 45.5t-23 111.5z" />
<glyph unicode="f" horiz-adv-x="608" d="M496 936h227l20 68h-229l27 92q47 166 97 238.5t97 72.5q35 0 52.5 -29.5t17.5 -81.5v-28h147q14 10 25.5 33.5t11.5 58.5q0 51 -43 86t-141 35q-78 0 -145.5 -36t-124 -98.5t-100.5 -150.5t-77 -192h-168l-14 -48l160 -32l-256 -951q-45 -166 -94 -245.5t-97 -79.5 q-47 0 -65.5 29.5t-18.5 80.5v29h-147q-14 -10 -25.5 -33.5t-11.5 -58.5q0 -51 43 -86t141 -35q84 0 154 43t128 119t103.5 179t79.5 224z" />
<glyph unicode="g" horiz-adv-x="929" d="M573 -72q0 -63 -36.5 -110t-92 -79t-122 -47.5t-125.5 -15.5q-31 0 -61 6.5t-53.5 18.5t-38.5 32.5t-15 49.5q0 82 37.5 127t97.5 90h323q49 0 67.5 -23.5t18.5 -48.5zM344 530q0 80 24.5 158t64.5 141.5t90 102.5t100 39q49 0 75.5 -45t26.5 -125q0 -57 -24.5 -129 t-64.5 -135.5t-91 -106.5t-107 -43q-41 0 -67.5 41t-26.5 102zM166 510q0 -43 11 -82t40 -68l-104 -81q-18 -16 -41 -37t-42.5 -44.5t-31.5 -48t-12 -49.5q0 -49 36.5 -74.5t77.5 -25.5q-106 -76 -163.5 -149.5t-57.5 -147.5q0 -59 58.5 -94t181.5 -35q92 0 198.5 42 t197.5 108.5t150.5 147.5t59.5 159q0 57 -29.5 91t-115.5 34h-306q-53 0 -86.5 9t-33.5 38q0 23 20.5 56.5t83.5 74.5q37 -18 100 -19q72 0 139.5 28t127 72t108.5 101t84 115.5t54.5 113t19.5 95.5q0 45 -12 80l168 28v56h-232q-45 27 -117 26q-88 0 -182 -41t-172 -111.5 t-128 -166t-50 -201.5z" />
<glyph unicode="h" horiz-adv-x="1097" d="M633 270q-35 -72 -63.5 -141.5t-28.5 -103.5q0 -51 43 -52q35 0 85 22.5t107.5 63.5t117.5 97.5t116 122.5l-31 32q-74 -78 -127 -119.5t-113 -66.5q0 29 15.5 76t46.5 106l211 408q27 53 42 99t15 93t-37 85t-108 38q-78 0 -161 -46t-164 -119.5t-153.5 -165 t-130.5 -179.5h-4l293 955l-377 -21l-16 -57h137l55 -66l-364 -1331h156q18 102 39.5 182t44 143.5t49 113.5t57.5 96q47 68 100.5 131t108.5 110t109.5 76t103.5 29q31 0 50.5 -16.5t19.5 -51.5q0 -16 -6.5 -37.5t-14.5 -44t-17.5 -43t-15.5 -35.5z" />
<glyph unicode="i" horiz-adv-x="561" d="M143 283q-12 -37 -24.5 -76t-21.5 -74t-15 -63.5t-6 -44.5q0 -51 43 -52q39 0 85 23.5t95 64.5t99.5 98.5t97.5 123.5l-37 32q-49 -66 -94.5 -111.5t-100.5 -80.5q0 29 11.5 84t37.5 131l238 686l-377 -20l-16 -58h137l55 -65zM670 1329q0 53 -36 89t-89 36t-89 -36 t-36 -89t36 -89t89 -36t89 36t36 89z" />
<glyph unicode="j" horiz-adv-x="534" d="M651 1329q0 53 -35.5 89t-89.5 36q-53 0 -89 -36t-36 -89t36 -89t89 -36t89 36t36 89zM141 1004l-12 -56h162l57 -74l-244 -901q-45 -166 -94 -245.5t-96 -79.5t-65.5 29.5t-18.5 80.5v29h-147q-14 -10 -25.5 -33.5t-11.5 -58.5q0 -51 43 -86t141 -35q84 0 153.5 43 t128 119t103.5 179t80 224l252 885z" />
<glyph unicode="k" horiz-adv-x="972" d="M471 469q-35 0 -60.5 10t-41.5 27q2 4 4 6t4 6t2 6q119 172 218 264.5t146 92.5q31 0 46.5 -15.5t15.5 -56.5q0 -49 -33 -107.5t-82 -110.5t-107.5 -87t-111.5 -35zM852 1030q-53 0 -118.5 -36t-136.5 -101.5t-143.5 -160.5t-138.5 -212h-4l293 955l-377 -21l-16 -57h137 l55 -66l-364 -1331h156q8 66 25.5 131.5t39 124.5t43 109.5t39.5 87.5q20 -84 52 -169t66 -153t66.5 -109.5t55.5 -41.5q27 0 64.5 27.5t75.5 69.5t73.5 88t60.5 83l-31 31q-59 -70 -93 -106t-77 -62q-53 66 -92 150.5t-55 154.5q59 12 141 57t157 110.5t127 144.5t52 159 q0 68 -31.5 105.5t-101.5 37.5z" />
<glyph unicode="l" horiz-adv-x="542" d="M94 205q-31 -115 -31 -170q0 -29 14.5 -45.5t35.5 -16.5q39 0 84 23.5t94 64.5t99 98.5t97 123.5l-34 32q-96 -127 -205 -192q-4 31 9 110.5t40 176.5l303 1065l-367 -21l-16 -57h137l56 -66z" />
<glyph unicode="m" horiz-adv-x="1634" d="M1343 881q31 0 50.5 -16.5t19.5 -51.5q0 -16 -6 -37.5t-14.5 -44t-17.5 -43t-15 -35.5l-191 -383q-35 -72 -63.5 -141.5t-28.5 -103.5q0 -51 43 -52q35 0 85 22.5t107.5 63.5t118 97.5t115.5 122.5l-30 32q-74 -78 -127.5 -119.5t-112.5 -66.5q0 29 16.5 79t44.5 103 l211 408q27 53 42.5 99t15.5 93t-34 85t-106 38q-88 0 -167.5 -51t-151.5 -127t-133.5 -163t-112.5 -157h-4q37 86 63.5 151t43 112t24.5 80.5t8 56.5q0 41 -23.5 69.5t-101.5 28.5q-74 0 -148.5 -51t-145 -127t-134 -163t-114.5 -157h-4l190 492l-377 -20l-16 -58h137 l55 -65l-307 -881h156q47 174 106.5 311.5t124.5 223.5q49 68 101.5 130t101.5 110t91 77t73 29q63 0 63 -68q0 -33 -12 -65.5t-23 -63.5l-249 -684h176q25 106 49 188t51 146.5t54.5 116t58.5 94.5q115 160 205.5 248t168.5 88z" />
<glyph unicode="n" horiz-adv-x="1132" d="M842 881q31 0 50 -16.5t19 -51.5q0 -16 -6 -37.5t-14 -44t-17.5 -43t-15.5 -35.5l-190 -383q-35 -72 -64 -141.5t-29 -103.5q0 -51 43 -52q35 0 85.5 22.5t107.5 63.5t117.5 97.5t115.5 122.5l-30 32q-74 -78 -127 -119.5t-113 -66.5q0 29 16.5 79t45.5 103l211 408 q27 53 42 99t15 93t-34 85t-105 38q-78 0 -161 -49t-162 -123t-149.5 -161t-123.5 -165h-4l190 492l-377 -20l-16 -58h137l55 -65l-307 -881h156q33 100 60.5 180t55 144.5t56 116t59.5 94.5q51 72 105.5 135t107.5 110t102.5 74t92.5 27z" />
<glyph unicode="o" horiz-adv-x="870" d="M18 143q0 -78 40 -124t116 -46q92 0 180 44t167 117t146.5 167t115.5 192.5t76 193.5t28 173t-40 124t-116 46q-92 0 -180 -44t-167 -116.5t-146.5 -167t-115.5 -192.5t-76 -193.5t-28 -173.5zM319 109q-57 0 -80.5 39.5t-23.5 117.5q0 59 14.5 131t40 144.5t62.5 142.5 t80 123t93 85t103 32q57 0 81 -40t24 -118q0 -59 -14.5 -131t-40 -144.5t-62.5 -142t-80 -123t-93.5 -85t-103.5 -31.5z" />
<glyph unicode="p" horiz-adv-x="985" d="M829 756q0 -86 -32.5 -200t-88 -214t-130 -170t-156.5 -70q-35 0 -60.5 10.5t-44.5 22.5q-23 14 -36 35q33 115 94 240t129.5 229t134.5 173t106 69q43 0 63.5 -34t20.5 -91zM535 1030l-367 -26l-16 -58h137l55 -65l-328 -1157l-59 -66h-145l-19 -57h541l18 57h-129 l-57 66l72 260q31 -10 63 -11q76 0 157 42t158.5 112t148.5 160t124 189t84 199.5t31 188.5q0 86 -33 126t-94 40q-70 0 -136.5 -44t-131 -115.5t-124 -162t-114.5 -180.5h-6z" />
<glyph unicode="q" horiz-adv-x="937" d="M858 971q-20 20 -51 39.5t-86 19.5q-76 0 -157 -42t-158.5 -111.5t-148.5 -159.5t-124 -189.5t-84 -200t-31 -188.5q0 -86 33 -126t94 -40q70 0 136.5 44t131 116t124 162t114.5 180h4l-235 -751l-60 -66h-145l-18 -57h540l19 57h-129l-58 66l387 1300h-20zM193 248 q0 86 32.5 199.5t88 214t129 170t157.5 69.5q35 0 60.5 -11t44.5 -24q23 -14 36 -32q-33 -115 -94 -240t-129.5 -229.5t-134.5 -173t-107 -68.5q-43 0 -63 34t-20 91z" />
<glyph unicode="r" horiz-adv-x="770" d="M719 838q29 0 52.5 -7.5t51.5 -25.5h6l84 176q-8 10 -29.5 27.5t-72.5 17.5q-61 0 -123.5 -50t-124 -127t-118 -169t-101.5 -174h-10l205 518l-361 -20l-16 -58h137l55 -65l-307 -881h156q23 88 57.5 184.5t77.5 189.5t91 177t98.5 147.5t99.5 101.5t92 38z" />
<glyph unicode="s" horiz-adv-x="724" d="M492 956q41 0 67.5 -21.5t41.5 -56t21.5 -80.5t6.5 -96v-10h41l106 260q-59 41 -113.5 59.5t-121.5 18.5q-63 0 -121 -22.5t-101 -64.5t-68.5 -103.5t-25.5 -139.5q0 -74 30 -133t66.5 -116.5t66.5 -118t30 -135.5q0 -66 -33 -101t-92 -35q-31 0 -62.5 12.5t-59.5 40 t-48.5 70.5t-28.5 105l-2 14h-39l-90 -221q57 -53 122 -81t130 -28q172 0 258 94.5t86 245.5q0 82 -29.5 144.5t-65.5 119t-65.5 112.5t-29.5 124q0 59 35 101t88 42z" />
<glyph unicode="t" horiz-adv-x="606" d="M137 313q-12 -37 -24.5 -80t-23.5 -83.5t-17 -74.5t-6 -50q0 -51 43 -52q39 0 90 26t107 69t111.5 99t102.5 116l-31 32q-41 -41 -70.5 -69.5t-55 -50t-51 -39t-58.5 -33.5q0 63 49 215l189 598h219l20 68h-221l82 270h-43l-197 -270h-155l-15 -48l162 -32z" />
<glyph unicode="u" horiz-adv-x="1097" d="M197 1004l-17 -58h137l56 -65l-230 -531q-10 -23 -22 -56.5t-23.5 -70.5t-19.5 -72.5t-8 -60.5q0 -41 27.5 -79t99.5 -38q78 0 154.5 49.5t147 123t135 160.5t118.5 165h4l-80 -201q-29 -74 -48.5 -142.5t-19.5 -102.5q0 -51 43 -52q35 0 82 22.5t101.5 63.5t112 97.5 t112.5 122.5l-31 32q-74 -78 -127 -119.5t-113 -66.5q0 29 11.5 86t31.5 113l244 690l-168 -10q-41 -160 -99 -303.5t-122 -231.5q-53 -72 -103.5 -135.5t-98.5 -110.5t-90 -73.5t-75 -26.5q-31 0 -50 16.5t-19 50.5q0 33 16.5 75t32.5 85l274 674z" />
<glyph unicode="v" horiz-adv-x="878" d="M776 780q0 -109 -110.5 -252t-300.5 -354h-5l113 846l-317 -16l-17 -58h97l59 -65l-102 -901h51q154 158 281.5 292t218 247.5t140.5 207.5t50 172q0 72 -36 101.5t-79 29.5t-69.5 -6t-55.5 -20l-22 -156h39q25 0 45 -16.5t20 -51.5z" />
<glyph unicode="w" horiz-adv-x="1310" d="M1208 780q0 -109 -110.5 -252t-300.5 -354h-4l67 512q35 59 54.5 112.5t19.5 100.5q0 72 -36 101.5t-79 29.5q-27 0 -43 -3t-33 -9l-53 -453q-53 -80 -135 -175t-190 -216h-5l113 846l-317 -16l-17 -58h97l59 -65l-102 -901h51q129 131 237.5 245.5t194.5 214.5l-51 -460 h51q154 158 281.5 292t218 247.5t140.5 207.5t50 172q0 72 -36 101.5t-79 29.5t-69.5 -6t-55.5 -20l-22 -156h39q25 0 45 -16.5t20 -51.5z" />
<glyph unicode="x" horiz-adv-x="1017" d="M164 145q-25 0 -40 18.5t-15 59.5v15h-101q-29 -31 -48 -67t-19 -77q0 -45 23.5 -83t88.5 -38q45 0 92.5 38t97.5 99.5t102 140.5t108 159l49 -324q8 -51 30.5 -82t63.5 -31q39 0 75 21.5t72.5 57.5t74.5 84t79 102l-37 30q-18 -25 -38.5 -51.5t-42 -51t-44 -45 t-45.5 -30.5q-23 25 -33 52.5t-16 68.5l-49 330q125 168 187.5 242.5t92.5 74.5q35 0 45.5 -16.5t10.5 -48.5v-27h100q29 31 48.5 66.5t19.5 76.5q0 45 -26 83t-103 38q-43 0 -88 -36t-92.5 -95t-98.5 -135t-106 -156l-60 416l-315 -20l-17 -58h138l55 -65l59 -404 q-59 -84 -103 -145.5t-77 -103.5t-56.5 -62.5t-41.5 -20.5z" />
<glyph unicode="y" horiz-adv-x="923" d="M-98 -293q-27 0 -51.5 19.5t-24.5 60.5v51h-133q-29 -31 -48.5 -66.5t-19.5 -76.5q0 -45 34 -83t99 -38q61 0 121 22.5t127.5 70.5t148.5 125t185 188q307 322 466 551t159 368q0 70 -42 100.5t-85 30.5t-73 -8t-52 -18l-23 -156h53q33 0 52.5 -16.5t19.5 -51.5 q0 -84 -115.5 -267t-377.5 -480h-5q18 53 35 119.5t36.5 175t44 274.5t59.5 418l-318 -16l-16 -58h96l59 -65q-23 -172 -39 -326t-32.5 -281t-37 -224t-52.5 -161q-25 -47 -57 -80.5t-65.5 -56t-67 -34t-60.5 -11.5z" />
<glyph unicode="z" horiz-adv-x="901" d="M487 -283q61 0 111.5 21.5t87.5 52.5t56.5 65.5t19.5 61.5q0 31 -8.5 48.5t-24.5 33.5h-141v-74q0 -25 -5 -52.5t-15.5 -50t-30 -37.5t-45.5 -15q-41 0 -68 48t-57.5 112.5t-73.5 129t-119 99.5l813 786v58h-711l-110 -314h41l123 160h461v-4l-879 -866l22 -21l103 41 q53 0 97 -44t93 -97.5t110.5 -97.5t149.5 -44z" />
<glyph unicode="{" horiz-adv-x="718" d="M188 537q18 4 52 19t71 46t70 82t49 129l66 342q8 47 27.5 102.5t50 103.5t73.5 80t101 32q25 0 51 -5.5t55 -13.5l25 47q-57 29 -154 29q-47 0 -98.5 -14.5t-99.5 -53.5t-87 -104.5t-59 -169.5l-66 -342q-25 -123 -75 -184.5t-136 -65.5l-26 -133q86 -4 111.5 -66.5 t3.5 -185.5l-68 -346q-20 -102 -7 -169t46 -106t78 -53t92 -14q96 0 166 28l-6 50q-33 -10 -59.5 -15.5t-53.5 -5.5q-57 0 -88 32t-43 80t-10 104.5t12 103.5l67 344q14 78 1 130t-37.5 83.5t-52 48t-44.5 20.5z" />
<glyph unicode="|" horiz-adv-x="524" d="M252 0l283 1454h-109l-283 -1454h109z" />
<glyph unicode="}" horiz-adv-x="716" d="M578 516q-18 -4 -53.5 -19.5t-72 -46t-69.5 -82t-47 -128.5l-66 -342q-10 -47 -28.5 -102.5t-49 -103.5t-73.5 -80t-101 -32q-25 0 -51 5t-55 14l-25 -48q57 -29 154 -28q45 0 97 14t100.5 53t87.5 104.5t59 170.5l66 342q25 123 74.5 184.5t136.5 65.5l26 133 q-86 4 -111.5 66.5t-3.5 185.5l68 346q20 102 7 168.5t-46 104.5t-79 53.5t-91 15.5q-96 0 -166 -29l6 -49q33 10 59.5 15.5t53.5 5.5q57 0 88 -32t43 -80t9 -104.5t-11 -103.5l-68 -344q-14 -78 -1.5 -130t37 -84t53 -48.5t45.5 -20.5z" />
<glyph unicode="~" horiz-adv-x="1312" d="M860 590q-55 0 -105 13t-99.5 28.5t-98.5 29t-102 13.5q-72 0 -153 -25.5t-159 -66.5q8 -23 15.5 -39.5t17.5 -36.5q76 37 138.5 54.5t125.5 17.5q53 0 102.5 -13.5t97.5 -30t97 -29.5t103 -13q160 0 321 94l-35 78q-78 -41 -138 -57.5t-128 -16.5z" />
<glyph unicode="&#xa1;" horiz-adv-x="579" d="M391 1315q0 -59 40 -99t99 -40t99.5 39.5t40.5 99.5q0 59 -40 99t-100 40q-59 0 -99 -40t-40 -99zM184 422l-121 -449h195l121 449l86 600h-45z" />
<glyph unicode="&#xa2;" horiz-adv-x="1069" d="M209 389q0 92 32.5 182.5t88 166t128 131t152.5 77.5l-258 -823q-68 25 -105.5 90t-37.5 176zM758 1030q-6 0 -12.5 -1t-12.5 -1l25 78h-96l-29 -92q-117 -27 -222.5 -98.5t-187.5 -170t-130 -217t-48 -239.5q0 -123 63.5 -209t198.5 -103l-24 -79h96l24 77 q145 14 268.5 109.5t227.5 255.5l-41 20q-86 -104 -190.5 -177.5t-223.5 -73.5l269 852q90 -4 125.5 -61.5t40.5 -184.5v-33h61l117 340h-51l-50 -39q-23 12 -70.5 29.5t-127.5 17.5z" />
<glyph unicode="&#xa3;" horiz-adv-x="1251" d="M815 1399q78 0 124 -31t44 -121l-2 -147h213q16 35 24.5 66.5t8.5 66.5q0 66 -28 113t-75 76.5t-109.5 43t-131.5 13.5q-98 0 -182.5 -32t-149 -88t-108.5 -136t-62 -179l-47 -241h-174l-19 -94h174q-31 -160 -65.5 -268.5t-71.5 -178t-78 -107.5t-84 -59l-18 -96h156 q55 37 134 58.5t144 21.5q55 0 91 -16.5t71 -38.5q29 -20 63.5 -36t87.5 -16q35 0 80 19.5t92.5 53.5t93.5 80t83 99l-31 27q-23 -20 -47.5 -41t-53 -37t-62.5 -26.5t-73 -10.5q-41 0 -73.5 16.5t-67.5 39.5t-76 41t-94 18q-49 0 -121.5 -23.5t-138.5 -87.5l-10 13 q61 55 100 100t66.5 103.5t48 140.5t45.5 211h416l18 94h-418l53 276q12 63 29 120.5t44.5 102t67.5 71t99 26.5z" />
<glyph unicode="&#xa4;" horiz-adv-x="1208" d="M354 680q0 55 20.5 105.5t56.5 88t85 59t105 21.5q55 0 104 -21.5t85 -59t56.5 -88t20.5 -105.5t-20.5 -105.5t-56.5 -88t-85 -59t-104 -21.5t-104.5 21.5t-85.5 59t-56.5 88t-20.5 105.5zM240 680q0 -137 84 -240l-125 -125l57 -59l125 125q49 -39 110.5 -60.5 t129.5 -21.5t128 21.5t109 60.5l127 -125l57 59l-124 125q84 102 83 240q0 68 -21.5 128t-61.5 110l124 124l-59 58l-123 -123q-49 41 -110.5 62.5t-128.5 21.5q-137 0 -240 -84l-123 123l-59 -58l123 -124q-39 -49 -60.5 -109.5t-21.5 -128.5z" />
<glyph unicode="&#xa5;" horiz-adv-x="1382" d="M827 709h398l18 94h-336l527 614l8 37h-420l-12 -57h153l64 -86l-443 -535h-4l-241 535l82 86h192l12 57h-600l-8 -37l123 -106l233 -508h-276l-18 -94h337l11 -21l-35 -170h-340l-19 -94h340l-57 -281l-117 -86h-149l-10 -57h688l10 57h-152l-79 86l55 281h418l18 94 h-418l35 176z" />
<glyph unicode="&#xa6;" horiz-adv-x="534" d="M262 594l-112 -594h108l113 594h-109zM426 860l115 594h-109l-115 -594h109z" />
<glyph unicode="&#xa7;" horiz-adv-x="1228" d="M920 274q0 -66 -28 -124t-95 -84q-20 80 -61.5 146.5t-90.5 123.5t-102.5 109.5t-96.5 105.5t-70.5 108.5t-27.5 120.5q0 78 30 129.5t83 77.5q20 -74 62 -138.5t93.5 -123.5t104.5 -114.5t97 -110t73 -111t29 -115.5zM444 1102v-27.5t2 -27.5q-117 -43 -182 -131.5 t-65 -213.5q0 -92 34.5 -169.5t88 -146.5t115 -132.5t114.5 -124.5t88 -123.5t35 -130.5q0 -41 -11.5 -81t-37 -72.5t-66.5 -52t-102 -19.5q-80 0 -144.5 33.5t-115 89t-85 127t-53.5 147.5l-4 19h-61l-94 -484h61l76 76q27 -12 59.5 -26.5t74.5 -28t95 -21.5t123 -8 q98 0 177 28.5t134.5 79t84 117t28.5 142.5q0 16 -1 30.5t-3 28.5q119 41 184.5 133t65.5 207q0 104 -35 187t-86 152t-111.5 128t-111.5 117.5t-86 120t-35 135.5q0 111 59.5 170t167.5 59q117 0 197 -88t106 -229l9 -50h61l84 431h-59l-43 -60q-49 25 -112 46.5t-165 21.5 t-185 -27t-143.5 -76t-93.5 -119.5t-33 -156.5z" />
<glyph unicode="&#xa8;" horiz-adv-x="450" d="M563 1329q0 53 -35.5 89t-89.5 36q-53 0 -89 -36t-36 -89t36 -89t89 -36t89 36t36 89zM137 1329q0 53 -35.5 89t-89.5 36q-53 0 -89 -36t-36 -89t36 -89t89 -36t89 36t36 89z" />
<glyph unicode="&#xa9;" horiz-adv-x="1740" d="M903 1094q94 0 144.5 -43t89.5 -125l24 -52h62v279h-52l-36 -39q-27 12 -78 29.5t-131 17.5q-102 0 -184.5 -32.5t-139.5 -91t-88 -139.5t-31 -179t35 -177t92.5 -133.5t132 -84t154.5 -29.5q82 0 143.5 31.5t105.5 79t73.5 104.5t50.5 111l-47 20q-35 -68 -96.5 -118 t-174.5 -50q-53 0 -103 19.5t-89 57.5t-62.5 95t-23.5 133q0 152 67.5 234t161.5 82zM207 727q0 141 54 267t147.5 220.5t219.5 149.5t267 55t267 -55t219.5 -149.5t147.5 -220.5t54 -267t-54 -267t-147.5 -220.5t-219.5 -149.5t-267 -55t-267 55t-219.5 149.5t-147.5 220.5 t-54 267zM141 727q0 -156 59.5 -293t162 -239.5t239.5 -162t293 -59.5t293 59.5t239.5 162t162 239.5t59.5 293t-59.5 293t-162 239.5t-239.5 162t-293 59.5t-293 -59.5t-239.5 -162t-162 -239.5t-59.5 -293z" />
<glyph unicode="&#xaa;" horiz-adv-x="901" d="M360 823q0 43 16.5 101.5t43 119t62.5 120t75 105.5t80 74.5t76 28.5q23 0 37 -10t22 -21q8 -14 14 -30q-14 -43 -39.5 -100.5t-59.5 -120t-71.5 -123t-75.5 -107.5t-72 -76.5t-58 -29.5q-23 0 -36.5 13t-13.5 56zM635 836q-16 -35 -25.5 -59.5t-13.5 -43t-6 -34 t-2 -31.5q0 -51 43 -52q39 0 79 21.5t82 58.5t82.5 84t81.5 99l-34 32q-49 -66 -82 -95.5t-64 -49.5q0 29 11.5 84t37.5 131l154 494h-21l-57 -39q-20 20 -38.5 32.5t-53.5 12.5t-94.5 -28t-127 -77t-137 -117.5t-126 -150.5t-92 -174t-35.5 -191q0 -57 29.5 -92t76.5 -35 q55 0 103.5 23t94.5 69t92 113.5t99 157.5h4z" />
<glyph unicode="&#xab;" horiz-adv-x="976" d="M760 76h33l-142 426l305 424h-32l-432 -394l-11 -57zM393 72h31l-139 426l305 424h-31l-434 -394l-12 -57z" />
<glyph unicode="&#xac;" horiz-adv-x="839" d="M567 381h82l47 246h-532l-17 -82h451z" />
<glyph unicode="&#xad;" horiz-adv-x="735" d="M621 545l16 82h-451l-16 -82h451z" />
<glyph unicode="&#xae;" horiz-adv-x="1740" d="M809 684h10q59 0 101 -68l188 -301h221v25l-231 336l-101 37v4q51 6 99.5 20.5t85.5 40t59.5 64.5t22.5 92q0 111 -92.5 159t-282.5 48h-408v-58h76l57 -65v-580l-57 -65h-76v-58h467v58h-82l-57 65v246zM809 754v317h70q33 0 64.5 -6t57 -23.5t41 -47t15.5 -76.5 t-15.5 -79t-40 -50.5t-56.5 -26.5t-64 -8h-72zM207 727q0 141 54 267t147.5 220.5t219.5 149.5t267 55t267 -55t219.5 -149.5t147.5 -220.5t54 -267t-54 -267t-147.5 -220.5t-219.5 -149.5t-267 -55t-267 55t-219.5 149.5t-147.5 220.5t-54 267zM141 727q0 -156 59.5 -293 t162 -239.5t239.5 -162t293 -59.5t293 59.5t239.5 162t162 239.5t59.5 293t-59.5 293t-162 239.5t-239.5 162t-293 59.5t-293 -59.5t-239.5 -162t-162 -239.5t-59.5 -293z" />
<glyph unicode="&#xaf;" horiz-adv-x="450" d="M440 1372l21 82h-451l-20 -82h450z" />
<glyph unicode="&#xb0;" horiz-adv-x="708" d="M395 1200q0 66 45 113t111 47t111 -47t45 -113t-45.5 -113t-110.5 -47q-66 0 -111 47t-45 113zM297 1200q0 -53 20.5 -99t54.5 -80t80 -54.5t99 -20.5q51 0 98 20.5t81 54.5t54.5 80t20.5 99q0 51 -20.5 98.5t-54.5 81t-81 54t-98 20.5q-53 0 -99 -20.5t-80 -54 t-54.5 -81t-20.5 -98.5z" />
<glyph unicode="&#xb1;" horiz-adv-x="1138" d="M1018 670l18 94h-381l76 385h-98l-76 -385h-381l-18 -94h381l-78 -402h98l78 402h381zM889 0l16 94h-860l-16 -94h860z" />
<glyph unicode="&#xb2;" horiz-adv-x="849" d="M664 1432q51 0 68.5 -32t17.5 -79q0 -80 -61.5 -163t-146.5 -159.5t-173 -139t-144 -101.5l-18 -103h563l100 271h-24l-127 -129h-348v4q70 33 164 86t178 119.5t143 143.5t59 161q0 51 -22.5 83.5t-57 52t-77.5 27t-84 7.5q-72 0 -133.5 -19.5t-107.5 -50.5t-72.5 -68.5 t-26.5 -74.5q0 -25 6 -36t10 -18h174v43q0 78 42.5 126.5t97.5 48.5z" />
<glyph unicode="&#xb3;" horiz-adv-x="784" d="M881 1370l16 84h-410l-67 27h-21l-57 -156h328l-2 -4l-273 -197l-12 -69q39 20 79 31.5t75 11.5q57 0 98 -32t41 -85q0 -104 -62.5 -167.5t-160.5 -63.5q-76 0 -129.5 28.5t-85.5 63.5l-35 -11q23 -104 84 -160.5t172 -56.5q74 0 137 30t111.5 79t76 111.5t27.5 130.5 q0 94 -53 142t-131 48q-18 0 -53 -2t-70 -16v4z" />
<glyph unicode="&#xb4;" horiz-adv-x="450" d="M403 1454q-102 -86 -214.5 -151.5t-243.5 -118.5l22 -31q133 41 261 91t280 128z" />
<glyph unicode="&#xb5;" horiz-adv-x="1261" d="M260 1004l-16 -58h137l39 -65l-506 -1278h162l147 374q10 -2 18.5 -3t18.5 -1q78 0 155 49.5t147.5 123t135 160.5t117.5 165h4l-80 -201q-29 -74 -48 -142.5t-19 -102.5q0 -51 43 -52q35 0 82 22.5t101 63.5t111.5 97.5t112.5 122.5l-30 32q-74 -78 -127.5 -119.5 t-112.5 -66.5q0 29 11 86t32 113l244 690l-168 -10q-41 -160 -99.5 -303.5t-121.5 -231.5q-53 -72 -103.5 -135.5t-98.5 -110.5t-90 -73.5t-75 -26.5q-31 0 -50.5 16.5t-19.5 50.5q0 33 16.5 75t32.5 85l275 674z" />
<glyph unicode="&#xb6;" horiz-adv-x="1177" d="M870 1397h127l-356 -1397h117l364 1397h105l16 57h-508q-90 0 -173 -31.5t-149.5 -87t-114.5 -129t-71 -155.5q-23 -84 -11.5 -157t51.5 -127t103.5 -86t147.5 -32h21l-74 -276q-43 -166 -93 -246t-98 -80q-47 0 -65.5 29.5t-18.5 81.5v28h-147q-14 -10 -25.5 -33.5 t-11.5 -58.5q0 -51 43 -86t141 -35q84 0 154 44t127 122t101 183.5t77 228.5z" />
<glyph unicode="&#xb7;" horiz-adv-x="567" d="M516 717q0 68 -48 116t-116 48t-116 -48.5t-48 -115.5q0 -68 48.5 -116t115.5 -48q68 0 116 48t48 116z" />
<glyph unicode="&#xb8;" horiz-adv-x="450" d="M475 -254q0 37 -16.5 64.5t-43 44t-61.5 24.5t-69 8q-16 0 -30.5 -1t-33.5 -5l72 144h-66l-106 -207l14 -13q23 4 39 7.5t45 3.5q41 0 67.5 -19.5t26.5 -52.5q0 -51 -40 -82t-78 -31q-33 0 -69 6.5t-65 18.5l-30 -47q43 -14 91 -24.5t101 -10.5q47 0 92 10t81 32 t57.5 53.5t21.5 76.5z" />
<glyph unicode="&#xb9;" horiz-adv-x="827" d="M330 1276l-15 -72l248 117l-98 -522l-98 -86h-152l-10 -58h620l11 58h-150l-65 86l135 712h-4z" />
<glyph unicode="&#xba;" horiz-adv-x="997" d="M612 676q-100 0 -151 79t-51 208q0 68 19.5 148.5t57 149t94 114.5t128.5 46q100 0 151 -78.5t51 -207.5q0 -68 -19.5 -149t-57 -149.5t-94 -114.5t-128.5 -46zM1079 1155q0 150 -91 238t-247 88q-111 0 -201.5 -46t-157.5 -122t-103.5 -170t-36.5 -193q0 -150 88 -243 t250 -93q111 0 201.5 48.5t157.5 125t103.5 174t36.5 193.5z" />
<glyph unicode="&#xbb;" horiz-adv-x="980" d="M252 922h-33l141 -426l-305 -424h33l432 393l10 57zM618 926h-30l139 -426l-305 -424h31l434 393l12 57z" />
<glyph unicode="&#xbc;" horiz-adv-x="1759" d="M1391 799q-39 -84 -83 -158t-93.5 -143.5t-105.5 -138t-120 -144.5l-8 -39h291l-41 -196h155l41 196h172l15 66h-172l43 223h-37l-148 -146l-14 -77h-199v4q70 61 141.5 129.5t139.5 141.5t128 144.5t110 137.5h-215zM1780 1454h-111l-1442 -1454h119zM238 1276l-15 -72 l248 117l-98 -522l-99 -86h-151l-10 -58h620l10 58h-149l-66 86l136 712h-5z" />
<glyph unicode="&#xbd;" horiz-adv-x="1892" d="M1780 1454h-111l-1442 -1454h119zM238 1276l-15 -72l248 117l-98 -522l-99 -86h-151l-10 -58h620l10 58h-149l-66 86l136 712h-5zM1540 776q51 0 68.5 -31.5t17.5 -78.5q0 -80 -61.5 -163t-146.5 -160t-173 -139.5t-143 -101.5l-19 -102h564l100 270h-25l-127 -129h-348 v4q70 33 164 86.5t178 120t143.5 143t59.5 160.5q0 51 -22.5 84t-57.5 52.5t-78 26.5t-84 7q-72 0 -133 -19.5t-107 -50t-73 -68.5t-27 -75q0 -25 6.5 -36t10.5 -17h174v43q0 78 42 126t97 48z" />
<glyph unicode="&#xbe;" horiz-adv-x="1777" d="M1407 799q-39 -84 -83 -158t-93 -143.5t-105.5 -138t-119.5 -144.5l-9 -39h291l-41 -196h156l41 196h172l14 66h-172l43 223h-37l-147 -146l-14 -77h-199v4q70 61 141.5 129.5t139 141.5t128 144.5t109.5 137.5h-215zM1796 1454h-110l-1442 -1454h118zM795 1370l16 84 h-410l-67 27h-21l-57 -156h328l-2 -4l-273 -197l-12 -69q39 20 79 31.5t75 11.5q57 0 98 -32t41 -85q0 -104 -62.5 -167.5t-160.5 -63.5q-76 0 -129.5 28.5t-85.5 63.5l-35 -11q23 -104 84 -160.5t172 -56.5q74 0 137 30t111.5 79t76 111.5t27.5 130.5q0 94 -53.5 142 t-130.5 48q-18 0 -53 -2t-70 -16v4z" />
<glyph unicode="&#xbf;" horiz-adv-x="937" d="M281 27q-53 0 -83 33.5t-30 86.5q0 92 38 186.5t108.5 200t171 225.5t223.5 265l-31 23l-115 -119q-98 -100 -201.5 -208t-189.5 -213.5t-140.5 -204.5t-54.5 -185q0 -66 59.5 -105t182.5 -39q90 0 181.5 27t164 74t118.5 111.5t46 140.5q0 29 -7 54.5t-17 41.5h-175v-47 q0 -61 -21.5 -124t-56 -113t-78.5 -80.5t-93 -30.5zM690 1341q0 -59 40 -99t99 -40t99.5 40t40.5 99t-40 99.5t-100 40.5q-59 0 -99 -40.5t-40 -99.5z" />
<glyph unicode="&#xc0;" d="M983 1864q150 -166 315 -271l-22 -30q-102 41 -198.5 93t-198.5 126zM936 657v613l-426 -613h426zM936 1536h176v-1393l102 -106l-8 -37h-510l15 57h141l84 86v432h-481l-271 -391l68 -127h168l-14 -57h-451l8 37l973 1390v109z" />
<glyph unicode="&#xc1;" d="M1204 1864q-102 -86 -214.5 -151.5t-244.5 -119.5l23 -30q133 41 261 91t280 128zM510 657l426 613v-613h-426zM936 1427l-973 -1390l-8 -37h451l14 57h-168l-68 127l271 391h481v-432l-84 -86h-141l-15 -57h510l8 37l-102 106v1393h-176v-109z" />
<glyph unicode="&#xc2;" d="M1128 1862v2q-84 -84 -189 -148.5t-228 -122.5l22 -30q123 37 209 71.5t150 67.5q35 -35 81 -69t107 -70l23 30q-53 53 -97.5 128t-75.5 143zM510 657l426 613v-613h-426zM936 1427l-973 -1390l-8 -37h451l14 57h-168l-68 127l271 391h481v-432l-84 -86h-141l-15 -57h510 l8 37l-102 106v1393h-176v-109z" />
<glyph unicode="&#xc3;" d="M1192 1669q35 0 68.5 15.5t65.5 40t63.5 56t60.5 64.5l-35 39q-16 -12 -36.5 -27.5t-45 -31t-49 -25.5t-47.5 -10q-27 0 -49.5 15.5t-47 35t-52 34.5t-66.5 15q-35 0 -67.5 -15t-65.5 -40t-63.5 -56.5t-59.5 -64.5l35 -39q14 12 35.5 27.5t46 31t49 25.5t47.5 10 q35 0 58.5 -15t45 -34.5t47 -35t62.5 -15.5zM510 657l426 613v-613h-426zM936 1427l-973 -1390l-8 -37h451l14 57h-168l-68 127l271 391h481v-432l-84 -86h-141l-15 -57h510l8 37l-102 106v1393h-176v-109z" />
<glyph unicode="&#xc4;" d="M1397 1739q0 53 -36 89t-89 36t-89 -36t-36 -89t36 -89t89 -36t89 36t36 89zM971 1739q0 53 -36 89t-89 36t-89 -36t-36 -89t36 -89t89 -36t89 36t36 89zM510 657l426 613v-613h-426zM936 1427l-973 -1390l-8 -37h451l14 57h-168l-68 127l271 391h481v-432l-84 -86h-141 l-15 -57h510l8 37l-102 106v1393h-176v-109z" />
<glyph unicode="&#xc5;" d="M1223 1804q0 -41 -30 -69.5t-73 -28.5q-41 0 -69.5 28.5t-28.5 69.5q0 43 28.5 73t69.5 30q43 0 73 -30t30 -73zM1288 1804q0 72 -48 120t-120 48q-70 0 -118 -48t-48 -120q0 -70 48.5 -118t117.5 -48q72 0 120 48t48 118zM510 657l426 613v-613h-426zM936 1427 l-973 -1390l-8 -37h451l14 57h-168l-68 127l271 391h481v-432l-84 -86h-141l-15 -57h510l8 37l-102 106v1393h-176v-109z" />
<glyph unicode="&#xc6;" horiz-adv-x="1951" d="M461 555l565 723v-723h-565zM1026 143l-84 -86h-141l-15 -57h963l143 369h-37l-256 -287h-337l-60 61v588h328l57 -246h37l113 574h-37l-154 -246h-344v559h637l74 -266h37l69 348h-1214l-12 -57h125l43 -62l-1020 -1298l-9 -37h461l15 57h-168l-68 127l225 289h629v-330 z" />
<glyph unicode="&#xc7;" horiz-adv-x="1409" d="M883 -254q0 37 -16.5 64.5t-43 44t-61.5 24.5t-70 8q-16 0 -30.5 -1t-32.5 -5l45 92q115 0 222.5 45t198.5 111t159.5 140.5t107.5 136.5l-53 20q-104 -131 -256 -210t-332 -79q-100 0 -172 45t-118 117t-68.5 163t-22.5 183q0 147 55.5 284.5t144.5 242t200.5 167 t222.5 62.5q92 0 154.5 -29t103.5 -76t65.5 -107.5t44.5 -125.5l10 -33h62l86 443h-62l-65 -76q-18 12 -44 26.5t-62.5 27.5t-89 21.5t-126.5 8.5q-154 0 -310.5 -72t-283.5 -199t-206.5 -302t-79.5 -384q0 -92 20.5 -185t71.5 -170t138 -130t218 -64l-80 -157l15 -13 q23 4 39 7.5t45 3.5q41 0 67.5 -19.5t26.5 -52.5q0 -51 -40 -82t-79 -31q-33 0 -68.5 6.5t-64.5 18.5l-31 -47q43 -14 91.5 -24.5t101.5 -10.5q47 0 92 10t81 32t57.5 53.5t21.5 76.5z" />
<glyph unicode="&#xc8;" horiz-adv-x="1282" d="M729 1782q102 -74 198.5 -126t198.5 -93l23 30q-166 104 -315 271zM1169 1372l74 -266h37l70 348h-1045l-12 -57h125l63 -86l-231 -1168l-117 -86h-102l-13 -57h1061l144 369h-37l-256 -287h-512l129 649h313l58 -246h36l113 574h-37l-153 -246h-314l111 559h495z" />
<glyph unicode="&#xc9;" horiz-adv-x="1282" d="M1116 1864q-102 -86 -215 -151.5t-244 -119.5l23 -30q133 41 261 91t280 128zM1169 1372l74 -266h37l70 348h-1045l-12 -57h125l63 -86l-231 -1168l-117 -86h-102l-13 -57h1061l144 369h-37l-256 -287h-512l129 649h313l58 -246h36l113 574h-37l-153 -246h-314l111 559 h495z" />
<glyph unicode="&#xca;" horiz-adv-x="1282" d="M1061 1862v2q-84 -84 -189.5 -148.5t-228.5 -122.5l23 -30q123 37 209 71.5t149 67.5q35 -35 81 -69t107 -70l23 30q-53 53 -97 128t-75 143zM1169 1372l74 -266h37l70 348h-1045l-12 -57h125l63 -86l-231 -1168l-117 -86h-102l-13 -57h1061l144 369h-37l-256 -287h-512 l129 649h313l58 -246h36l113 574h-37l-153 -246h-314l111 559h495z" />
<glyph unicode="&#xcb;" horiz-adv-x="1282" d="M1276 1739q0 53 -36 89t-89 36t-89 -36t-36 -89t36 -89t89 -36t89 36t36 89zM850 1739q0 53 -36 89t-89 36t-89 -36t-36 -89t36 -89t89 -36t89 36t36 89zM1169 1372l74 -266h37l70 348h-1045l-12 -57h125l63 -86l-231 -1168l-117 -86h-102l-13 -57h1061l144 369h-37 l-256 -287h-512l129 649h313l58 -246h36l113 574h-37l-153 -246h-314l111 559h495z" />
<glyph unicode="&#xcc;" horiz-adv-x="749" d="M446 1782q102 -74 198.5 -126t199.5 -93l22 30q-166 104 -315 271zM657 1311l95 86h116l13 57h-570l-12 -57h115l63 -86l-231 -1168l-96 -86h-113l-12 -57h569l10 57h-117l-61 86z" />
<glyph unicode="&#xcd;" horiz-adv-x="749" d="M793 1864q-102 -86 -215 -151.5t-244 -119.5l22 -30q133 41 261 91t280 128zM657 1311l95 86h116l13 57h-570l-12 -57h115l63 -86l-231 -1168l-96 -86h-113l-12 -57h569l10 57h-117l-61 86z" />
<glyph unicode="&#xce;" horiz-adv-x="749" d="M717 1862v2q-84 -84 -189.5 -148.5t-228.5 -122.5l23 -30q123 37 208.5 71.5t149.5 67.5q35 -35 81 -69t107 -70l23 30q-53 53 -97 128t-75 143zM657 1311l95 86h116l13 57h-570l-12 -57h115l63 -86l-231 -1168l-96 -86h-113l-12 -57h569l10 57h-117l-61 86z" />
<glyph unicode="&#xcf;" horiz-adv-x="749" d="M969 1739q0 53 -36 89t-89 36t-89 -36t-36 -89t36 -89t89 -36t89 36t36 89zM543 1739q0 53 -36 89t-89 36t-89 -36t-36 -89t36 -89t89 -36t89 36t36 89zM657 1311l95 86h116l13 57h-570l-12 -57h115l63 -86l-231 -1168l-96 -86h-113l-12 -57h569l10 57h-117l-61 86z" />
<glyph unicode="&#xd0;" horiz-adv-x="1495" d="M666 1339q37 8 75 17q33 6 73 11t75 5q117 0 193.5 -41t122.5 -105.5t65.5 -142t19.5 -151.5q0 -47 -9 -127t-34.5 -172t-69.5 -185.5t-113 -170t-165 -125t-225 -48.5q-41 0 -85 6.5t-79 16.5q-41 8 -82 23l119 593h428l16 82h-428zM592 0q203 0 368.5 82t284.5 215 t183.5 303t64.5 346q0 86 -28.5 176t-100.5 164t-193.5 121t-308.5 47h-559l-12 -57h125l63 -86l-96 -486h-190l-17 -82h191l-117 -600l-98 -86h-123l-13 -57h576z" />
<glyph unicode="&#xd1;" horiz-adv-x="1572" d="M1145 1669q35 0 68.5 15.5t65.5 40t63.5 56t60.5 64.5l-35 39q-16 -12 -36.5 -27.5t-45 -31t-49.5 -25.5t-47 -10q-27 0 -49.5 15.5t-47 35t-52 34.5t-66.5 15q-35 0 -68 -15t-65.5 -40t-63 -56.5t-59.5 -64.5l35 -39q14 12 35.5 27.5t46 31t49 25.5t47.5 10 q35 0 58.5 -15t45 -34.5t47 -35t62.5 -15.5zM1702 1397l12 57h-520l-12 -57h139l72 -127l-191 -938h-4l-598 1122h-274l-13 -57h90l68 -129l-213 -1082l-108 -129h-99l-12 -57h520l10 57h-139l-72 129l189 955h4l614 -1161h72l256 1290l113 127h96z" />
<glyph unicode="&#xd2;" horiz-adv-x="1560" d="M975 1782q102 -74 198.5 -126t198.5 -93l23 30q-166 104 -316 271zM342 592q0 156 50 296t135 247.5t199 171t243 63.5q193 0 295 -112.5t102 -348.5q0 -170 -51 -318.5t-137 -261t-201 -177t-240 -64.5q-180 0 -287.5 122t-107.5 382zM1073 1481q-182 0 -350 -86 t-296 -227.5t-204 -321.5t-76 -371q0 -80 20.5 -168t74 -162.5t147.5 -123t240 -48.5q176 0 345 82t301 222.5t213 324.5t81 389q0 70 -22.5 156t-79 159.5t-153 124t-241.5 50.5z" />
<glyph unicode="&#xd3;" horiz-adv-x="1560" d="M1280 1864q-102 -86 -215 -151.5t-244 -119.5l23 -30q133 41 261 91t279 128zM342 592q0 156 50 296t135 247.5t199 171t243 63.5q193 0 295 -112.5t102 -348.5q0 -170 -51 -318.5t-137 -261t-201 -177t-240 -64.5q-180 0 -287.5 122t-107.5 382zM1073 1481 q-182 0 -350 -86t-296 -227.5t-204 -321.5t-76 -371q0 -80 20.5 -168t74 -162.5t147.5 -123t240 -48.5q176 0 345 82t301 222.5t213 324.5t81 389q0 70 -22.5 156t-79 159.5t-153 124t-241.5 50.5z" />
<glyph unicode="&#xd4;" horiz-adv-x="1560" d="M1235 1862v2q-84 -84 -189.5 -148.5t-228.5 -122.5l23 -30q123 37 209 71.5t149 67.5q35 -35 81 -69t107 -70l23 30q-53 53 -97 128t-75 143zM342 592q0 156 50 296t135 247.5t199 171t243 63.5q193 0 295 -112.5t102 -348.5q0 -170 -51 -318.5t-137 -261t-201 -177 t-240 -64.5q-180 0 -287.5 122t-107.5 382zM1073 1481q-182 0 -350 -86t-296 -227.5t-204 -321.5t-76 -371q0 -80 20.5 -168t74 -162.5t147.5 -123t240 -48.5q176 0 345 82t301 222.5t213 324.5t81 389q0 70 -22.5 156t-79 159.5t-153 124t-241.5 50.5z" />
<glyph unicode="&#xd5;" horiz-adv-x="1560" d="M1249 1669q35 0 69 15.5t65.5 40t63.5 56t60 64.5l-34 39q-16 -12 -37 -27.5t-45.5 -31t-49 -25.5t-47.5 -10q-27 0 -49 15.5t-46.5 35t-52.5 34.5t-67 15q-35 0 -67.5 -15t-65.5 -40t-63.5 -56.5t-59.5 -64.5l35 -39q14 12 35.5 27.5t46.5 31t49.5 25.5t46.5 10 q35 0 58.5 -15t45 -34.5t47 -35t62.5 -15.5zM342 592q0 156 50 296t135 247.5t199 171t243 63.5q193 0 295 -112.5t102 -348.5q0 -170 -51 -318.5t-137 -261t-201 -177t-240 -64.5q-180 0 -287.5 122t-107.5 382zM1073 1481q-182 0 -350 -86t-296 -227.5t-204 -321.5 t-76 -371q0 -80 20.5 -168t74 -162.5t147.5 -123t240 -48.5q176 0 345 82t301 222.5t213 324.5t81 389q0 70 -22.5 156t-79 159.5t-153 124t-241.5 50.5z" />
<glyph unicode="&#xd6;" horiz-adv-x="1560" d="M1456 1739q0 53 -36 89t-89 36t-89 -36t-36 -89t36 -89t89 -36t89 36t36 89zM1030 1739q0 53 -36 89t-89 36t-89 -36t-36 -89t36 -89t89 -36t89 36t36 89zM342 592q0 156 50 296t135 247.5t199 171t243 63.5q193 0 295 -112.5t102 -348.5q0 -170 -51 -318.5t-137 -261 t-201 -177t-240 -64.5q-180 0 -287.5 122t-107.5 382zM1073 1481q-182 0 -350 -86t-296 -227.5t-204 -321.5t-76 -371q0 -80 20.5 -168t74 -162.5t147.5 -123t240 -48.5q176 0 345 82t301 222.5t213 324.5t81 389q0 70 -22.5 156t-79 159.5t-153 124t-241.5 50.5z" />
<glyph unicode="&#xd7;" horiz-adv-x="1075" d="M113 342l422 373l-273 364l88 74l273 -365l417 367l70 -86l-422 -367l275 -362l-86 -70l-275 359l-422 -369z" />
<glyph unicode="&#xd8;" horiz-adv-x="1560" d="M737 88q-92 0 -164.5 29.5t-123.5 93.5l868 960q49 -102 49 -262q0 -170 -51 -318.5t-137 -261t-201 -177t-240 -64.5zM342 592q0 156 50 296t135 247.5t199 171t243 63.5q203 0 303 -125l-871 -960q-59 119 -59 307zM1073 1481q-182 0 -350 -86t-296 -227.5t-204 -321.5 t-76 -371q0 -86 23 -180t86 -170l-113 -125h113l59 66q55 -43 132 -68t182 -25q176 0 345 82t301 222.5t213 324.5t81 389q0 74 -25.5 164t-89.5 168l119 131h-113l-67 -74q-55 45 -134.5 73t-185.5 28z" />
<glyph unicode="&#xd9;" horiz-adv-x="1540" d="M852 1782q102 -74 198.5 -126t198.5 -93l23 30q-166 104 -316 271zM1698 1397l12 57h-547l-12 -57h143l72 -127l-143 -713q-18 -92 -56.5 -177t-96.5 -149.5t-135 -102.5t-171 -38q-102 0 -164.5 26.5t-93.5 84t-32 145.5t24 209l149 756l98 86h162l13 57h-641l-13 -57 h123l68 -86l-156 -783q-27 -133 -18.5 -236.5t57.5 -174t143.5 -107.5t239.5 -37q139 0 242.5 47.5t176 130t119 192.5t70.5 237l137 690l109 127h121z" />
<glyph unicode="&#xda;" horiz-adv-x="1540" d="M1280 1864q-102 -86 -215 -151.5t-244 -119.5l23 -30q133 41 261 91t279 128zM1698 1397l12 57h-547l-12 -57h143l72 -127l-143 -713q-18 -92 -56.5 -177t-96.5 -149.5t-135 -102.5t-171 -38q-102 0 -164.5 26.5t-93.5 84t-32 145.5t24 209l149 756l98 86h162l13 57h-641 l-13 -57h123l68 -86l-156 -783q-27 -133 -18.5 -236.5t57.5 -174t143.5 -107.5t239.5 -37q139 0 242.5 47.5t176 130t119 192.5t70.5 237l137 690l109 127h121z" />
<glyph unicode="&#xdb;" horiz-adv-x="1540" d="M1184 1862v2q-84 -84 -189.5 -148.5t-228.5 -122.5l22 -30q123 37 209 71.5t150 67.5q35 -35 81 -69t107 -70l23 30q-53 53 -97 128t-75 143zM1698 1397l12 57h-547l-12 -57h143l72 -127l-143 -713q-18 -92 -56.5 -177t-96.5 -149.5t-135 -102.5t-171 -38 q-102 0 -164.5 26.5t-93.5 84t-32 145.5t24 209l149 756l98 86h162l13 57h-641l-13 -57h123l68 -86l-156 -783q-27 -133 -18.5 -236.5t57.5 -174t143.5 -107.5t239.5 -37q139 0 242.5 47.5t176 130t119 192.5t70.5 237l137 690l109 127h121z" />
<glyph unicode="&#xdc;" horiz-adv-x="1540" d="M1419 1739q0 53 -35.5 89t-89.5 36q-53 0 -89 -36t-36 -89t36 -89t89 -36t89 36t36 89zM993 1739q0 53 -35.5 89t-89.5 36q-53 0 -89 -36t-36 -89t36 -89t89 -36t89 36t36 89zM1698 1397l12 57h-547l-12 -57h143l72 -127l-143 -713q-18 -92 -56.5 -177t-96.5 -149.5 t-135 -102.5t-171 -38q-102 0 -164.5 26.5t-93.5 84t-32 145.5t24 209l149 756l98 86h162l13 57h-641l-13 -57h123l68 -86l-156 -783q-27 -133 -18.5 -236.5t57.5 -174t143.5 -107.5t239.5 -37q139 0 242.5 47.5t176 130t119 192.5t70.5 237l137 690l109 127h121z" />
<glyph unicode="&#xdd;" horiz-adv-x="1241" d="M1135 1864q-102 -86 -215 -151.5t-244 -119.5l22 -30q133 41 261 91t280 128zM1432 1417l8 37h-420l-12 -57h153l64 -86l-443 -535h-4l-241 535l81 86h193l12 57h-600l-8 -37l123 -106l287 -623l-111 -545l-117 -86h-149l-10 -57h688l10 57h-152l-79 86l108 551z" />
<glyph unicode="&#xde;" horiz-adv-x="1226" d="M657 1311l95 86h116l13 57h-570l-12 -57h115l63 -86l-55 -277l-166 -837l-10 -54l-96 -86h-113l-12 -57h569l10 57h-117l-61 86l12 62l170 856q33 14 89.5 24.5t109.5 10.5q111 0 179.5 -60.5t68.5 -177.5q0 -88 -30 -162.5t-83 -130t-126 -86t-159 -30.5h-77l-15 -72h94 q111 0 219.5 40t194.5 110.5t140.5 168t54.5 209.5q0 133 -105.5 203t-353.5 70h-178z" />
<glyph unicode="&#xdf;" horiz-adv-x="1081" d="M993 969q20 20 52 47.5t61 62.5t50.5 77t21.5 93q0 63 -30 108.5t-77 72t-108.5 39t-124.5 12.5q-90 0 -164 -36t-133.5 -98.5t-104.5 -150.5t-78 -192h-168l-14 -48l160 -32l-256 -951q-45 -166 -94 -245.5t-97 -79.5q-47 0 -65.5 29.5t-18.5 80.5v29h-147 q-14 -10 -25.5 -33.5t-11.5 -58.5q0 -51 43 -86t141 -35q84 0 154 43t128 119t103.5 179t79.5 224l271 957q47 166 104 245.5t152 79.5q94 0 157.5 -56t63.5 -144q0 -55 -18.5 -94.5t-41.5 -65.5q-27 -31 -59 -49q-53 -4 -103.5 -23.5t-89 -57.5t-62 -95.5t-23.5 -135.5 q0 -74 29.5 -133t66.5 -116.5t66.5 -118t29.5 -135.5q0 -66 -32.5 -101t-92.5 -35q-31 0 -62.5 12.5t-59 40t-48 70.5t-29.5 105l-2 14h-38l-91 -221q57 -53 122 -81t130 -28q172 0 258 94.5t86 245.5q0 82 -29.5 144.5t-65.5 119t-65.5 112.5t-29.5 124q0 74 55 115t174 41 z" />
<glyph unicode="&#xe0;" horiz-adv-x="966" d="M598 1372q102 -74 198.5 -126t198.5 -93l23 31q-166 104 -316 270zM188 248q0 57 17.5 127.5t48.5 143.5t71 141.5t85 122t93 86t93 32.5q35 0 60.5 -11t43.5 -24q23 -14 37 -32q-33 -115 -94 -240t-130 -229.5t-134.5 -173t-106.5 -68.5q-43 0 -63.5 34t-20.5 91z M563 268q-31 -72 -53.5 -140.5t-22.5 -102.5q0 -51 43 -52q39 0 84 23.5t94.5 64.5t99.5 98.5t97 123.5l-35 32q-49 -66 -94 -111.5t-100 -80.5q0 29 11 84t38 131l217 686h-20l-78 -53q-20 20 -46 39.5t-81 19.5q-66 0 -142.5 -42t-154.5 -111.5t-151.5 -159.5t-130 -189.5 t-90.5 -200t-34 -188.5q0 -86 33 -126t94 -40q70 0 136.5 44t131 116t124 162t114.5 180h4z" />
<glyph unicode="&#xe1;" horiz-adv-x="966" d="M985 1454q-102 -86 -215 -151.5t-244 -118.5l23 -31q133 41 261 91t280 128zM188 248q0 57 17.5 127.5t48.5 143.5t71 141.5t85 122t93 86t93 32.5q35 0 60.5 -11t43.5 -24q23 -14 37 -32q-33 -115 -94 -240t-130 -229.5t-134.5 -173t-106.5 -68.5q-43 0 -63.5 34 t-20.5 91zM563 268q-31 -72 -53.5 -140.5t-22.5 -102.5q0 -51 43 -52q39 0 84 23.5t94.5 64.5t99.5 98.5t97 123.5l-35 32q-49 -66 -94 -111.5t-100 -80.5q0 29 11 84t38 131l217 686h-20l-78 -53q-20 20 -46 39.5t-81 19.5q-66 0 -142.5 -42t-154.5 -111.5t-151.5 -159.5 t-130 -189.5t-90.5 -200t-34 -188.5q0 -86 33 -126t94 -40q70 0 136.5 44t131 116t124 162t114.5 180h4z" />
<glyph unicode="&#xe2;" horiz-adv-x="966" d="M889 1452v2q-84 -84 -189.5 -148.5t-228.5 -121.5l23 -31q123 37 208.5 72t149.5 67q35 -35 81 -68.5t107 -70.5l23 31q-53 53 -97 127.5t-75 142.5zM188 248q0 57 17.5 127.5t48.5 143.5t71 141.5t85 122t93 86t93 32.5q35 0 60.5 -11t43.5 -24q23 -14 37 -32 q-33 -115 -94 -240t-130 -229.5t-134.5 -173t-106.5 -68.5q-43 0 -63.5 34t-20.5 91zM563 268q-31 -72 -53.5 -140.5t-22.5 -102.5q0 -51 43 -52q39 0 84 23.5t94.5 64.5t99.5 98.5t97 123.5l-35 32q-49 -66 -94 -111.5t-100 -80.5q0 29 11 84t38 131l217 686h-20l-78 -53 q-20 20 -46 39.5t-81 19.5q-66 0 -142.5 -42t-154.5 -111.5t-151.5 -159.5t-130 -189.5t-90.5 -200t-34 -188.5q0 -86 33 -126t94 -40q70 0 136.5 44t131 116t124 162t114.5 180h4z" />
<glyph unicode="&#xe3;" horiz-adv-x="966" d="M930 1260q35 0 68.5 15t65.5 39.5t63.5 56.5t60.5 65l-35 39q-16 -12 -36.5 -27.5t-45 -31t-49.5 -26t-47 -10.5q-27 0 -49.5 15.5t-47 35t-52 35t-66.5 15.5q-35 0 -68 -15.5t-65.5 -40t-63.5 -56.5t-59 -64l35 -39q14 12 35.5 27.5t46 30.5t49 25.5t47.5 10.5 q35 0 58.5 -15.5t45 -35t47 -34.5t62.5 -15zM188 248q0 57 17.5 127.5t48.5 143.5t71 141.5t85 122t93 86t93 32.5q35 0 60.5 -11t43.5 -24q23 -14 37 -32q-33 -115 -94 -240t-130 -229.5t-134.5 -173t-106.5 -68.5q-43 0 -63.5 34t-20.5 91zM563 268q-31 -72 -53.5 -140.5 t-22.5 -102.5q0 -51 43 -52q39 0 84 23.5t94.5 64.5t99.5 98.5t97 123.5l-35 32q-49 -66 -94 -111.5t-100 -80.5q0 29 11 84t38 131l217 686h-20l-78 -53q-20 20 -46 39.5t-81 19.5q-66 0 -142.5 -42t-154.5 -111.5t-151.5 -159.5t-130 -189.5t-90.5 -200t-34 -188.5 q0 -86 33 -126t94 -40q70 0 136.5 44t131 116t124 162t114.5 180h4z" />
<glyph unicode="&#xe4;" horiz-adv-x="966" d="M1145 1329q0 53 -36 89t-89 36t-89 -36t-36 -89t36 -89t89 -36t89 36t36 89zM719 1329q0 53 -36 89t-89 36t-89 -36t-36 -89t36 -89t89 -36t89 36t36 89zM188 248q0 57 17.5 127.5t48.5 143.5t71 141.5t85 122t93 86t93 32.5q35 0 60.5 -11t43.5 -24q23 -14 37 -32 q-33 -115 -94 -240t-130 -229.5t-134.5 -173t-106.5 -68.5q-43 0 -63.5 34t-20.5 91zM563 268q-31 -72 -53.5 -140.5t-22.5 -102.5q0 -51 43 -52q39 0 84 23.5t94.5 64.5t99.5 98.5t97 123.5l-35 32q-49 -66 -94 -111.5t-100 -80.5q0 29 11 84t38 131l217 686h-20l-78 -53 q-20 20 -46 39.5t-81 19.5q-66 0 -142.5 -42t-154.5 -111.5t-151.5 -159.5t-130 -189.5t-90.5 -200t-34 -188.5q0 -86 33 -126t94 -40q70 0 136.5 44t131 116t124 162t114.5 180h4z" />
<glyph unicode="&#xe5;" horiz-adv-x="966" d="M950 1313q0 -41 -29.5 -70t-72.5 -29q-41 0 -69.5 29t-28.5 70q0 43 28.5 72.5t69.5 29.5q43 0 72.5 -29.5t29.5 -72.5zM1016 1313q0 72 -48 120t-120 48q-70 0 -118 -48.5t-48 -119.5q0 -70 48 -118t118 -48q72 0 120 48t48 118zM188 248q0 57 17.5 127.5t48.5 143.5 t71 141.5t85 122t93 86t93 32.5q35 0 60.5 -11t43.5 -24q23 -14 37 -32q-33 -115 -94 -240t-130 -229.5t-134.5 -173t-106.5 -68.5q-43 0 -63.5 34t-20.5 91zM563 268q-31 -72 -53.5 -140.5t-22.5 -102.5q0 -51 43 -52q39 0 84 23.5t94.5 64.5t99.5 98.5t97 123.5l-35 32 q-49 -66 -94 -111.5t-100 -80.5q0 29 11 84t38 131l217 686h-20l-78 -53q-20 20 -46 39.5t-81 19.5q-66 0 -142.5 -42t-154.5 -111.5t-151.5 -159.5t-130 -189.5t-90.5 -200t-34 -188.5q0 -86 33 -126t94 -40q70 0 136.5 44t131 116t124 162t114.5 180h4z" />
<glyph unicode="&#xe6;" horiz-adv-x="1368" d="M1149 924q51 0 69.5 -25t18.5 -47q0 -47 -36 -102.5t-93 -102.5t-131 -79.5t-148 -32.5h-24q27 76 63.5 146.5t81.5 123.5t95.5 86t103.5 33zM188 248q0 57 17.5 127.5t48.5 143.5t71 141.5t85 122t93 86t93 32.5q35 0 60.5 -11t43.5 -24q23 -14 37 -32 q-33 -115 -94 -240t-130 -229.5t-134.5 -173t-106.5 -68.5q-43 0 -63.5 34t-20.5 91zM141 -27q66 0 131.5 44t130 114t124 158t112.5 174h4q-39 -86 -61.5 -168t-22.5 -152q0 -72 39 -121t117 -49q74 0 149.5 27t147 73t136 107.5t118.5 132.5l-31 23q-98 -111 -200.5 -169 t-174.5 -58q-59 0 -81.5 46t-22.5 111q0 51 8 106.5t24 112.5q106 2 217 41t200 100.5t145.5 136.5t56.5 146q0 61 -40 91t-99 30q-92 0 -183.5 -48t-173.5 -126q-41 106 -90 140t-104 34q-66 0 -142.5 -42t-154.5 -111.5t-151.5 -159.5t-130 -189.5t-90.5 -200t-34 -188.5 q0 -86 33 -126t94 -40z" />
<glyph unicode="&#xe7;" horiz-adv-x="841" d="M401 -254q0 37 -16 64.5t-43 44t-61.5 24.5t-69.5 8q-16 0 -30.5 -1t-33.5 -5l46 92q74 2 146.5 30t142 74t132 106.5t113.5 129.5l-31 23q-98 -111 -200.5 -169t-173.5 -58q-59 0 -82 46t-23 111q0 100 33 215t88 213.5t126 164t146 65.5q68 0 68 -78v-107h127 q29 31 52.5 73t23.5 89q0 25 -6.5 48.5t-22.5 42t-46 28.5t-77 10q-88 0 -174 -43t-165 -114.5t-146.5 -164t-116.5 -191.5t-78 -196.5t-29 -177.5q0 -59 27 -104t82 -59l-82 -162l14 -13q23 4 39.5 7.5t44.5 3.5q41 0 68 -19.5t27 -52.5q0 -51 -40 -82t-79 -31 q-33 0 -69 6.5t-64 18.5l-31 -47q43 -14 91 -24.5t102 -10.5q47 0 92 10t80.5 32t57 53.5t21.5 76.5z" />
<glyph unicode="&#xe8;" horiz-adv-x="829" d="M561 1372q102 -74 198.5 -126t198.5 -93l23 31q-166 104 -315 270zM610 924q51 0 69.5 -25t18.5 -47q0 -47 -35.5 -102.5t-93 -102.5t-131 -79.5t-147.5 -32.5h-25q27 76 64 146.5t82 123.5t95 86t103 33zM217 266q0 51 8 106.5t25 112.5q106 2 217 41t200 100.5 t145 136.5t56 146q0 61 -40 91t-99 30q-88 0 -174 -43t-165 -114.5t-146.5 -164t-116.5 -191.5t-78 -196.5t-29 -177.5q0 -72 39 -121t117 -49q74 0 149.5 27t147.5 73t136.5 107.5t117.5 132.5l-31 23q-98 -111 -200.5 -169t-173.5 -58q-59 0 -82 45.5t-23 111.5z" />
<glyph unicode="&#xe9;" horiz-adv-x="829" d="M907 1454q-102 -86 -214.5 -151.5t-243.5 -118.5l22 -31q133 41 261 91t280 128zM610 924q51 0 69.5 -25t18.5 -47q0 -47 -35.5 -102.5t-93 -102.5t-131 -79.5t-147.5 -32.5h-25q27 76 64 146.5t82 123.5t95 86t103 33zM217 266q0 51 8 106.5t25 112.5q106 2 217 41 t200 100.5t145 136.5t56 146q0 61 -40 91t-99 30q-88 0 -174 -43t-165 -114.5t-146.5 -164t-116.5 -191.5t-78 -196.5t-29 -177.5q0 -72 39 -121t117 -49q74 0 149.5 27t147.5 73t136.5 107.5t117.5 132.5l-31 23q-98 -111 -200.5 -169t-173.5 -58q-59 0 -82 45.5t-23 111.5 z" />
<glyph unicode="&#xea;" horiz-adv-x="829" d="M842 1452v2q-84 -84 -189.5 -148.5t-228.5 -121.5l22 -31q123 37 209 72t150 67q35 -35 81 -68.5t107 -70.5l23 31q-53 53 -97.5 127.5t-74.5 142.5zM610 924q51 0 69.5 -25t18.5 -47q0 -47 -35.5 -102.5t-93 -102.5t-131 -79.5t-147.5 -32.5h-25q27 76 64 146.5 t82 123.5t95 86t103 33zM217 266q0 51 8 106.5t25 112.5q106 2 217 41t200 100.5t145 136.5t56 146q0 61 -40 91t-99 30q-88 0 -174 -43t-165 -114.5t-146.5 -164t-116.5 -191.5t-78 -196.5t-29 -177.5q0 -72 39 -121t117 -49q74 0 149.5 27t147.5 73t136.5 107.5 t117.5 132.5l-31 23q-98 -111 -200.5 -169t-173.5 -58q-59 0 -82 45.5t-23 111.5z" />
<glyph unicode="&#xeb;" horiz-adv-x="829" d="M1090 1329q0 53 -36 89t-89 36t-89 -36t-36 -89t35.5 -89t89.5 -36q53 0 89 36t36 89zM664 1329q0 53 -36 89t-89 36t-89 -36t-36 -89t35.5 -89t89.5 -36q53 0 89 36t36 89zM610 924q51 0 69.5 -25t18.5 -47q0 -47 -35.5 -102.5t-93 -102.5t-131 -79.5t-147.5 -32.5h-25 q27 76 64 146.5t82 123.5t95 86t103 33zM217 266q0 51 8 106.5t25 112.5q106 2 217 41t200 100.5t145 136.5t56 146q0 61 -40 91t-99 30q-88 0 -174 -43t-165 -114.5t-146.5 -164t-116.5 -191.5t-78 -196.5t-29 -177.5q0 -72 39 -121t117 -49q74 0 149.5 27t147.5 73 t136.5 107.5t117.5 132.5l-31 23q-98 -111 -200.5 -169t-173.5 -58q-59 0 -82 45.5t-23 111.5z" />
<glyph unicode="&#xec;" horiz-adv-x="561" d="M268 1372q102 -74 198.5 -126t199.5 -93l22 31q-166 104 -315 270zM143 283q-12 -37 -24.5 -76t-21.5 -74t-15 -63.5t-6 -44.5q0 -51 43 -52q39 0 85 23.5t95 64.5t99.5 98.5t97.5 123.5l-37 32q-49 -66 -94.5 -111.5t-100.5 -80.5q0 29 11.5 84t37.5 131l238 686 l-377 -20l-16 -58h137l55 -65z" />
<glyph unicode="&#xed;" horiz-adv-x="561" d="M635 1454q-102 -86 -215 -151.5t-244 -118.5l23 -31q133 41 261 91t279 128zM143 283q-12 -37 -24.5 -76t-21.5 -74t-15 -63.5t-6 -44.5q0 -51 43 -52q39 0 85 23.5t95 64.5t99.5 98.5t97.5 123.5l-37 32q-49 -66 -94.5 -111.5t-100.5 -80.5q0 29 11.5 84t37.5 131 l238 686l-377 -20l-16 -58h137l55 -65z" />
<glyph unicode="&#xee;" horiz-adv-x="561" d="M559 1452v2q-84 -84 -189.5 -148.5t-228.5 -121.5l23 -31q123 37 209 72t149 67q35 -35 81 -68.5t108 -70.5l22 31q-53 53 -97 127.5t-75 142.5zM143 283q-12 -37 -24.5 -76t-21.5 -74t-15 -63.5t-6 -44.5q0 -51 43 -52q39 0 85 23.5t95 64.5t99.5 98.5t97.5 123.5 l-37 32q-49 -66 -94.5 -111.5t-100.5 -80.5q0 29 11.5 84t37.5 131l238 686l-377 -20l-16 -58h137l55 -65z" />
<glyph unicode="&#xef;" horiz-adv-x="561" d="M831 1329q0 53 -35.5 89t-88.5 36t-89 -36t-36 -89t35.5 -89t89.5 -36q53 0 88.5 36t35.5 89zM406 1329q0 53 -36 89t-89 36t-89 -36t-36 -89t35.5 -89t89.5 -36q53 0 89 36t36 89zM143 283q-12 -37 -24.5 -76t-21.5 -74t-15 -63.5t-6 -44.5q0 -51 43 -52q39 0 85 23.5 t95 64.5t99.5 98.5t97.5 123.5l-37 32q-49 -66 -94.5 -111.5t-100.5 -80.5q0 29 11.5 84t37.5 131l238 686l-377 -20l-16 -58h137l55 -65z" />
<glyph unicode="&#xf0;" horiz-adv-x="1155" d="M279 225q0 78 30.5 183.5t86 202t134 163t177.5 66.5q90 0 134 -53.5t44 -147.5q0 -76 -32 -179.5t-89 -196.5t-136 -157.5t-173 -64.5q-176 0 -176 184zM850 1106q29 -63 45 -134t18 -147h-4q-29 37 -92 59.5t-143 22.5q-117 0 -224.5 -46t-190.5 -126t-133 -187.5 t-50 -228.5q0 -78 27.5 -141t75.5 -109t115.5 -71t147.5 -25q141 0 263 61.5t212.5 163t142.5 232.5t52 270q0 113 -29.5 225.5t-89.5 213.5l191 45l22 82l-256 -60q-70 94 -167 167t-224 108l-14 -58q80 -31 150.5 -95t119.5 -152l-176 -41l-23 -82z" />
<glyph unicode="&#xf1;" horiz-adv-x="1132" d="M987 1260q35 0 69 15t65.5 39.5t63.5 56.5t60 65l-35 39q-16 -12 -36.5 -27.5t-45 -31t-49 -26t-47.5 -10.5q-27 0 -49 15.5t-47 35t-52.5 35t-66.5 15.5q-35 0 -67.5 -15.5t-65.5 -40t-63.5 -56.5t-59.5 -64l35 -39q14 12 35.5 27.5t46 30.5t49.5 25.5t47 10.5 q35 0 58.5 -15.5t45 -35t47 -34.5t62.5 -15zM842 881q31 0 50 -16.5t19 -51.5q0 -16 -6 -37.5t-14 -44t-17.5 -43t-15.5 -35.5l-190 -383q-35 -72 -64 -141.5t-29 -103.5q0 -51 43 -52q35 0 85.5 22.5t107.5 63.5t117.5 97.5t115.5 122.5l-30 32q-74 -78 -127 -119.5 t-113 -66.5q0 29 16.5 79t45.5 103l211 408q27 53 42 99t15 93t-34 85t-105 38q-78 0 -161 -49t-162 -123t-149.5 -161t-123.5 -165h-4l190 492l-377 -20l-16 -58h137l55 -65l-307 -881h156q33 100 60.5 180t55 144.5t56 116t59.5 94.5q51 72 105.5 135t107.5 110t102.5 74 t92.5 27z" />
<glyph unicode="&#xf2;" horiz-adv-x="870" d="M569 1372q102 -74 198.5 -126t199.5 -93l22 31q-166 104 -315 270zM18 143q0 -78 40 -124t116 -46q92 0 180 44t167 117t146.5 167t115.5 192.5t76 193.5t28 173t-40 124t-116 46q-92 0 -180 -44t-167 -116.5t-146.5 -167t-115.5 -192.5t-76 -193.5t-28 -173.5zM319 109 q-57 0 -80.5 39.5t-23.5 117.5q0 59 14.5 131t40 144.5t62.5 142.5t80 123t93 85t103 32q57 0 81 -40t24 -118q0 -59 -14.5 -131t-40 -144.5t-62.5 -142t-80 -123t-93.5 -85t-103.5 -31.5z" />
<glyph unicode="&#xf3;" horiz-adv-x="870" d="M936 1454q-102 -86 -215 -151.5t-244 -118.5l23 -31q133 41 261 91t279 128zM18 143q0 -78 40 -124t116 -46q92 0 180 44t167 117t146.5 167t115.5 192.5t76 193.5t28 173t-40 124t-116 46q-92 0 -180 -44t-167 -116.5t-146.5 -167t-115.5 -192.5t-76 -193.5t-28 -173.5z M319 109q-57 0 -80.5 39.5t-23.5 117.5q0 59 14.5 131t40 144.5t62.5 142.5t80 123t93 85t103 32q57 0 81 -40t24 -118q0 -59 -14.5 -131t-40 -144.5t-62.5 -142t-80 -123t-93.5 -85t-103.5 -31.5z" />
<glyph unicode="&#xf4;" horiz-adv-x="870" d="M862 1452v2q-84 -84 -189.5 -148.5t-228.5 -121.5l23 -31q123 37 209 72t149 67q35 -35 81 -68.5t108 -70.5l22 31q-53 53 -97 127.5t-75 142.5zM18 143q0 -78 40 -124t116 -46q92 0 180 44t167 117t146.5 167t115.5 192.5t76 193.5t28 173t-40 124t-116 46 q-92 0 -180 -44t-167 -116.5t-146.5 -167t-115.5 -192.5t-76 -193.5t-28 -173.5zM319 109q-57 0 -80.5 39.5t-23.5 117.5q0 59 14.5 131t40 144.5t62.5 142.5t80 123t93 85t103 32q57 0 81 -40t24 -118q0 -59 -14.5 -131t-40 -144.5t-62.5 -142t-80 -123t-93.5 -85 t-103.5 -31.5z" />
<glyph unicode="&#xf5;" horiz-adv-x="870" d="M905 1260q35 0 69 15t65.5 39.5t63.5 56.5t60 65l-35 39q-16 -12 -36.5 -27.5t-45 -31t-49 -26t-47.5 -10.5q-27 0 -49 15.5t-47 35t-52.5 35t-66.5 15.5q-35 0 -67.5 -15.5t-65.5 -40t-63.5 -56.5t-59.5 -64l35 -39q14 12 35.5 27.5t46.5 30.5t49.5 25.5t46.5 10.5 q35 0 58.5 -15.5t45 -35t47 -34.5t62.5 -15zM18 143q0 -78 40 -124t116 -46q92 0 180 44t167 117t146.5 167t115.5 192.5t76 193.5t28 173t-40 124t-116 46q-92 0 -180 -44t-167 -116.5t-146.5 -167t-115.5 -192.5t-76 -193.5t-28 -173.5zM319 109q-57 0 -80.5 39.5 t-23.5 117.5q0 59 14.5 131t40 144.5t62.5 142.5t80 123t93 85t103 32q57 0 81 -40t24 -118q0 -59 -14.5 -131t-40 -144.5t-62.5 -142t-80 -123t-93.5 -85t-103.5 -31.5z" />
<glyph unicode="&#xf6;" horiz-adv-x="870" d="M1118 1329q0 53 -35.5 89t-89.5 36q-53 0 -89 -36t-36 -89t36 -89t89 -36t89 36t36 89zM692 1329q0 53 -35.5 89t-89.5 36q-53 0 -89 -36t-36 -89t36 -89t89 -36t89 36t36 89zM18 143q0 -78 40 -124t116 -46q92 0 180 44t167 117t146.5 167t115.5 192.5t76 193.5t28 173 t-40 124t-116 46q-92 0 -180 -44t-167 -116.5t-146.5 -167t-115.5 -192.5t-76 -193.5t-28 -173.5zM319 109q-57 0 -80.5 39.5t-23.5 117.5q0 59 14.5 131t40 144.5t62.5 142.5t80 123t93 85t103 32q57 0 81 -40t24 -118q0 -59 -14.5 -131t-40 -144.5t-62.5 -142t-80 -123 t-93.5 -85t-103.5 -31.5z" />
<glyph unicode="&#xf7;" horiz-adv-x="1255" d="M1116 526l19 95h-1004l-18 -95h1003zM715 258q0 57 -40 98t-100 41q-59 0 -99 -41t-40 -98q0 -59 40 -100t99 -41t99.5 41t40.5 100zM856 891q0 57 -40 98t-99 41t-99 -41t-40 -98q0 -59 39.5 -100t99.5 -41q59 0 99 41t40 100z" />
<glyph unicode="&#xf8;" horiz-adv-x="870" d="M319 109q-84 0 -100 98l490 495q-10 -90 -45 -194.5t-87.5 -193.5t-118 -147t-139.5 -58zM608 924q88 0 101 -107l-492 -498q8 90 43 196t87 197t119.5 151.5t141.5 60.5zM18 119l-116 -119h112l33 33q39 -59 127 -60q92 0 180 44t167 117t146.5 167t115.5 192.5 t76 193.5t28 173q0 14 -2 23l121 121h-113l-35 -35q-39 61 -127 61q-92 0 -180 -44t-167 -116.5t-146.5 -167t-115.5 -192.5t-76 -193.5t-28 -173.5v-24z" />
<glyph unicode="&#xf9;" horiz-adv-x="1097" d="M569 1372q102 -74 198.5 -126t199.5 -93l22 31q-166 104 -315 270zM197 1004l-17 -58h137l56 -65l-230 -531q-10 -23 -22 -56.5t-23.5 -70.5t-19.5 -72.5t-8 -60.5q0 -41 27.5 -79t99.5 -38q78 0 154.5 49.5t147 123t135 160.5t118.5 165h4l-80 -201 q-29 -74 -48.5 -142.5t-19.5 -102.5q0 -51 43 -52q35 0 82 22.5t101.5 63.5t112 97.5t112.5 122.5l-31 32q-74 -78 -127 -119.5t-113 -66.5q0 29 11.5 86t31.5 113l244 690l-168 -10q-41 -160 -99 -303.5t-122 -231.5q-53 -72 -103.5 -135.5t-98.5 -110.5t-90 -73.5 t-75 -26.5q-31 0 -50 16.5t-19 50.5q0 33 16.5 75t32.5 85l274 674z" />
<glyph unicode="&#xfa;" horiz-adv-x="1097" d="M977 1454q-102 -86 -215 -151.5t-244 -118.5l23 -31q133 41 261 91t279 128zM197 1004l-17 -58h137l56 -65l-230 -531q-10 -23 -22 -56.5t-23.5 -70.5t-19.5 -72.5t-8 -60.5q0 -41 27.5 -79t99.5 -38q78 0 154.5 49.5t147 123t135 160.5t118.5 165h4l-80 -201 q-29 -74 -48.5 -142.5t-19.5 -102.5q0 -51 43 -52q35 0 82 22.5t101.5 63.5t112 97.5t112.5 122.5l-31 32q-74 -78 -127 -119.5t-113 -66.5q0 29 11.5 86t31.5 113l244 690l-168 -10q-41 -160 -99 -303.5t-122 -231.5q-53 -72 -103.5 -135.5t-98.5 -110.5t-90 -73.5 t-75 -26.5q-31 0 -50 16.5t-19 50.5q0 33 16.5 75t32.5 85l274 674z" />
<glyph unicode="&#xfb;" horiz-adv-x="1097" d="M901 1452v2q-84 -84 -189.5 -148.5t-228.5 -121.5l23 -31q123 37 209 72t149 67q35 -35 81 -68.5t108 -70.5l22 31q-53 53 -97 127.5t-75 142.5zM197 1004l-17 -58h137l56 -65l-230 -531q-10 -23 -22 -56.5t-23.5 -70.5t-19.5 -72.5t-8 -60.5q0 -41 27.5 -79t99.5 -38 q78 0 154.5 49.5t147 123t135 160.5t118.5 165h4l-80 -201q-29 -74 -48.5 -142.5t-19.5 -102.5q0 -51 43 -52q35 0 82 22.5t101.5 63.5t112 97.5t112.5 122.5l-31 32q-74 -78 -127 -119.5t-113 -66.5q0 29 11.5 86t31.5 113l244 690l-168 -10q-41 -160 -99 -303.5 t-122 -231.5q-53 -72 -103.5 -135.5t-98.5 -110.5t-90 -73.5t-75 -26.5q-31 0 -50 16.5t-19 50.5q0 33 16.5 75t32.5 85l274 674z" />
<glyph unicode="&#xfc;" horiz-adv-x="1097" d="M1149 1329q0 53 -36 89t-89 36t-89 -36t-36 -89t36 -89t89 -36t89 36t36 89zM723 1329q0 53 -36 89t-89 36t-89 -36t-36 -89t36 -89t89 -36t89 36t36 89zM197 1004l-17 -58h137l56 -65l-230 -531q-10 -23 -22 -56.5t-23.5 -70.5t-19.5 -72.5t-8 -60.5q0 -41 27.5 -79 t99.5 -38q78 0 154.5 49.5t147 123t135 160.5t118.5 165h4l-80 -201q-29 -74 -48.5 -142.5t-19.5 -102.5q0 -51 43 -52q35 0 82 22.5t101.5 63.5t112 97.5t112.5 122.5l-31 32q-74 -78 -127 -119.5t-113 -66.5q0 29 11.5 86t31.5 113l244 690l-168 -10q-41 -160 -99 -303.5 t-122 -231.5q-53 -72 -103.5 -135.5t-98.5 -110.5t-90 -73.5t-75 -26.5q-31 0 -50 16.5t-19 50.5q0 33 16.5 75t32.5 85l274 674z" />
<glyph unicode="&#xfd;" horiz-adv-x="923" d="M877 1454q-102 -86 -215 -151.5t-244 -118.5l22 -31q133 41 261 91t280 128zM-98 -293q-27 0 -51.5 19.5t-24.5 60.5v51h-133q-29 -31 -48.5 -66.5t-19.5 -76.5q0 -45 34 -83t99 -38q61 0 121 22.5t127.5 70.5t148.5 125t185 188q307 322 466 551t159 368q0 70 -42 100.5 t-85 30.5t-73 -8t-52 -18l-23 -156h53q33 0 52.5 -16.5t19.5 -51.5q0 -84 -115.5 -267t-377.5 -480h-5q18 53 35 119.5t36.5 175t44 274.5t59.5 418l-318 -16l-16 -58h96l59 -65q-23 -172 -39 -326t-32.5 -281t-37 -224t-52.5 -161q-25 -47 -57 -80.5t-65.5 -56t-67 -34 t-60.5 -11.5z" />
<glyph unicode="&#xfe;" horiz-adv-x="921" d="M766 756q0 -86 -33 -200t-88 -214t-130 -170t-157 -70q-35 0 -60.5 10.5t-43.5 22.5q-23 14 -37 35q33 115 94.5 240t130 229t134 173t106.5 69q43 0 63.5 -34t20.5 -91zM-47 -276l-59 -66h-146l-18 -57h540l19 57h-129l-58 66l72 260q31 -10 64 -11q76 0 156.5 42 t158.5 112t148.5 160t124 189t84 199.5t30.5 188.5q0 86 -33 126t-94 40q-70 0 -136.5 -44t-131 -115.5t-124 -162t-114.5 -180.5h-6l297 947l-367 -21l-16 -57h137l56 -66z" />
<glyph unicode="&#xff;" horiz-adv-x="923" d="M1030 1329q0 53 -36 89t-89 36t-89 -36t-36 -89t36 -89t89 -36t89 36t36 89zM604 1329q0 53 -36 89t-89 36t-89 -36t-36 -89t36 -89t89 -36t89 36t36 89zM-98 -293q-27 0 -51.5 19.5t-24.5 60.5v51h-133q-29 -31 -48.5 -66.5t-19.5 -76.5q0 -45 34 -83t99 -38 q61 0 121 22.5t127.5 70.5t148.5 125t185 188q307 322 466 551t159 368q0 70 -42 100.5t-85 30.5t-73 -8t-52 -18l-23 -156h53q33 0 52.5 -16.5t19.5 -51.5q0 -84 -115.5 -267t-377.5 -480h-5q18 53 35 119.5t36.5 175t44 274.5t59.5 418l-318 -16l-16 -58h96l59 -65 q-23 -172 -39 -326t-32.5 -281t-37 -224t-52.5 -161q-25 -47 -57 -80.5t-65.5 -56t-67 -34t-60.5 -11.5z" />
<glyph unicode="&#x152;" horiz-adv-x="2023" d="M985 115q-39 -8 -76 -17q-35 -6 -73.5 -11t-73.5 -5q-117 0 -193.5 41t-123 105.5t-66 142.5t-19.5 151q0 47 9.5 127t35 172t69.5 185.5t112.5 170t165 125t225.5 48.5q41 0 85 -7.5t79 -15.5q41 -10 82 -22zM1821 0l143 369h-37l-256 -287h-512l129 649h314l57 -246h37 l112 574h-36l-154 -246h-313l110 559h496l74 -266h36l70 348h-1032q-203 0 -369 -82t-284.5 -215t-183 -303t-64.5 -346q0 -86 28.5 -176t100 -164t193.5 -121t308 -47h1033z" />
<glyph unicode="&#x153;" horiz-adv-x="1378" d="M1159 924q51 0 69.5 -25t18.5 -47q0 -47 -35.5 -102.5t-93 -102.5t-131.5 -79.5t-147 -32.5h-25q27 76 63.5 146.5t82 123.5t95.5 86t103 33zM319 109q-57 0 -80.5 39.5t-23.5 117.5q0 59 14.5 131t40 144.5t62.5 142.5t80 123t93 85t103 32q57 0 81 -40t24 -118 q0 -59 -14.5 -131t-40 -144.5t-62.5 -142t-80 -123t-93.5 -85t-103.5 -31.5zM18 143q0 -78 40 -124t116 -46q106 0 207.5 58.5t189.5 150.5q-2 -10 -2 -19v-20q0 -72 39 -121t117 -49q74 0 149.5 27t147.5 73t136.5 107.5t117.5 132.5l-31 23q-98 -111 -200.5 -169 t-174.5 -58q-59 0 -81.5 46t-22.5 111q0 51 8 106.5t25 112.5q106 2 216.5 41t200 100.5t145.5 136.5t56 146q0 61 -40 91t-99 30q-104 0 -204.5 -58.5t-188.5 -152.5q0 10 1 20.5t1 20.5q0 78 -40 124t-116 46q-92 0 -180 -44t-167 -116.5t-146.5 -167t-115.5 -192.5 t-76 -193.5t-28 -173.5z" />
<glyph unicode="&#x178;" horiz-adv-x="1241" d="M1294 1739q0 53 -35.5 89t-89.5 36q-53 0 -89 -36t-36 -89t36 -89t89 -36t89 36t36 89zM868 1739q0 53 -35.5 89t-89.5 36q-53 0 -89 -36t-36 -89t36 -89t89 -36t89 36t36 89zM1432 1417l8 37h-420l-12 -57h153l64 -86l-443 -535h-4l-241 535l81 86h193l12 57h-600 l-8 -37l123 -106l287 -623l-111 -545l-117 -86h-149l-10 -57h688l10 57h-152l-79 86l108 551z" />
<glyph unicode="&#x2c6;" horiz-adv-x="450" d="M348 1452v2q-84 -84 -189.5 -148.5t-228.5 -121.5l23 -31q123 37 209 72t149 67q35 -35 81 -68.5t108 -70.5l22 31q-53 53 -97 127.5t-75 142.5z" />
<glyph unicode="&#x2dc;" horiz-adv-x="450" d="M309 1260q35 0 69 15t65.5 39.5t63.5 56.5t60 65l-35 39q-16 -12 -36.5 -27.5t-45 -31t-49 -26t-47.5 -10.5q-27 0 -49 15.5t-47 35t-52.5 35t-66.5 15.5q-35 0 -67.5 -15.5t-65.5 -40t-63.5 -56.5t-59.5 -64l35 -39q14 12 35.5 27.5t46.5 30.5t49.5 25.5t46.5 10.5 q35 0 58.5 -15.5t45 -35t47 -34.5t62.5 -15z" />
<glyph unicode="&#x2000;" horiz-adv-x="986" />
<glyph unicode="&#x2001;" horiz-adv-x="1972" />
<glyph unicode="&#x2002;" horiz-adv-x="986" />
<glyph unicode="&#x2003;" horiz-adv-x="1972" />
<glyph unicode="&#x2004;" horiz-adv-x="657" />
<glyph unicode="&#x2005;" horiz-adv-x="493" />
<glyph unicode="&#x2006;" horiz-adv-x="328" />
<glyph unicode="&#x2007;" horiz-adv-x="328" />
<glyph unicode="&#x2008;" horiz-adv-x="246" />
<glyph unicode="&#x2009;" horiz-adv-x="394" />
<glyph unicode="&#x200a;" horiz-adv-x="109" />
<glyph unicode="&#x2010;" horiz-adv-x="751" d="M639 545v82h-451v-82h451z" />
<glyph unicode="&#x2011;" horiz-adv-x="751" d="M639 545v82h-451v-82h451z" />
<glyph unicode="&#x2012;" horiz-adv-x="751" d="M639 545v82h-451v-82h451z" />
<glyph unicode="&#x2013;" horiz-adv-x="1120" d="M1008 545v82h-820v-82h820z" />
<glyph unicode="&#x2014;" horiz-adv-x="2144" d="M2032 545v82h-1844v-82h1844z" />
<glyph unicode="&#x2018;" horiz-adv-x="507" d="M645 1481q-61 -23 -127.5 -67t-121 -98t-89.5 -115.5t-35 -119.5q0 -70 36 -105.5t95 -35.5q68 0 109 40t41 99q0 57 -34 97.5t-111 42.5q14 39 44.5 72.5t66.5 62t74 50t69 34.5z" />
<glyph unicode="&#x2019;" horiz-adv-x="505" d="M279 940q61 23 127.5 67t121 98t89 114.5t34.5 119.5q0 70 -35.5 106t-95.5 36q-68 0 -108.5 -40t-40.5 -100q0 -57 33.5 -97t111.5 -42q-16 -39 -46 -72.5t-65.5 -62.5t-73.5 -50.5t-69 -33.5z" />
<glyph unicode="&#x201a;" horiz-adv-x="520" d="M-51 -289q61 23 127.5 67t121 98t89.5 114.5t35 120.5q0 70 -36 105.5t-96 35.5q-68 0 -108.5 -40t-40.5 -99q0 -57 34 -97.5t111 -42.5q-16 -39 -45.5 -72.5t-65.5 -62t-74 -50t-69 -34.5z" />
<glyph unicode="&#x201c;" horiz-adv-x="937" d="M645 1481q-61 -23 -127.5 -67t-121 -98t-89.5 -115.5t-35 -119.5q0 -70 36 -105.5t95 -35.5q68 0 109 40t41 99q0 57 -34 97.5t-111 42.5q14 39 44.5 72.5t66.5 62t74 50t69 34.5zM1075 1481q-61 -23 -127.5 -67t-121 -98t-89.5 -115.5t-35 -119.5q0 -70 36 -105.5 t96 -35.5q68 0 108.5 40t40.5 99q0 57 -34 97.5t-111 42.5q14 39 44.5 72.5t66.5 62t74 50t69 34.5z" />
<glyph unicode="&#x201d;" horiz-adv-x="935" d="M709 940q61 23 127.5 67t121 98t89 114.5t34.5 119.5q0 70 -35.5 106t-95.5 36q-68 0 -108.5 -40t-40.5 -100q0 -57 33.5 -97t111.5 -42q-16 -39 -46 -72.5t-65.5 -62.5t-73.5 -50.5t-69 -33.5zM279 940q61 23 127.5 67t121 98t89 114.5t34.5 119.5q0 70 -35.5 106 t-95.5 36q-68 0 -108.5 -40t-40.5 -100q0 -57 33.5 -97t111.5 -42q-16 -39 -46 -72.5t-65.5 -62.5t-73.5 -50.5t-69 -33.5z" />
<glyph unicode="&#x201e;" horiz-adv-x="950" d="M379 -289q61 23 127.5 67t121 98t89.5 114.5t35 120.5q0 70 -36 105.5t-95 35.5q-68 0 -109 -40t-41 -99q0 -57 34 -97.5t111 -42.5q-16 -39 -45.5 -72.5t-65.5 -62t-74 -50t-69 -34.5zM-51 -289q61 23 127.5 67t121 98t89.5 114.5t35 120.5q0 70 -36 105.5t-96 35.5 q-68 0 -108.5 -40t-40.5 -99q0 -57 34 -97.5t111 -42.5q-16 -39 -45.5 -72.5t-65.5 -62t-74 -50t-69 -34.5z" />
<glyph unicode="&#x2022;" horiz-adv-x="700" d="M506 571q0 66 -48 114t-116 48t-116 -48t-48 -114q0 -68 48 -115.5t116 -47.5t116 47.5t48 115.5z" />
<glyph unicode="&#x2026;" horiz-adv-x="1497" d="M811 113q0 59 -40 99t-99 40t-99.5 -40t-40.5 -99t40 -99.5t100 -40.5q59 0 99 40.5t40 99.5zM1305 113q0 59 -40 99t-100 40q-59 0 -100 -40t-41 -99t41 -99.5t100 -40.5t99.5 40.5t40.5 99.5zM322 113q0 59 -41 99t-101 40q-59 0 -99 -40t-40 -99t40 -99.5t99 -40.5 t100.5 40.5t41.5 99.5z" />
<glyph unicode="&#x202f;" horiz-adv-x="394" />
<glyph unicode="&#x2039;" horiz-adv-x="610" d="M393 72h31l-139 426l305 424h-31l-434 -394l-12 -57z" />
<glyph unicode="&#x203a;" horiz-adv-x="614" d="M252 922h-33l141 -426l-305 -424h33l432 393l10 57z" />
<glyph unicode="&#x205f;" horiz-adv-x="493" />
<glyph unicode="&#x20ac;" horiz-adv-x="1476" d="M209 545v-21q0 -96 20.5 -194.5t74.5 -177t149.5 -129t246.5 -50.5q115 0 216.5 45t185.5 111t146.5 140.5t101.5 136.5l-54 20q-104 -131 -235 -210t-311 -79q-86 0 -149.5 34t-106.5 90t-68 130t-33 154h508l19 94h-531v6q0 47 5 93t16 93h553l18 95h-545 q35 100 91.5 187t127 151.5t151.5 100.5t165 36q92 0 151.5 -29t96 -76t58 -107.5t42.5 -125.5l10 -33h62l86 443h-62l-65 -76q-18 12 -41 26.5t-56.5 27.5t-82 21.5t-121.5 8.5q-115 0 -227.5 -40t-213 -112t-183.5 -175t-136 -228h-131l-19 -95h115q-14 -47 -24.5 -95 t-14.5 -97h-119l-18 -94h131z" />
<glyph unicode="&#x2122;" horiz-adv-x="2353" d="M684 752l123 632h125l84 -327h37l80 416h-60l-57 -19h-561l-52 19h-59l-80 -416h37l211 327h121l-123 -632l-70 -66h-153l-13 -57h600l13 57h-154zM2214 629l12 57h-92l-49 66l110 569l54 76h114l13 57h-326l-342 -580h-4l-133 580h-297l-12 -57h94l24 -76l-110 -569 l-74 -66h-72l-12 -57h354l13 57h-82l-45 66l92 475h2l129 -598h70l354 596h4l-92 -473l-70 -66h-61l-13 -57h447z" />
<glyph unicode="&#x2190;" horiz-adv-x="1454" d="M436 436l-254 252h1272v100h-1249l229 232l-72 70l-362 -363l362 -365z" />
<glyph unicode="&#x2192;" horiz-adv-x="1454" d="M0 688h1272l-252 -254l72 -69l362 362l-362 363l-72 -72l229 -230h-1249v-100z" />
<glyph unicode="&#x25fc;" horiz-adv-x="1034" d="M0 1034h1034v-1034h-1034v1034z" />
<glyph unicode="&#xfb06;" horiz-adv-x="1331" d="M541 1030q-63 0 -121 -22.5t-101 -64.5t-68.5 -103.5t-25.5 -139.5q0 -74 30 -133t66.5 -116.5t66.5 -118t30 -135.5q0 -66 -33 -101t-92 -35q-31 0 -62.5 12.5t-59.5 40t-48.5 70.5t-28.5 105l-2 14h-39l-90 -221q57 -53 122 -81t130 -28q172 0 258 94.5t86 245.5 q0 82 -29.5 144.5t-65.5 119t-65.5 112.5t-29.5 124q0 59 34.5 101t88.5 42q41 0 67.5 -21.5t41.5 -56t21.5 -80.5t6.5 -96v-10h41l106 260q-14 8 -25.5 34t-19.5 56.5t-12 60.5t-4 48q0 117 67.5 192.5t186.5 75.5q86 0 133 -48t47 -114q0 -76 -36 -144.5t-105 -108.5h-86 l-15 -48l162 -32l-207 -611q-12 -37 -24.5 -80t-23.5 -83.5t-17 -74.5t-6 -50q0 -51 43 -52q39 0 90 26t107 69t111.5 99t102.5 116l-31 32q-41 -41 -70.5 -69.5t-55 -50t-51 -39t-58.5 -33.5q0 63 49 215l189 598h219l20 68h-221l14 51q10 41 20.5 90t10.5 92 q0 104 -69.5 174t-221.5 70q-66 0 -140.5 -24.5t-138 -76t-104.5 -128t-41 -181.5v-41h-24z" />
<glyph horiz-adv-x="1677" d="M1522 756q0 -86 -33 -200t-88 -214t-130 -170t-157 -70q-35 0 -60.5 10.5t-43.5 22.5q-23 14 -37 35q33 115 94 240t130 229t134.5 173t106.5 69q43 0 63.5 -34t20.5 -91zM541 1030q-63 0 -121 -22.5t-101 -64.5t-68.5 -103.5t-25.5 -139.5q0 -74 30 -133t66.5 -116.5 t66.5 -118t30 -135.5q0 -66 -33 -101t-92 -35q-31 0 -62.5 12.5t-59.5 40t-48.5 70.5t-28.5 105l-2 14h-39l-90 -221q57 -53 122 -81t130 -28q172 0 258 94.5t86 245.5q0 82 -29.5 144.5t-65.5 119t-65.5 112.5t-29.5 124q0 59 34.5 101t88.5 42q41 0 67.5 -21.5t41.5 -56 t21.5 -80.5t6.5 -96v-10h41l106 260q-14 8 -25.5 34t-19.5 56.5t-12 60.5t-4 48q0 117 67.5 192.5t186.5 75.5q86 0 133 -48t47 -114q0 -76 -36 -144.5t-105 -108.5h-107l-16 -58h96l55 -65l-327 -1157l-60 -66h-145l-19 -57h541l18 57h-129l-57 66l72 260q31 -10 63 -11 q76 0 157 42t158.5 112t148.5 160t124 189t84 199.5t31 188.5q0 86 -33 126t-94 40q-70 0 -136.5 -44t-131 -115.5t-124 -162t-114.5 -180.5h-6l192 527q14 39 22.5 89t8.5 93q0 104 -69.5 174t-221.5 70q-66 0 -140.5 -24.5t-138 -76t-104.5 -128t-41 -181.5v-41h-24z" />
<glyph horiz-adv-x="1474" d="M858 1151q0 117 67.5 192.5t186.5 75.5q86 0 133 -48t47 -114q0 -76 -35.5 -144.5t-105.5 -108.5h-86l-14 -48l161 -32l-206 -611q-12 -37 -24.5 -80t-24 -83.5t-17.5 -74.5t-6 -50q0 -51 43 -52q39 0 90 26t107.5 69t111.5 99t103 116l-31 32q-41 -41 -71 -69.5 t-55.5 -50t-51 -39t-58.5 -33.5q0 63 49 215l189 598h219l20 68h-221l15 51q10 41 20 90t10 92q0 104 -69.5 174t-220.5 70q-66 0 -140.5 -24.5t-138 -76t-104.5 -128t-41 -181.5v-41q-80 0 -163 -43t-160 -114.5t-143.5 -164t-116.5 -191.5t-79 -196.5t-29 -177.5 q0 -72 39 -121t117 -49q74 0 149.5 27t147.5 73t136.5 107.5t117.5 132.5l-31 23q-98 -111 -200.5 -169t-174.5 -58q-59 0 -81.5 46t-22.5 111q0 100 33 215t88 213.5t125.5 164t146.5 65.5q68 0 68 -78v-107h127q29 31 52.5 73t23.5 89q0 66 -10.5 122t-10.5 128z" />
</font>
</defs>
</svg>
